<svg xmlns="http://www.w3.org/2000/svg" viewBox="0 0 40.77 51.95"><defs><style>.cls-1{fill:#ff3100;}.cls-1,.cls-2,.cls-3,.cls-4,.cls-6{stroke:#000;stroke-miterlimit:10;}.cls-1,.cls-4,.cls-6{stroke-width:0.25px;}.cls-2,.cls-4,.cls-6{fill:#31404f;}.cls-2,.cls-3{stroke-width:0.5px;}.cls-3,.cls-5{fill:#fff;}.cls-6{opacity:0.8;}</style></defs><title>autofly</title><g id="Слой_2" data-name="Слой 2"><g id="Layer_1" data-name="Layer 1"><g id="icons"><g id="autofly"><path class="cls-1" d="M1.5,42.83a2.28,2.28,0,0,0,.71,1.23c.81.57,2,.15,1.71-1.57C2.74,34.32,9.68,37,9.68,37l2.69-9C-5.57,20.93,1.5,42.83,1.5,42.83Z"/><path class="cls-1" d="M24.26,35l-6.52,6.76s5.77,4.72-1.93,7.7c-1.62.63-1.42,1.84-.53,2.26a2.29,2.29,0,0,0,1.42,0S39.25,47.13,24.26,35Z"/><path class="cls-2" d="M26,1.89a17.28,17.28,0,0,0,6.17,5.89,17.4,17.4,0,0,0,8.12,2.48A26.14,26.14,0,0,0,36.52.3,26.18,26.18,0,0,0,26,1.89Z"/><path class="cls-3" d="M32.18,7.78A17.28,17.28,0,0,1,26,1.89C19.5,4.25,6.25,15,6.1,36.75l13.59,8c19-11.05,21.75-27.61,20.61-34.44A17.4,17.4,0,0,1,32.18,7.78Z"/><path class="cls-1" d="M7.78,25.34l21,12.28c.51-.46.93-1,1.4-1.42L8.31,23.42C8.14,24.06,7.93,24.67,7.78,25.34Z"/><path class="cls-1" d="M7.17,27.89,26.88,39.41c.56-.46,1-1,1.52-1.43L7.65,25.86C7.5,26.53,7.3,27.18,7.17,27.89Z"/><path class="cls-4" d="M6.1,36.75l6.8,4h0L17,33.65l-10-5.83A69.44,69.44,0,0,0,6.1,36.75Z"/><path class="cls-5" d="M12.9,40.73l6.79,4A68.39,68.39,0,0,0,27,39.48L17,33.65Z"/><path class="cls-6" d="M12.9,40.73l6.79,4A68.39,68.39,0,0,0,27,39.48L17,33.65Z"/><path class="cls-1" d="M27.91,15.65c-1.37-.79-4.22,1.6-5.28,2.77-2.68,2.92-.34,3.11,1,3.91s2.36,2.12,3.91-1C28.26,19.89,29.27,16.45,27.91,15.65Z"/><path class="cls-2" d="M30.87,10.66c-3.79-2.22-10,1.7-12.65,5.18-5.85,7.58-.94,8.67,2.86,10.89S28,32.09,32,23.88C33.9,19.93,34.67,12.87,30.87,10.66Zm-.29,12.41c-2.94,6.15-5.66,4.05-8.69,2.28s-7.29-2.63-2.28-8.7c2.23-2.7,7.54-6.24,10.57-4.47S32.09,19.9,30.58,23.07Z"/><path class="cls-1" d="M17.83,32.29a1.6,1.6,0,0,0-2.1.54s-7.55,14.73-7,15.05S18.4,34.39,18.4,34.39A1.64,1.64,0,0,0,17.83,32.29Z"/></g></g></g></g></svg>