<svg xmlns="http://www.w3.org/2000/svg" viewBox="0 0 49.99 58.3"><defs><style>.cls-1,.cls-9{fill:#31404f;}.cls-2,.cls-4{fill:#212c36;}.cls-3{fill:#3f5366;}.cls-4,.cls-5,.cls-6,.cls-9{stroke:#000;stroke-miterlimit:10;stroke-width:0.25px;}.cls-5{fill:#ff3100;}.cls-6{fill:#e02b00;}.cls-7{fill:#c3d6d1;}.cls-8{fill:#aabab6;}</style></defs><title>autofuel</title><g id="Слой_2" data-name="Слой 2"><g id="Layer_1" data-name="Layer 1"><g id="icons"><g id="autofuel"><path class="cls-1" d="M0,26.25a6.5,6.5,0,0,0,6.46,6.53L6.6,15.22S0,22.68,0,26.25Z"/><path class="cls-2" d="M6.6,15.22,6.46,32.78h0A6.52,6.52,0,0,0,13,26.34C13.06,22.77,6.6,15.22,6.6,15.22Z"/><path class="cls-3" d="M3.8,28.35a1.24,1.24,0,0,1-1.24,1.22h0a1.24,1.24,0,0,1-1.22-1.24V27a1.24,1.24,0,0,1,1.24-1.22h0A1.24,1.24,0,0,1,3.81,27Z"/><path class="cls-4" d="M28.57,56.87,26,55.53c1-2,3.78-7.93,4-10.73a1.1,1.1,0,0,0-.37-.87c-1.42-1.59-5.8-2.43-6.71-2.45V38.54c.57,0,6.36.69,8.85,3.35A4.09,4.09,0,0,1,32.88,45C32.57,49,28.74,56.55,28.57,56.87Z"/><path class="cls-5" d="M25.53,55.21A1.54,1.54,0,0,1,24,53.68l-.15-17.29a1.53,1.53,0,0,1,1.53-1.55L33,34.77l-.06-7.42-10.46.09a2.93,2.93,0,0,0-2.91,3l.21,24.86a2.93,2.93,0,0,0,3,2.91l10.46-.09,0-2.94Z"/><path class="cls-6" d="M43.37,27.26l-10.45.09L33,34.77l2.62,0a1.53,1.53,0,0,1,1.55,1.53l.15,17.29a1.53,1.53,0,0,1-1.53,1.55l-2.62,0,0,2.94L43.63,58a2.94,2.94,0,0,0,2.92-3l-.22-24.86A2.94,2.94,0,0,0,43.37,27.26Z"/><polygon class="cls-7" points="3.98 8.11 4.03 11.14 7.28 11.14 7.34 8.79 14.94 5.74 17.31 6.99 25.42 19.55 27.85 17.98 19.44 4.61 15.82 2.73 3.98 8.11"/><path class="cls-8" d="M21.83,3.15a2.91,2.91,0,0,0-1.09-1L16.67,0,5.36,5.49,4,8.11,15.82,2.74l3.62,1.87L27.85,18l2.51-1.62Z"/><path class="cls-4" d="M31,12.29,29,9.52a1.51,1.51,0,0,0-2.11-.34L20,14.12a1.52,1.52,0,0,0-.34,2.12l2,2.77Z"/><polygon class="cls-4" points="19.56 31.63 19.56 31.63 46.34 31.4 49.85 25.98 45.66 16.92 19.56 31.63"/><polygon class="cls-9" points="45.66 16.92 31.95 10.1 19.18 18.57 19.56 31.63 45.66 16.92 45.66 16.92"/></g></g></g></g></svg>