<svg xmlns="http://www.w3.org/2000/svg" xmlns:xlink="http://www.w3.org/1999/xlink" viewBox="0 0 32.49 49.9"><defs><style>.cls-1{isolation:isolate;}.cls-2{stroke:#000;stroke-miterlimit:10;stroke-width:0.5px;fill:url(#linear-gradient);}.cls-3{fill:url(#linear-gradient-2);}.cls-4{fill:url(#linear-gradient-3);}.cls-5{mix-blend-mode:screen;fill:url(#linear-gradient-4);}</style><linearGradient id="linear-gradient" x1="412.62" y1="211.78" x2="455.72" y2="185.86" gradientTransform="translate(-182.02 459.19) rotate(-90)" gradientUnits="userSpaceOnUse"><stop offset="0" stop-color="#de875e"/><stop offset="1" stop-color="#f0cc95"/></linearGradient><linearGradient id="linear-gradient-2" x1="-157.44" y1="1316.96" x2="-157.44" y2="1312.61" gradientTransform="translate(-147.77 1317.73) rotate(180)" gradientUnits="userSpaceOnUse"><stop offset="0" stop-color="#f3edd5"/><stop offset="0.48" stop-color="#f1ebd3"/><stop offset="0.75" stop-color="#ebe4cb"/><stop offset="0.97" stop-color="#e0d9bd"/><stop offset="1" stop-color="#ded7ba"/></linearGradient><linearGradient id="linear-gradient-3" x1="-150.12" y1="1296.32" x2="-148.32" y2="1291.6" xlink:href="#linear-gradient-2"/><linearGradient id="linear-gradient-4" x1="-167.07" y1="1302.21" x2="-167.07" y2="1286.29" gradientTransform="translate(-147.77 1317.73) rotate(180)" gradientUnits="userSpaceOnUse"><stop offset="0" stop-color="#966e3e"/><stop offset="1"/></linearGradient></defs><title>powerclick</title><g class="cls-1"><g id="Слой_2" data-name="Слой 2"><g id="Layer_1" data-name="Layer 1"><g id="icons"><g id="powerclick"><path class="cls-2" d="M12.5,46c0-9.86-5.62-6.22-10-10.82C.45,33-1.54,21,3,21c5,0,1.47,5.32,3.89,7.67C6.32,21.53,6.39,7.53,7,2.45c.3-2.56,4.88-3.53,5.37.67.27,2.35.18,10.85.35,14.92,0-1.61.11-3.39.11-4.42,0-3.79,5.78-3.28,5.78-.48,0,1,.22,3,.22,4.75,0-1.45.11-2.67.11-3.59,0-3,6.09-3.16,6.07-.27,0,1,.06,1.91.08,3.37.05-1.35.16-1.79.16-2.51,0-3,6.09-2.89,6.09,1.27,0,2.49.61,7,.75,9.4s.43,6.54-.36,8.71c-1,2.68-3.52,3-4.51,5.28-1.13,2.57-.26,7,0,9.72-5.1,0-10.42.17-15,.37C12.21,49.64,12.5,46.92,12.5,46Z"/><path class="cls-3" d="M7.83,3.48C7.83,2.3,8.46,1,9.67,1s1.84,1.33,1.84,2.51A1.67,1.67,0,0,1,9.67,5.22,1.67,1.67,0,0,1,7.83,3.48Z"/><path class="cls-4" d="M2.49,23.08A3.76,3.76,0,0,0,2,21.23C.75,21.89.26,23.86.25,26.14,1.49,26.07,2.49,24.73,2.49,23.08Z"/><path class="cls-5" d="M28,18.86c-2,.24-1.62,1-3.89.14-2.47-.94-2.78.48-4.95.87-1.49.26-2.43-.7-4-.81-1-.06-1.27.81-2.81.87-.7,0-2.06-.53-2.74-.33-1.92.56-1.79,3.19-1.68,4.68.19,2.48.47,6.9,1.81,9.31,1.92,3.46,8.4.91,11.59-.25,3.76-1.36,7.32,1,8.9-2.49.85-1.91.48-6.77.13-9C30.07,20.06,29.85,18.64,28,18.86Z"/></g></g></g></g></g></svg>