<svg xmlns="http://www.w3.org/2000/svg" viewBox="0 0 36.31 45.23"><defs><style>.cls-1,.cls-3{fill:#212c36;}.cls-2,.cls-4{fill:#31404f;}.cls-3,.cls-4{stroke:#000;stroke-miterlimit:10;stroke-width:0.25px;}.cls-5{fill:#fdb813;}.cls-6{fill:#fdab13;}.cls-7{fill:#ffca00;}</style></defs><title>tank</title><g id="Слой_2" data-name="Слой 2"><g id="Layer_1" data-name="Layer 1"><g id="icons"><g id="tank"><path class="cls-1" d="M32.61,1.06A2.37,2.37,0,0,0,30.42,0h-12a6.54,6.54,0,0,0-5.09,2.84l-2.46,4a2.33,2.33,0,0,0-.24,2.41,2.34,2.34,0,0,0,2.19,1.06h12a6.55,6.55,0,0,0,5.09-2.85l2.43-4A2.35,2.35,0,0,0,32.61,1.06ZM27.37,5.9a3.62,3.62,0,0,1-2.52,1.41H14.15l1.78-2.89A3.65,3.65,0,0,1,18.46,3H29.14Z"/><path class="cls-1" d="M25.86,2.54A6.12,6.12,0,0,1,30.48,0h2.68a2.93,2.93,0,0,1,3,2.82,2.93,2.93,0,0,1-3,2.83H26.88a12.64,12.64,0,0,0-3.26.59l1.87-3.12Z"/><rect class="cls-1" x="28.26" y="2.83" width="7.92" height="16.66"/><polygon class="cls-2" points="3.64 6.68 0.82 9.5 8.49 17.16 11.35 14.3 3.64 6.68"/><polygon class="cls-1" points="14.13 11.52 6.46 3.86 3.64 6.68 11.35 14.3 14.13 11.52"/><polygon class="cls-2" points="7.6 4.29 6.33 3.04 3.16 6.21 4.43 7.47 7.6 4.29"/><polygon class="cls-1" points="3.16 6.21 0 9.38 1.27 10.63 4.43 7.47 3.16 6.21"/><path class="cls-3" d="M12.92,5.66a9,9,0,0,0-5.23,2L4.3,10.76a7.74,7.74,0,0,0-2.23,5V42.1a3,3,0,0,0,3,3h14V5.65Z"/><path class="cls-4" d="M36.17,8.65a3,3,0,0,0-3-3h-14V45.1H33.18a3,3,0,0,0,3-3Z"/><path class="cls-2" d="M12.92,6.28A8.42,8.42,0,0,0,8.1,8.14L4.71,11.22a7.16,7.16,0,0,0-2,4.56V42.1a2.39,2.39,0,0,0,1.23,2.08,2.33,2.33,0,0,0,1.16.3h14V6.28Z"/><path class="cls-1" d="M35.56,42.08V8.65a2.39,2.39,0,0,0-1.23-2.08,2.32,2.32,0,0,0-1.15-.3h-14v38.2H33.18A2.38,2.38,0,0,0,35.56,42.08Z"/><path class="cls-5" d="M14.23,33.74c1.86,0,3.27.36,3.27,4.06,0,3.49-1.33,3.94-3.27,3.94S11,41.4,11,37.8,12.41,33.74,14.23,33.74Zm0,6.12c.93,0,1.17-.39,1.17-2.06,0-1.83-.19-2.18-1.17-2.18s-1.18.25-1.18,2.18C13.05,39.45,13.17,39.86,14.23,39.86Z"/><path class="cls-5" d="M18.25,33.8h2.09v7.9H18.25Z"/><path class="cls-5" d="M21.18,33.8h2.1v5.46c0,.57.36.56.67.56h2.22V41.7H23A1.59,1.59,0,0,1,21.18,40Z"/><path class="cls-6" d="M13.25,25.83A5.77,5.77,0,0,0,19,31.58V16S13.25,22.65,13.25,25.83Z"/><path class="cls-7" d="M19,16v15.6h0a5.77,5.77,0,0,0,5.78-5.76C24.83,22.64,19,16,19,16Z"/></g></g></g></g></svg>