<svg xmlns="http://www.w3.org/2000/svg" viewBox="0 0 73.47 73.47"><defs><style>.cls-1{isolation:isolate;}.cls-2,.cls-4{fill:#282828;stroke:#646465;stroke-miterlimit:10;stroke-width:0.25px;}.cls-3{fill:#afada9;opacity:0.55;}.cls-3,.cls-7{mix-blend-mode:screen;}.cls-4{fill-rule:evenodd;}.cls-5{fill:#201600;}.cls-6,.cls-8{fill:#fff;}.cls-7,.cls-8{opacity:0.85;}</style></defs><title>global</title><g class="cls-1"><g id="Слой_2" data-name="Слой 2"><g id="Layer_1" data-name="Layer 1"><g id="icon-global"><path class="cls-2" d="M16.47,5.83A11,11,0,0,0,8.65,9.07l4.67,4.67A9.2,9.2,0,0,1,19.84,11H53.63a9.16,9.16,0,0,1,6.51,2.7l4.67-4.67A11,11,0,0,0,57,5.83Z"/><path class="cls-2" d="M13.32,13.74,8.65,9.07a11,11,0,0,0-3.23,7.82V57.41a11,11,0,0,0,3.23,7.82l4.67-4.67A9.22,9.22,0,0,1,10.62,54V20.26A9.22,9.22,0,0,1,13.32,13.74Z"/><path class="cls-2" d="M60.14,13.74a9.18,9.18,0,0,1,2.7,6.52V54a9.18,9.18,0,0,1-2.7,6.52l4.67,4.67a11,11,0,0,0,3.24-7.82V16.89a11,11,0,0,0-3.24-7.82Z"/><path class="cls-2" d="M53.63,63.26H19.84a9.2,9.2,0,0,1-6.52-2.7L8.65,65.23a11,11,0,0,0,7.82,3.24H57a11,11,0,0,0,7.81-3.24l-4.67-4.67A9.16,9.16,0,0,1,53.63,63.26Z"/><path class="cls-2" d="M53.63,11H19.84a9.22,9.22,0,0,0-9.22,9.22V54a9.22,9.22,0,0,0,9.22,9.22H53.63A9.22,9.22,0,0,0,62.84,54V20.26A9.22,9.22,0,0,0,53.63,11Z"/><rect class="cls-3" x="13.32" y="13.74" width="46.82" height="46.82" rx="8.26" ry="8.26"/><path class="cls-4" d="M27.57,53a1.9,1.9,0,0,1-1.36-.49c-.67-.62-1.15-1.89-.25-6.88.31-1.74.7-3.39.92-4.3-.76-.58-2.14-1.68-3.49-2.9-3.14-2.86-4.21-4.67-3.56-6.06,1-2.15,7-2.71,10.89-2.85C34.54,20,36.3,20,36.89,20s2.34,0,6.16,9.44c4,.05,10.12.54,10.94,3s-3.79,6.4-7.05,8.83c1.25,4,2.7,10,.44,11.34a2.47,2.47,0,0,1-1.31.33h0c-2.57,0-7.41-3.16-9.2-4.39C34.87,49.83,29.83,53,27.57,53Z"/><path class="cls-5" d="M36.89,21.11c1.68,0,5.41,9.44,5.41,9.44s9.89,0,10.65,2.23-7.31,8.06-7.31,8.06,3.19,9.6,1.17,10.82-9.92-4.46-9.92-4.46S28.31,52.93,27,51.66s1.17-10.82,1.17-10.82-8.23-6.05-7.3-8.06,10.65-2.23,10.65-2.23S35.21,21.11,36.89,21.11Z"/><path class="cls-6" d="M27.55,51c-.38-.88.25-5.34,1.45-9.88a.91.91,0,0,0-.33-1c-3.85-2.83-7.12-6.1-7-7,.43-.77,5-1.57,9.85-1.68a.89.89,0,0,0,.81-.57c1.5-3.8,3.64-8.1,4.58-8.81.94.71,3.07,5,4.57,8.81a.91.91,0,0,0,.84.57c4.82,0,9.49.77,9.8,1.62s-3.09,4.22-7,7a.9.9,0,0,0-.33,1c1.51,4.54,2.25,9.2,1.55,9.76h0a.61.61,0,0,1-.27,0c-1.78,0-6.26-2.73-8.66-4.45a.85.85,0,0,0-.52-.17.89.89,0,0,0-.5.15c-2.6,1.73-7.3,4.49-8.82,4.49Z"/><path class="cls-5" d="M38.31,25.35c-.37,0-1.44-1.38-1.44-1.38a69,69,0,0,0-3.4,6.12c.81-3.7,2.88-7.14,3.41-7.29S38.31,25.35,38.31,25.35Z"/><path class="cls-5" d="M23.11,33.47c-.2-1,5.82-1.48,6.56-1.11s-5.58.8-5.64,1.6.49,1.34.18,1.22A1.66,1.66,0,0,1,23.11,33.47Z"/><path class="cls-5" d="M42.84,32.24c-.24.25,3.8.67,4.36.37S45.48,31.75,42.84,32.24Z"/><g id="outer" class="cls-7"><path class="cls-8" d="M61.51,0H12A12,12,0,0,0,0,12V61.51a12,12,0,0,0,12,12H61.51a12,12,0,0,0,12-12V12A12,12,0,0,0,61.51,0ZM71,61.51A9.48,9.48,0,0,1,61.51,71H12A9.47,9.47,0,0,1,2.5,61.51V12A9.47,9.47,0,0,1,12,2.5H61.51A9.47,9.47,0,0,1,71,12Z"/></g></g></g></g></g></svg>