<svg xmlns="http://www.w3.org/2000/svg" xmlns:xlink="http://www.w3.org/1999/xlink" viewBox="0 0 73.47 73.47"><defs><style>.cls-1{isolation:isolate;}.cls-2,.cls-6{fill:#ffcd5f;}.cls-3{fill:#fcb912;}.cls-4{fill:#fc6;}.cls-5,.cls-6{opacity:0.55;}.cls-5{mix-blend-mode:overlay;fill:url(#radial-gradient);}.cls-6,.cls-7{mix-blend-mode:screen;}.cls-7,.cls-8{opacity:0.85;}.cls-8{fill:#fff;}</style><radialGradient id="radial-gradient" cx="36.73" cy="37.15" r="26.11" gradientUnits="userSpaceOnUse"><stop offset="0" stop-color="#d0d0cf"/><stop offset="0.35" stop-color="#cececd"/><stop offset="0.51" stop-color="#c7c7c6"/><stop offset="0.63" stop-color="#babab9"/><stop offset="0.73" stop-color="#a8a8a7"/><stop offset="0.82" stop-color="#91918f"/><stop offset="0.9" stop-color="#747472"/><stop offset="0.97" stop-color="#535351"/><stop offset="1" stop-color="#40403e"/></radialGradient></defs><title>ui</title><g class="cls-1"><g id="Layer_1" data-name="Layer 1"><g id="icon"><path class="cls-2" d="M16.47,5.83A11,11,0,0,0,8.65,9.07l4.67,4.67A9.2,9.2,0,0,1,19.84,11H53.63a9.16,9.16,0,0,1,6.51,2.7l4.67-4.67A11,11,0,0,0,57,5.83Z"/><path class="cls-3" d="M13.32,13.74,8.65,9.07a11,11,0,0,0-3.23,7.82V57.41a11,11,0,0,0,3.23,7.82l4.67-4.67A9.22,9.22,0,0,1,10.62,54V20.26A9.22,9.22,0,0,1,13.32,13.74Z"/><path class="cls-3" d="M60.14,13.74a9.18,9.18,0,0,1,2.7,6.52V54a9.18,9.18,0,0,1-2.7,6.52l4.67,4.67a11,11,0,0,0,3.24-7.82V16.89a11,11,0,0,0-3.24-7.82Z"/><path class="cls-2" d="M53.63,63.26H19.84a9.2,9.2,0,0,1-6.52-2.7L8.65,65.23a11,11,0,0,0,7.82,3.24H57a11,11,0,0,0,7.81-3.24l-4.67-4.67A9.16,9.16,0,0,1,53.63,63.26Z"/><path class="cls-4" d="M53.63,11H19.84a9.22,9.22,0,0,0-9.22,9.22V54a9.22,9.22,0,0,0,9.22,9.22H53.63A9.22,9.22,0,0,0,62.84,54V20.26A9.22,9.22,0,0,0,53.63,11Z"/><path class="cls-5" d="M53.63,11H19.84a9.22,9.22,0,0,0-9.22,9.22V54a9.22,9.22,0,0,0,9.22,9.22H53.63A9.22,9.22,0,0,0,62.84,54V20.26A9.22,9.22,0,0,0,53.63,11Z"/><rect class="cls-6" x="13.32" y="13.74" width="46.82" height="46.82" rx="8.26" ry="8.26"/><g id="outer" class="cls-7"><path class="cls-8" d="M61.51,0H12A12,12,0,0,0,0,12V61.51a12,12,0,0,0,12,12H61.51a12,12,0,0,0,12-12V12A12,12,0,0,0,61.51,0ZM71,61.51A9.48,9.48,0,0,1,61.51,71H12A9.47,9.47,0,0,1,2.5,61.51V12A9.47,9.47,0,0,1,12,2.5H61.51A9.47,9.47,0,0,1,71,12Z"/></g></g></g></g></svg>