<svg xmlns="http://www.w3.org/2000/svg" xmlns:xlink="http://www.w3.org/1999/xlink" viewBox="0 0 73.47 73.47"><defs><style>.cls-1,.cls-11{fill:none;}.cls-2{isolation:isolate;}.cls-3,.cls-7{fill:#afada9;}.cls-4{fill:#939393;}.cls-5{fill:#494438;}.cls-6,.cls-7{opacity:0.55;}.cls-6{mix-blend-mode:overlay;fill:url(#radial-gradient);}.cls-12,.cls-7{mix-blend-mode:screen;}.cls-8{clip-path:url(#clip-path);}.cls-10,.cls-9{fill:#282828;}.cls-11,.cls-9{stroke:#646465;stroke-miterlimit:10;stroke-width:0.25px;}.cls-12,.cls-13{opacity:0.85;}.cls-13{fill:#fff;}</style><radialGradient id="radial-gradient" cx="36.73" cy="37.15" r="26.11" gradientUnits="userSpaceOnUse"><stop offset="0" stop-color="#d0d0cf"/><stop offset="0.35" stop-color="#cececd"/><stop offset="0.51" stop-color="#c7c7c6"/><stop offset="0.63" stop-color="#babab9"/><stop offset="0.73" stop-color="#a8a8a7"/><stop offset="0.82" stop-color="#91918f"/><stop offset="0.9" stop-color="#747472"/><stop offset="0.97" stop-color="#535351"/><stop offset="1" stop-color="#40403e"/></radialGradient><clipPath id="clip-path"><rect class="cls-1" x="5.42" y="5.78" width="62.69" height="62.69" rx="11.06" ry="11.06"/></clipPath></defs><title>ui</title><g class="cls-2"><g id="Layer_1" data-name="Layer 1"><g id="icon-locked"><path class="cls-3" d="M16.47,5.83A11,11,0,0,0,8.65,9.07l4.67,4.67A9.2,9.2,0,0,1,19.84,11H53.63a9.16,9.16,0,0,1,6.51,2.7l4.67-4.67A11,11,0,0,0,57,5.83Z"/><path class="cls-4" d="M13.32,13.74,8.65,9.07a11,11,0,0,0-3.23,7.82V57.41a11,11,0,0,0,3.23,7.82l4.67-4.67A9.22,9.22,0,0,1,10.62,54V20.26A9.22,9.22,0,0,1,13.32,13.74Z"/><path class="cls-4" d="M60.14,13.74a9.18,9.18,0,0,1,2.7,6.52V54a9.18,9.18,0,0,1-2.7,6.52l4.67,4.67a11,11,0,0,0,3.24-7.82V16.89a11,11,0,0,0-3.24-7.82Z"/><path class="cls-3" d="M53.63,63.26H19.84a9.2,9.2,0,0,1-6.52-2.7L8.65,65.23a11,11,0,0,0,7.82,3.24H57a11,11,0,0,0,7.81-3.24l-4.67-4.67A9.16,9.16,0,0,1,53.63,63.26Z"/><path class="cls-5" d="M53.63,11H19.84a9.22,9.22,0,0,0-9.22,9.22V54a9.22,9.22,0,0,0,9.22,9.22H53.63A9.22,9.22,0,0,0,62.84,54V20.26A9.22,9.22,0,0,0,53.63,11Z"/><path class="cls-6" d="M53.63,11H19.84a9.22,9.22,0,0,0-9.22,9.22V54a9.22,9.22,0,0,0,9.22,9.22H53.63A9.22,9.22,0,0,0,62.84,54V20.26A9.22,9.22,0,0,0,53.63,11Z"/><rect class="cls-7" x="13.32" y="13.74" width="46.82" height="46.82" rx="8.26" ry="8.26"/><g class="cls-8"><path class="cls-9" d="M45.89-.92a2.11,2.11,0,0,1,3,0l2.52,2.59a2.09,2.09,0,0,1,0,3l-.56.55a2.1,2.1,0,0,1-3,0L45.3,2.59a2.1,2.1,0,0,1,0-3l.55-.55m-1.3-1.33L44-1.71A4,4,0,0,0,44,3.89l2.52,2.59a4,4,0,0,0,5.6.07L52.64,6A4,4,0,0,0,52.71.4L50.19-2.18a4,4,0,0,0-5.6-.07Z"/><path class="cls-9" d="M54.11,9.11a2.09,2.09,0,0,1,3,.19L59.45,12a2.11,2.11,0,0,1-.2,3l-.58.51a2.1,2.1,0,0,1-3-.19l-2.39-2.72a2.09,2.09,0,0,1,.2-3l.58-.51M52.88,7.7l-.59.52a4,4,0,0,0-.36,5.58l2.38,2.72a4,4,0,0,0,5.59.36l.58-.51a4,4,0,0,0,.37-5.59L58.47,8.07a4,4,0,0,0-5.59-.37Z"/><path class="cls-9" d="M62.72,18.51a2.1,2.1,0,0,1,3,.19l2.38,2.72a2.1,2.1,0,0,1-.19,2.95l-.59.51a2.09,2.09,0,0,1-3-.19L61.94,22A2.1,2.1,0,0,1,62.13,19l.59-.51m-1.24-1.4-.58.51a4,4,0,0,0-.37,5.59l2.39,2.71a4,4,0,0,0,5.58.37l.59-.52a4,4,0,0,0,.36-5.58l-2.38-2.72a4,4,0,0,0-5.59-.36Z"/><path class="cls-9" d="M71.78,28.12a2.09,2.09,0,0,1,3,.07l2.5,2.62a2.09,2.09,0,0,1-.08,2.95l-.56.54a2.1,2.1,0,0,1-3-.07l-2.49-2.61a2.11,2.11,0,0,1,.07-3l.57-.54m-1.29-1.35-.57.54a4,4,0,0,0-.13,5.59l2.49,2.62a4,4,0,0,0,5.6.13l.56-.53a4,4,0,0,0,.14-5.6L76.09,26.9a4,4,0,0,0-5.6-.13Z"/><rect class="cls-9" x="50.98" y="3.26" width="2.18" height="8.36" rx="0.99" ry="0.99" transform="translate(5.33 31.57) rotate(-35.43)"/><rect class="cls-9" x="43.73" y="-6.98" width="2.18" height="8.36" rx="0.99" ry="0.99" transform="translate(9.92 25.47) rotate(-35.43)"/><rect class="cls-9" x="59.69" y="12.51" width="2.18" height="8.36" rx="0.99" ry="0.99" transform="translate(4.27 44.61) rotate(-41.65)"/><rect class="cls-9" x="68.56" y="22.48" width="2.18" height="8.36" rx="0.99" ry="0.99" transform="translate(2.02 58.09) rotate(-45.87)"/><path class="cls-10" d="M42.89,9.08a2.11,2.11,0,0,1,3,0l2.52,2.59a2.09,2.09,0,0,1,0,2.95l-.56.55a2.1,2.1,0,0,1-3,0L42.3,12.59a2.1,2.1,0,0,1,0-3l.55-.55m-1.3-1.33L41,8.29a4,4,0,0,0-.07,5.6l2.52,2.59a4,4,0,0,0,5.6.07l.56-.55a4,4,0,0,0,.07-5.6L47.19,7.82a4,4,0,0,0-5.6-.07Z"/><path class="cls-11" d="M42.89,9.08a2.11,2.11,0,0,1,3,0l2.52,2.59a2.09,2.09,0,0,1,0,2.95l-.56.55a2.1,2.1,0,0,1-3,0L42.3,12.59a2.1,2.1,0,0,1,0-3l.55-.55m-1.3-1.33L41,8.29a4,4,0,0,0-.07,5.6l2.52,2.59a4,4,0,0,0,5.6.07l.56-.55a4,4,0,0,0,.07-5.6L47.19,7.82a4,4,0,0,0-5.6-.07Z"/><path class="cls-10" d="M36.35-1.56a2.09,2.09,0,0,1,2.88.67l1.91,3.06a2.1,2.1,0,0,1-.66,2.88l-.66.42a2.1,2.1,0,0,1-2.88-.67L35,1.73a2.09,2.09,0,0,1,.67-2.88l.66-.41m-1-1.58-.66.41a4,4,0,0,0-1.26,5.45l1.91,3.07a4,4,0,0,0,5.46,1.26l.66-.41a4,4,0,0,0,1.26-5.46L40.81-1.88a4,4,0,0,0-5.45-1.26Z"/><path class="cls-11" d="M36.35-1.56a2.09,2.09,0,0,1,2.88.67l1.91,3.06a2.1,2.1,0,0,1-.66,2.88l-.66.42a2.1,2.1,0,0,1-2.88-.67L35,1.73a2.09,2.09,0,0,1,.67-2.88l.66-.41m-1-1.58-.66.41a4,4,0,0,0-1.26,5.45l1.91,3.07a4,4,0,0,0,5.46,1.26l.66-.41a4,4,0,0,0,1.26-5.46L40.81-1.88a4,4,0,0,0-5.45-1.26Z"/><path class="cls-10" d="M51.11,19.11a2.09,2.09,0,0,1,3,.19L56.45,22a2.11,2.11,0,0,1-.2,3l-.58.51a2.1,2.1,0,0,1-3-.19l-2.39-2.72a2.09,2.09,0,0,1,.2-2.95l.58-.51M49.88,17.7l-.59.52a4,4,0,0,0-.36,5.58l2.38,2.72a4,4,0,0,0,5.59.36l.58-.51a4,4,0,0,0,.37-5.59l-2.38-2.71a4,4,0,0,0-5.59-.37Z"/><path class="cls-11" d="M51.11,19.11a2.09,2.09,0,0,1,3,.19L56.45,22a2.11,2.11,0,0,1-.2,3l-.58.51a2.1,2.1,0,0,1-3-.19l-2.39-2.72a2.09,2.09,0,0,1,.2-2.95l.58-.51M49.88,17.7l-.59.52a4,4,0,0,0-.36,5.58l2.38,2.72a4,4,0,0,0,5.59.36l.58-.51a4,4,0,0,0,.37-5.59l-2.38-2.71a4,4,0,0,0-5.59-.37Z"/><path class="cls-10" d="M59.72,28.51a2.1,2.1,0,0,1,3,.19l2.38,2.72a2.1,2.1,0,0,1-.19,2.95l-.59.51a2.09,2.09,0,0,1-2.95-.19L58.94,32A2.1,2.1,0,0,1,59.13,29l.59-.51m-1.24-1.4-.58.51a4,4,0,0,0-.37,5.59l2.39,2.71a4,4,0,0,0,5.58.37l.59-.52a4,4,0,0,0,.36-5.58l-2.38-2.72a4,4,0,0,0-5.59-.36Z"/><path class="cls-11" d="M59.72,28.51a2.1,2.1,0,0,1,3,.19l2.38,2.72a2.1,2.1,0,0,1-.19,2.95l-.59.51a2.09,2.09,0,0,1-2.95-.19L58.94,32A2.1,2.1,0,0,1,59.13,29l.59-.51m-1.24-1.4-.58.51a4,4,0,0,0-.37,5.59l2.39,2.71a4,4,0,0,0,5.58.37l.59-.52a4,4,0,0,0,.36-5.58l-2.38-2.72a4,4,0,0,0-5.59-.36Z"/><path class="cls-10" d="M68.78,38.12a2.09,2.09,0,0,1,3,.07l2.5,2.62a2.09,2.09,0,0,1-.08,2.95l-.56.54a2.1,2.1,0,0,1-3-.07l-2.49-2.61a2.11,2.11,0,0,1,.07-3l.57-.54m-1.29-1.35-.57.54a4,4,0,0,0-.13,5.59l2.49,2.62a4,4,0,0,0,5.6.13l.56-.53a4,4,0,0,0,.14-5.6L73.09,36.9a4,4,0,0,0-5.6-.13Z"/><path class="cls-11" d="M68.78,38.12a2.09,2.09,0,0,1,3,.07l2.5,2.62a2.09,2.09,0,0,1-.08,2.95l-.56.54a2.1,2.1,0,0,1-3-.07l-2.49-2.61a2.11,2.11,0,0,1,.07-3l.57-.54m-1.29-1.35-.57.54a4,4,0,0,0-.13,5.59l2.49,2.62a4,4,0,0,0,5.6.13l.56-.53a4,4,0,0,0,.14-5.6L73.09,36.9a4,4,0,0,0-5.6-.13Z"/><rect class="cls-10" x="47.98" y="13.26" width="2.18" height="8.36" rx="0.99" ry="0.99" transform="translate(-1.02 31.68) rotate(-35.43)"/><rect class="cls-11" x="47.98" y="13.26" width="2.18" height="8.36" rx="0.99" ry="0.99" transform="translate(-1.02 31.68) rotate(-35.43)"/><rect class="cls-10" x="40.73" y="3.02" width="2.18" height="8.36" rx="0.99" ry="0.99" transform="translate(3.57 25.58) rotate(-35.43)"/><rect class="cls-11" x="40.73" y="3.02" width="2.18" height="8.36" rx="0.99" ry="0.99" transform="translate(3.57 25.58) rotate(-35.43)"/><rect class="cls-10" x="56.69" y="22.51" width="2.18" height="8.36" rx="0.99" ry="0.99" transform="translate(-3.13 45.15) rotate(-41.65)"/><rect class="cls-11" x="56.69" y="22.51" width="2.18" height="8.36" rx="0.99" ry="0.99" transform="translate(-3.13 45.15) rotate(-41.65)"/><rect class="cls-10" x="65.56" y="32.48" width="2.18" height="8.36" rx="0.99" ry="0.99" transform="translate(-6.07 58.98) rotate(-45.87)"/><rect class="cls-11" x="65.56" y="32.48" width="2.18" height="8.36" rx="0.99" ry="0.99" transform="translate(-6.07 58.98) rotate(-45.87)"/><rect class="cls-10" x="74.98" y="41.42" width="2.18" height="8.36" rx="0.99" ry="0.99" transform="translate(-7.91 74.13) rotate(-49.7)"/><rect class="cls-11" x="74.98" y="41.42" width="2.18" height="8.36" rx="0.99" ry="0.99" transform="translate(-7.91 74.13) rotate(-49.7)"/><rect class="cls-10" x="33.34" y="-7.37" width="2.18" height="8.36" rx="0.99" ry="0.99" transform="translate(8.22 19.37) rotate(-35.43)"/><rect class="cls-11" x="33.34" y="-7.37" width="2.18" height="8.36" rx="0.99" ry="0.99" transform="translate(8.22 19.37) rotate(-35.43)"/></g><g id="outer" class="cls-12"><path class="cls-13" d="M61.51,0H12A12,12,0,0,0,0,12V61.51a12,12,0,0,0,12,12H61.51a12,12,0,0,0,12-12V12A12,12,0,0,0,61.51,0ZM71,61.51A9.48,9.48,0,0,1,61.51,71H12A9.47,9.47,0,0,1,2.5,61.51V12A9.47,9.47,0,0,1,12,2.5H61.51A9.47,9.47,0,0,1,71,12Z"/></g></g></g></g></svg>