<svg xmlns="http://www.w3.org/2000/svg" viewBox="0 0 73.47 73.47"><defs><style>.cls-1{isolation:isolate;}.cls-2{fill:#282828;stroke:#646465;stroke-miterlimit:10;stroke-width:0.25px;}.cls-3{fill:#afada9;opacity:0.55;}.cls-3,.cls-6{mix-blend-mode:screen;}.cls-4{fill:#201600;}.cls-5,.cls-7{fill:#fff;}.cls-6,.cls-7{opacity:0.85;}</style></defs><title>settings</title><g class="cls-1"><g id="Слой_2" data-name="Слой 2"><g id="Layer_1" data-name="Layer 1"><g id="icon-settings"><path class="cls-2" d="M16.47,5.83A11,11,0,0,0,8.65,9.07l4.67,4.67A9.2,9.2,0,0,1,19.84,11H53.63a9.16,9.16,0,0,1,6.51,2.7l4.67-4.67A11,11,0,0,0,57,5.83Z"/><path class="cls-2" d="M13.32,13.74,8.65,9.07a11,11,0,0,0-3.23,7.82V57.41a11,11,0,0,0,3.23,7.82l4.67-4.67A9.22,9.22,0,0,1,10.62,54V20.26A9.22,9.22,0,0,1,13.32,13.74Z"/><path class="cls-2" d="M60.14,13.74a9.18,9.18,0,0,1,2.7,6.52V54a9.18,9.18,0,0,1-2.7,6.52l4.67,4.67a11,11,0,0,0,3.24-7.82V16.89a11,11,0,0,0-3.24-7.82Z"/><path class="cls-2" d="M53.63,63.26H19.84a9.2,9.2,0,0,1-6.52-2.7L8.65,65.23a11,11,0,0,0,7.82,3.24H57a11,11,0,0,0,7.81-3.24l-4.67-4.67A9.16,9.16,0,0,1,53.63,63.26Z"/><path class="cls-2" d="M53.63,11H19.84a9.22,9.22,0,0,0-9.22,9.22V54a9.22,9.22,0,0,0,9.22,9.22H53.63A9.22,9.22,0,0,0,62.84,54V20.26A9.22,9.22,0,0,0,53.63,11Z"/><path class="cls-3" d="M51.88,13.74H21.59A8.26,8.26,0,0,0,13.32,22V52.3a8.26,8.26,0,0,0,8.27,8.26H51.88a8.4,8.4,0,0,0,8.3-8.48l0-30.08A8.26,8.26,0,0,0,51.88,13.74Z"/><path id="settings" class="cls-2" d="M51.29,33.75a2.65,2.65,0,0,0-.89-.16h-.78a13.46,13.46,0,0,0-.93-2.13,7.35,7.35,0,0,0,1.08-1.83,1.36,1.36,0,0,0,.08-.63,1.59,1.59,0,0,0-.38-.65c-.94-1.11-3.36-4.49-5.15-3.77a2.37,2.37,0,0,0-.74.52c-.25.23-.48.48-.72.73a13.63,13.63,0,0,0-2-.82.88.88,0,0,1,0-.16,7.7,7.7,0,0,0-.55-2.12,1.32,1.32,0,0,0-.38-.49,1.43,1.43,0,0,0-.73-.2c-1.46-.12-5.56-.8-6.32,1a2.38,2.38,0,0,0-.15.89c0,.35,0,.7,0,1.05a12.79,12.79,0,0,0-1.95.78l-.13-.09a7.45,7.45,0,0,0-1.88-1.11,1.2,1.2,0,0,0-.62-.08,1.53,1.53,0,0,0-.65.38c-1.12.94-4.5,3.36-3.78,5.15a2.54,2.54,0,0,0,.52.74c.19.21.4.39.6.59a14.7,14.7,0,0,0-1,2.14,7.21,7.21,0,0,0-2,.53,1.36,1.36,0,0,0-.5.38,1.53,1.53,0,0,0-.19.73c-.12,1.46-.81,5.56,1,6.32a2.45,2.45,0,0,0,.89.15h.54A13.71,13.71,0,0,0,24.51,44a6.17,6.17,0,0,0-.83,1.51,1.2,1.2,0,0,0-.08.62,1.35,1.35,0,0,0,.38.65c.94,1.12,3.35,4.5,5.15,3.78a2.68,2.68,0,0,0,.74-.52l.19-.2A13.52,13.52,0,0,0,32.7,51a5.47,5.47,0,0,0,.43,1.41,1.26,1.26,0,0,0,.38.5,1.5,1.5,0,0,0,.73.19c1.45.12,5.55.8,6.31-1a2.69,2.69,0,0,0,.16-.89V51a13.09,13.09,0,0,0,2.63-1.12,5.78,5.78,0,0,0,1.34.72,1.21,1.21,0,0,0,.62.08,1.43,1.43,0,0,0,.66-.38c1.11-.94,4.49-3.35,3.77-5.15a2.49,2.49,0,0,0-.52-.74l-.32-.32a13.67,13.67,0,0,0,1-2.45,6.36,6.36,0,0,0,1.73-.49,1.26,1.26,0,0,0,.5-.38,1.54,1.54,0,0,0,.2-.73C52.39,38.61,53.07,34.51,51.29,33.75Z"/><path id="settings-2" data-name="settings" class="cls-4" d="M50.09,34.06a2.28,2.28,0,0,0-.82-.14h-.72A12.11,12.11,0,0,0,47.7,32a6.41,6.41,0,0,0,1-1.69,1.11,1.11,0,0,0,.07-.57,1.34,1.34,0,0,0-.34-.6c-.87-1-3.08-4.12-4.73-3.46a2.28,2.28,0,0,0-.68.48c-.23.21-.44.44-.66.67A12.53,12.53,0,0,0,40.54,26a.77.77,0,0,0,0-.15A6.76,6.76,0,0,0,40,24a1.23,1.23,0,0,0-.35-.46,1.39,1.39,0,0,0-.67-.17c-1.33-.11-5.09-.74-5.79.89a2.25,2.25,0,0,0-.14.82c0,.32,0,.64,0,1a12.17,12.17,0,0,0-1.79.72l-.11-.08a6.73,6.73,0,0,0-1.73-1,1.24,1.24,0,0,0-.57-.08,1.46,1.46,0,0,0-.6.35c-1,.87-4.12,3.08-3.46,4.73a2.24,2.24,0,0,0,.47.68c.18.19.37.36.56.54a12.38,12.38,0,0,0-.89,2,6.35,6.35,0,0,0-1.83.49,1.07,1.07,0,0,0-.46.35,1.4,1.4,0,0,0-.18.67c-.11,1.33-.73,5.09.89,5.79a2.28,2.28,0,0,0,.82.14h.49a13.34,13.34,0,0,0,.86,2.26,5.32,5.32,0,0,0-.76,1.38,1.12,1.12,0,0,0-.08.57,1.36,1.36,0,0,0,.35.6c.86,1,3.08,4.12,4.72,3.46a2.3,2.3,0,0,0,.68-.47l.18-.18a12.74,12.74,0,0,0,2.42,1,5.82,5.82,0,0,0,.39,1.29,1.25,1.25,0,0,0,.35.46,1.43,1.43,0,0,0,.67.18c1.34.11,5.1.73,5.8-.9a2.19,2.19,0,0,0,.14-.81v-.22a12.07,12.07,0,0,0,2.42-1,4.81,4.81,0,0,0,1.22.66,1.16,1.16,0,0,0,.58.08,1.28,1.28,0,0,0,.59-.35c1-.86,4.13-3.08,3.47-4.73a2.23,2.23,0,0,0-.48-.67c-.09-.11-.2-.19-.29-.3a12.2,12.2,0,0,0,.87-2.25,5.46,5.46,0,0,0,1.59-.45,1.1,1.1,0,0,0,.45-.35,1.26,1.26,0,0,0,.18-.66C51.09,38.52,51.72,34.76,50.09,34.06ZM36.72,43.27A5.32,5.32,0,1,1,42,38,5.32,5.32,0,0,1,36.72,43.27Z"/><path id="settings-3" data-name="settings" class="cls-5" d="M49,34.34a2.17,2.17,0,0,0-.76-.13h-.66a11.51,11.51,0,0,0-.78-1.8,5.9,5.9,0,0,0,.91-1.55,1.13,1.13,0,0,0,.07-.52,1.33,1.33,0,0,0-.32-.55c-.8-.94-2.84-3.8-4.35-3.19a2.3,2.3,0,0,0-.63.44c-.21.19-.4.41-.61.62A10.55,10.55,0,0,0,40.24,27c0-.05,0-.09,0-.14A6,6,0,0,0,39.76,25a1.12,1.12,0,0,0-.32-.42,1.23,1.23,0,0,0-.62-.17c-1.23-.1-4.69-.68-5.33.82a2.15,2.15,0,0,0-.13.75c0,.3,0,.6,0,.89a13.2,13.2,0,0,0-1.65.66l-.1-.07A6.11,6.11,0,0,0,30,26.56a1.17,1.17,0,0,0-.52-.07,1.26,1.26,0,0,0-.56.32c-.94.8-3.79,2.84-3.18,4.35a2.08,2.08,0,0,0,.43.63c.17.17.35.33.51.5a11.65,11.65,0,0,0-.81,1.8,5.79,5.79,0,0,0-1.69.45,1.12,1.12,0,0,0-.42.32,1.33,1.33,0,0,0-.16.62c-.1,1.23-.68,4.69.82,5.33a2.08,2.08,0,0,0,.75.13h.45A12.39,12.39,0,0,0,26.41,43a5.25,5.25,0,0,0-.7,1.27,1,1,0,0,0-.07.52,1.23,1.23,0,0,0,.32.55c.79.94,2.83,3.8,4.35,3.19a1.9,1.9,0,0,0,.62-.44l.16-.16a11.91,11.91,0,0,0,2.23,1,4.52,4.52,0,0,0,.37,1.2,1,1,0,0,0,.32.42,1.29,1.29,0,0,0,.61.16c1.23.1,4.69.68,5.34-.82a2.15,2.15,0,0,0,.13-.75v-.2a11.51,11.51,0,0,0,2.22-1,4.77,4.77,0,0,0,1.13.61,1.07,1.07,0,0,0,.53.07,1.23,1.23,0,0,0,.55-.32c.94-.8,3.79-2.84,3.19-4.35a2.12,2.12,0,0,0-.44-.62L47,43.1A11.33,11.33,0,0,0,47.8,41a5.1,5.1,0,0,0,1.46-.41,1,1,0,0,0,.42-.32,1.2,1.2,0,0,0,.17-.62C50,38.45,50.53,35,49,34.34ZM36.72,42.82a4.9,4.9,0,1,1,4.9-4.9A4.9,4.9,0,0,1,36.72,42.82Z"/><path class="cls-4" d="M39,25.4c.5-.15-3.7-.43-4.83,0-.19.07.2,1.35-.45,1.81A12.41,12.41,0,0,1,31,28.64c4-.22,3.31-2.66,3.84-2.82A41.26,41.26,0,0,0,39,25.4Z"/><path class="cls-4" d="M35,32.4A9.84,9.84,0,0,0,32.4,33a8,8,0,0,0-2,2.68,7.5,7.5,0,0,0,.45,3.88A5.94,5.94,0,0,1,35,32.4Z"/><path class="cls-4" d="M46.4,31.63c.43.28-1.83-3.24-2.84-3.91-.17-.11-1,1-1.73.7a12.56,12.56,0,0,1-2.77-1.37c2.52,3.09,4.28,1.25,4.71,1.59S45.69,31.17,46.4,31.63Z"/><g id="outer" class="cls-6"><path class="cls-7" d="M61.51,0H12A12,12,0,0,0,0,12V61.51a12,12,0,0,0,12,12H61.51a12,12,0,0,0,12-12V12A12,12,0,0,0,61.51,0ZM71,61.51A9.48,9.48,0,0,1,61.51,71H12A9.47,9.47,0,0,1,2.5,61.51V12A9.47,9.47,0,0,1,12,2.5H61.51A9.47,9.47,0,0,1,71,12Z"/></g></g></g></g></g></svg>