<svg xmlns="http://www.w3.org/2000/svg" viewBox="0 0 3473.79 3226"><defs><style>.cls-1{fill:#fff;}</style></defs><title>stars</title><g id="Слой_2" data-name="Слой 2"><g id="Слой_1-2" data-name="Слой 1"><g id="back"><path class="cls-1" d="M404.19,908.43a10.05,10.05,0,1,1-10.05-10.06A10.05,10.05,0,0,1,404.19,908.43Z"/><path class="cls-1" d="M686.31,1009.9a10.05,10.05,0,1,1-10-10.06A10.05,10.05,0,0,1,686.31,1009.9Z"/><path class="cls-1" d="M1100.5,814.35a10,10,0,1,1-10-10.05A10.05,10.05,0,0,1,1100.5,814.35Z"/><path class="cls-1" d="M281.46,1554.75a10.05,10.05,0,1,1-10-10A10.05,10.05,0,0,1,281.46,1554.75Z"/><path class="cls-1" d="M1351.87,1394.21a10.06,10.06,0,1,1-10-10A10.05,10.05,0,0,1,1351.87,1394.21Z"/><circle class="cls-1" cx="1634.66" cy="1444.85" r="6.89"/><path class="cls-1" d="M1590.27,1105.35a3.44,3.44,0,1,1-3.44-3.45A3.44,3.44,0,0,1,1590.27,1105.35Z"/><circle class="cls-1" cx="2524.05" cy="858.14" r="3.44"/><path class="cls-1" d="M2412.05,1904.4a2.53,2.53,0,1,1-2.53-2.53A2.52,2.52,0,0,1,2412.05,1904.4Z"/><path class="cls-1" d="M2519.16,1465.83a2.53,2.53,0,1,1-2.53-2.52A2.53,2.53,0,0,1,2519.16,1465.83Z"/><path class="cls-1" d="M3197.21,871.92a3.45,3.45,0,1,1-3.44-3.44A3.44,3.44,0,0,1,3197.21,871.92Z"/><path class="cls-1" d="M3028.63,999.84a3.44,3.44,0,1,1-3.44-3.44A3.44,3.44,0,0,1,3028.63,999.84Z"/><circle class="cls-1" cx="970.39" cy="1833.88" r="3.44"/><path class="cls-1" d="M1705.94,898.37a3.45,3.45,0,1,1-3.44-3.44A3.44,3.44,0,0,1,1705.94,898.37Z"/><path class="cls-1" d="M1254.14,1483.13a3.45,3.45,0,1,1-3.45-3.44A3.45,3.45,0,0,1,1254.14,1483.13Z"/><path class="cls-1" d="M1411.82,1915.53a3.45,3.45,0,1,1-3.45-3.45A3.44,3.44,0,0,1,1411.82,1915.53Z"/><path class="cls-1" d="M1211.2,1839.23a3.45,3.45,0,1,1-3.44-3.45A3.44,3.44,0,0,1,1211.2,1839.23Z"/><path class="cls-1" d="M1677.78,1455.61a3.45,3.45,0,1,1-3.45-3.44A3.44,3.44,0,0,1,1677.78,1455.61Z"/><path class="cls-1" d="M685.7,1752.6a3.44,3.44,0,1,1-3.44-3.44A3.45,3.45,0,0,1,685.7,1752.6Z"/><path class="cls-1" d="M890.35,1573.66a3.45,3.45,0,1,1-3.45-3.45A3.44,3.44,0,0,1,890.35,1573.66Z"/><path class="cls-1" d="M862.54,1854a3.45,3.45,0,1,1-3.44-3.45A3.44,3.44,0,0,1,862.54,1854Z"/><path class="cls-1" d="M1133.44,1112.23a3.45,3.45,0,1,1-3.44-3.44A3.44,3.44,0,0,1,1133.44,1112.23Z"/><circle class="cls-1" cx="496.44" cy="1890.41" r="3.44"/><path class="cls-1" d="M303.43,1339.61a3.45,3.45,0,1,1-3.44-3.44A3.44,3.44,0,0,1,303.43,1339.61Z"/><path class="cls-1" d="M427.44,1215.78a3.44,3.44,0,1,1-3.44-3.44A3.44,3.44,0,0,1,427.44,1215.78Z"/><path class="cls-1" d="M635.66,1784.58a3.45,3.45,0,1,1-3.45-3.44A3.45,3.45,0,0,1,635.66,1784.58Z"/><path class="cls-1" d="M918.43,1537.61a3.44,3.44,0,1,1-3.44-3.44A3.44,3.44,0,0,1,918.43,1537.61Z"/><path class="cls-1" d="M753.34,1121.06a3.45,3.45,0,1,1-3.44-3.44A3.44,3.44,0,0,1,753.34,1121.06Z"/><path class="cls-1" d="M1378.73,854.7a3.44,3.44,0,1,1-3.44-3.44A3.44,3.44,0,0,1,1378.73,854.7Z"/><circle class="cls-1" cx="1363.91" cy="810.91" r="3.44"/><path class="cls-1" d="M835,1741.75a3.45,3.45,0,1,1-3.44-3.44A3.44,3.44,0,0,1,835,1741.75Z"/><path class="cls-1" d="M733.29,1082a3.45,3.45,0,1,1-3.45-3.44A3.45,3.45,0,0,1,733.29,1082Z"/><path class="cls-1" d="M939.66,1105.35a3.44,3.44,0,1,1-3.44-3.45A3.44,3.44,0,0,1,939.66,1105.35Z"/><circle class="cls-1" cx="1880.93" cy="1419.66" r="3.44"/><path class="cls-1" d="M1728,1384.16a3.45,3.45,0,1,1-3.45-3.45A3.44,3.44,0,0,1,1728,1384.16Z"/><path class="cls-1" d="M1469.94,1894.75a3.45,3.45,0,1,1-3.44-3.45A3.44,3.44,0,0,1,1469.94,1894.75Z"/><path class="cls-1" d="M1393.06,1832.34a3.45,3.45,0,1,1-3.45-3.45A3.44,3.44,0,0,1,1393.06,1832.34Z"/><path class="cls-1" d="M2362.44,1479.54a3.45,3.45,0,1,1-3.44-3.45A3.44,3.44,0,0,1,2362.44,1479.54Z"/><path class="cls-1" d="M2273.4,1452.17a3.44,3.44,0,1,1-3.44-3.45A3.44,3.44,0,0,1,2273.4,1452.17Z"/><path class="cls-1" d="M2193.48,1835.56a3.44,3.44,0,1,1-3.44-3.45A3.44,3.44,0,0,1,2193.48,1835.56Z"/><path class="cls-1" d="M2687.2,1812a3.45,3.45,0,1,1-3.44-3.44A3.44,3.44,0,0,1,2687.2,1812Z"/><path class="cls-1" d="M2646.85,1907.84a3.44,3.44,0,1,1-3.44-3.44A3.45,3.45,0,0,1,2646.85,1907.84Z"/><path class="cls-1" d="M3063.32,1786.38a2.53,2.53,0,1,1-2.53-2.52A2.53,2.53,0,0,1,3063.32,1786.38Z"/><path class="cls-1" d="M3341.1,1755a3.45,3.45,0,1,1-3.44-3.44A3.44,3.44,0,0,1,3341.1,1755Z"/><path class="cls-1" d="M2069.92,1730.7a2.53,2.53,0,1,1-2.52-2.53A2.52,2.52,0,0,1,2069.92,1730.7Z"/><path class="cls-1" d="M1829.62,1122.88a3.45,3.45,0,1,1-3.45-3.44A3.44,3.44,0,0,1,1829.62,1122.88Z"/><path class="cls-1" d="M1974.27,1112.23a3.45,3.45,0,1,1-3.44-3.44A3.44,3.44,0,0,1,1974.27,1112.23Z"/><path class="cls-1" d="M2356.47,1101.9a3.44,3.44,0,1,1-3.44-3.44A3.45,3.45,0,0,1,2356.47,1101.9Z"/><path class="cls-1" d="M2451.25,1120.41a3.45,3.45,0,1,1-3.45-3.45A3.44,3.44,0,0,1,2451.25,1120.41Z"/><path class="cls-1" d="M1977.71,1252.93a3.44,3.44,0,1,1-3.44-3.44A3.44,3.44,0,0,1,1977.71,1252.93Z"/><path class="cls-1" d="M2089.8,807.46a3.45,3.45,0,1,1-3.44-3.44A3.45,3.45,0,0,1,2089.8,807.46Z"/><path class="cls-1" d="M1852.51,810.91a3.45,3.45,0,1,1-3.45-3.45A3.44,3.44,0,0,1,1852.51,810.91Z"/><circle class="cls-1" cx="1213.46" cy="868.48" r="3.44"/><circle class="cls-1" cx="1100.5" cy="908.43" r="3.44"/><path class="cls-1" d="M791.67,814.35a3.45,3.45,0,1,1-3.44-3.44A3.44,3.44,0,0,1,791.67,814.35Z"/><path class="cls-1" d="M842,928.53a3.45,3.45,0,1,1-3.44-3.44A3.44,3.44,0,0,1,842,928.53Z"/><path class="cls-1" d="M715.53,905a3.45,3.45,0,1,1-3.45-3.44A3.45,3.45,0,0,1,715.53,905Z"/><path class="cls-1" d="M524.12,824.4a3.45,3.45,0,1,1-3.44-3.44A3.45,3.45,0,0,1,524.12,824.4Z"/><path class="cls-1" d="M461.27,1247.21a3.45,3.45,0,1,1-3.44-3.45A3.44,3.44,0,0,1,461.27,1247.21Z"/><path class="cls-1" d="M306.88,1713.75a3.45,3.45,0,1,1-3.45-3.45A3.45,3.45,0,0,1,306.88,1713.75Z"/><path class="cls-1" d="M2382.37,1879.45a2.53,2.53,0,1,1-2.53-2.53A2.54,2.54,0,0,1,2382.37,1879.45Z"/><path class="cls-1" d="M2052.8,865a6.89,6.89,0,1,1-6.88-6.89A6.88,6.88,0,0,1,2052.8,865Z"/><path class="cls-1" d="M2314.8,1402.5a6.89,6.89,0,1,1-6.88-6.89A6.88,6.88,0,0,1,2314.8,1402.5Z"/><circle class="cls-1" cx="2536.41" cy="1800.72" r="5.05"/><circle class="cls-1" cx="3362.68" cy="1840.36" r="5.05"/><path class="cls-1" d="M2871.79,1110.73a6.89,6.89,0,1,1-6.89-6.89A6.9,6.9,0,0,1,2871.79,1110.73Z"/><path class="cls-1" d="M1716.27,1812a6.89,6.89,0,1,1-6.89-6.89A6.89,6.89,0,0,1,1716.27,1812Z"/><circle class="cls-1" cx="1957.22" cy="1098.46" r="6.89"/><path class="cls-1" d="M1047.66,1895.52a6.89,6.89,0,1,1-6.89-6.88A6.89,6.89,0,0,1,1047.66,1895.52Z"/><path class="cls-1" d="M900.68,1464.41a6.89,6.89,0,1,1-6.89-6.89A6.89,6.89,0,0,1,900.68,1464.41Z"/><path class="cls-1" d="M448.18,1300.41a6.89,6.89,0,1,1-6.89-6.89A6.89,6.89,0,0,1,448.18,1300.41Z"/><circle class="cls-1" cx="1476.35" cy="1478.19" r="6.89"/><path class="cls-1" d="M2051.46,1384.16a6.89,6.89,0,1,1-6.89-6.89A6.89,6.89,0,0,1,2051.46,1384.16Z"/><path class="cls-1" d="M2875,918.48a10.05,10.05,0,1,1-10-10.05A10.05,10.05,0,0,1,2875,918.48Z"/><path class="cls-1" d="M2753.06,1845.61a10.06,10.06,0,1,1-10-10A10.05,10.05,0,0,1,2753.06,1845.61Z"/><path class="cls-1" d="M600.64,665.41a12.49,12.49,0,1,1,12.49-12.48A12.5,12.5,0,0,1,600.64,665.41Zm0-23.55a11.07,11.07,0,1,0,11.07,11.07A11.09,11.09,0,0,0,600.64,641.86Z"/><path class="cls-1" d="M3454.07,2135.46a10.05,10.05,0,1,1,12.43,6.9A10,10,0,0,1,3454.07,2135.46Z"/><path class="cls-1" d="M3154.93,2115.45a10.05,10.05,0,1,1,12.42,6.9A10,10,0,0,1,3154.93,2115.45Z"/><path class="cls-1" d="M2810.45,2417.33a10.05,10.05,0,1,1,12.43,6.9A10,10,0,0,1,2810.45,2417.33Z"/><path class="cls-1" d="M3394.39,1480.29a10.05,10.05,0,1,1,12.43,6.91A10,10,0,0,1,3394.39,1480.29Z"/><path class="cls-1" d="M2409.36,1928.92a10.05,10.05,0,1,1,12.43,6.9A10.06,10.06,0,0,1,2409.36,1928.92Z"/><circle class="cls-1" cx="2123.55" cy="1957.97" r="6.89" transform="translate(-25.23 3888.22) rotate(-84.61)"/><path class="cls-1" d="M2259.55,2272.19a3.44,3.44,0,1,1,4.26,2.36A3.45,3.45,0,0,1,2259.55,2272.19Z"/><path class="cls-1" d="M1426.4,2767.51a3.44,3.44,0,1,1,4.26,2.37A3.44,3.44,0,0,1,1426.4,2767.51Z"/><path class="cls-1" d="M1249.78,1729.83a2.52,2.52,0,1,1,3.12,1.74A2.52,2.52,0,0,1,1249.78,1729.83Z"/><path class="cls-1" d="M1267.36,2181a2.52,2.52,0,1,1,3.12,1.73A2.53,2.53,0,0,1,1267.36,2181Z"/><path class="cls-1" d="M778.7,2938.38a3.44,3.44,0,1,1,4.26,2.36A3.45,3.45,0,0,1,778.7,2938.38Z"/><path class="cls-1" d="M905.61,2769a3.45,3.45,0,1,1,4.26,2.36A3.45,3.45,0,0,1,905.61,2769Z"/><path class="cls-1" d="M2652,1402.26a3.44,3.44,0,1,1,4.26,2.37A3.45,3.45,0,0,1,2652,1402.26Z"/><path class="cls-1" d="M2205.24,2503a3.44,3.44,0,1,1,4.26,2.37A3.46,3.46,0,0,1,2205.24,2503Z"/><path class="cls-1" d="M2478.88,1816.55a3.44,3.44,0,1,1,4.26,2.37A3.45,3.45,0,0,1,2478.88,1816.55Z"/><path class="cls-1" d="M2208.41,1444.16a3.44,3.44,0,1,1,4.25,2.37A3.42,3.42,0,0,1,2208.41,1444.16Z"/><path class="cls-1" d="M2422.27,1462.37a3.44,3.44,0,1,1,4.26,2.37A3.44,3.44,0,0,1,2422.27,1462.37Z"/><path class="cls-1" d="M2079.13,1959.48a3.44,3.44,0,1,1,4.26,2.36A3.44,3.44,0,0,1,2079.13,1959.48Z"/><path class="cls-1" d="M2951.33,1401.2a3.45,3.45,0,1,1,4.26,2.36A3.45,3.45,0,0,1,2951.33,1401.2Z"/><path class="cls-1" d="M2803.77,1629.51a3.44,3.44,0,1,1,4.25,2.36A3.44,3.44,0,0,1,2803.77,1629.51Z"/><path class="cls-1" d="M2753.44,1352.33a3.44,3.44,0,1,1,4.26,2.37A3.46,3.46,0,0,1,2753.44,1352.33Z"/><path class="cls-1" d="M2696.89,2140a3.44,3.44,0,1,1,4.26,2.36A3.45,3.45,0,0,1,2696.89,2140Z"/><path class="cls-1" d="M3092.1,1217.61a3.45,3.45,0,1,1,4.26,2.37A3.45,3.45,0,0,1,3092.1,1217.61Z"/><path class="cls-1" d="M3432.41,1693.18a3.44,3.44,0,1,1,4.26,2.37A3.44,3.44,0,0,1,3432.41,1693.18Z"/><path class="cls-1" d="M3347.22,1846.34a3.44,3.44,0,1,1,4.26,2.36A3.44,3.44,0,0,1,3347.22,1846.34Z"/><path class="cls-1" d="M2990.66,1356.69a3.44,3.44,0,1,1,4.26,2.37A3.45,3.45,0,0,1,2990.66,1356.69Z"/><path class="cls-1" d="M2786.67,1671.88a3.45,3.45,0,1,1,4.26,2.37A3.45,3.45,0,0,1,2786.67,1671.88Z"/><path class="cls-1" d="M3059.92,2027a3.44,3.44,0,1,1,4.25,2.36A3.44,3.44,0,0,1,3059.92,2027Z"/><path class="cls-1" d="M2531.84,2455a3.45,3.45,0,1,1,4.26,2.37A3.45,3.45,0,0,1,2531.84,2455Z"/><path class="cls-1" d="M2554.82,2494a3.44,3.44,0,1,1,4.26,2.37A3.45,3.45,0,0,1,2554.82,2494Z"/><path class="cls-1" d="M2810.82,1452.66a3.44,3.44,0,1,1,4.26,2.36A3.44,3.44,0,0,1,2810.82,1452.66Z"/><path class="cls-1" d="M3090,2059.08a3.44,3.44,0,1,1,4.26,2.36A3.44,3.44,0,0,1,3090,2059.08Z"/><path class="cls-1" d="M2885.09,2093.33a3.44,3.44,0,1,1,4.26,2.36A3.45,3.45,0,0,1,2885.09,2093.33Z"/><path class="cls-1" d="M1890.38,2050.83a3.44,3.44,0,1,1,4.25,2.37A3.43,3.43,0,0,1,1890.38,2050.83Z"/><path class="cls-1" d="M2050.49,2042a3.44,3.44,0,1,1,4.25,2.37A3.44,3.44,0,0,1,2050.49,2042Z"/><path class="cls-1" d="M2158.23,1480.12a3.45,3.45,0,1,1,4.26,2.37A3.45,3.45,0,0,1,2158.23,1480.12Z"/><path class="cls-1" d="M2249.31,1519a3.44,3.44,0,1,1,4.26,2.36A3.45,3.45,0,0,1,2249.31,1519Z"/><path class="cls-1" d="M1414.27,2124.69a3.44,3.44,0,1,1,4.25,2.36A3.44,3.44,0,0,1,1414.27,2124.69Z"/><path class="cls-1" d="M1507.4,2126.53a3.44,3.44,0,1,1,4.26,2.36A3.44,3.44,0,0,1,1507.4,2126.53Z"/><path class="cls-1" d="M1478.84,1735.94a3.44,3.44,0,1,1,4.26,2.36A3.45,3.45,0,0,1,1478.84,1735.94Z"/><path class="cls-1" d="M1010.63,1894.33a3.44,3.44,0,1,1,4.26,2.37A3.44,3.44,0,0,1,1010.63,1894.33Z"/><path class="cls-1" d="M1023.07,1791.07a3.44,3.44,0,1,1,4.26,2.37A3.43,3.43,0,0,1,1023.07,1791.07Z"/><path class="cls-1" d="M656,2022.34a2.53,2.53,0,1,1,3.13,1.74A2.53,2.53,0,0,1,656,2022.34Z"/><path class="cls-1" d="M397.6,2128.93a3.44,3.44,0,1,1,4.26,2.36A3.45,3.45,0,0,1,397.6,2128.93Z"/><path class="cls-1" d="M1626.47,1802.79a2.53,2.53,0,1,1,3.12,1.73A2.53,2.53,0,0,1,1626.47,1802.79Z"/><path class="cls-1" d="M2024.61,2321.13a3.44,3.44,0,1,1,4.26,2.36A3.44,3.44,0,0,1,2024.61,2321.13Z"/><path class="cls-1" d="M1888.46,2371.13a3.44,3.44,0,1,1,4.25,2.36A3.44,3.44,0,0,1,1888.46,2371.13Z"/><path class="cls-1" d="M1523.82,2486.13a3.44,3.44,0,1,1,4.26,2.37A3.46,3.46,0,0,1,1523.82,2486.13Z"/><path class="cls-1" d="M1427.61,2494.4a3.44,3.44,0,1,1,4.26,2.36A3.45,3.45,0,0,1,1427.61,2494.4Z"/><path class="cls-1" d="M1846.47,2236.8a3.44,3.44,0,1,1,4.25,2.36A3.44,3.44,0,0,1,1846.47,2236.8Z"/><path class="cls-1" d="M1861.16,2695.92a3.44,3.44,0,1,1,4.26,2.36A3.45,3.45,0,0,1,1861.16,2695.92Z"/><path class="cls-1" d="M2088.36,2627.37a3.45,3.45,0,1,1,4.26,2.37A3.44,3.44,0,0,1,2088.36,2627.37Z"/><path class="cls-1" d="M2683.65,2397.29a3.45,3.45,0,1,1,4.26,2.36A3.45,3.45,0,0,1,2683.65,2397.29Z"/><path class="cls-1" d="M2781.27,2327.83a3.45,3.45,0,1,1,4.26,2.36A3.45,3.45,0,0,1,2781.27,2327.83Z"/><path class="cls-1" d="M3107.38,2332.43a3.44,3.44,0,1,1,4.26,2.36A3.45,3.45,0,0,1,3107.38,2332.43Z"/><path class="cls-1" d="M3027.56,2236.5a3.45,3.45,0,1,1,4.26,2.36A3.45,3.45,0,0,1,3027.56,2236.5Z"/><path class="cls-1" d="M3155.68,2224.36a3.44,3.44,0,1,1,4.25,2.36A3.44,3.44,0,0,1,3155.68,2224.36Z"/><path class="cls-1" d="M3361.86,2249.21a3.44,3.44,0,1,1,4.26,2.37A3.44,3.44,0,0,1,3361.86,2249.21Z"/><path class="cls-1" d="M3306.06,1825.42a3.44,3.44,0,1,1,4.26,2.37A3.44,3.44,0,0,1,3306.06,1825.42Z"/><path class="cls-1" d="M3326.25,1334.41a3.44,3.44,0,1,1,4.25,2.37A3.44,3.44,0,0,1,3326.25,1334.41Z"/><path class="cls-1" d="M1285.17,1745.66a2.53,2.53,0,1,1,3.13,1.74A2.52,2.52,0,0,1,1285.17,1745.66Z"/><circle class="cls-1" cx="1887.53" cy="2628.5" r="6.89" transform="translate(-1317.81 2184) rotate(-46.42)"/><path class="cls-1" d="M1481.25,2185.66a6.88,6.88,0,1,1,8.51,4.73A6.88,6.88,0,0,1,1481.25,2185.66Z"/><path class="cls-1" d="M1153.84,1865.09a5.05,5.05,0,1,1,6.25,3.47A5.06,5.06,0,0,1,1153.84,1865.09Z"/><path class="cls-1" d="M348.52,2054.13a5.05,5.05,0,1,1,6.24,3.47A5,5,0,0,1,348.52,2054.13Z"/><path class="cls-1" d="M1025.93,2619.31a6.89,6.89,0,1,1,8.52,4.73A6.9,6.9,0,0,1,1025.93,2619.31Z"/><path class="cls-1" d="M1944.15,1627.42a6.89,6.89,0,1,1,8.52,4.73A6.89,6.89,0,0,1,1944.15,1627.42Z"/><path class="cls-1" d="M1902,2381.58a6.89,6.89,0,1,1,8.52,4.73A6.9,6.9,0,0,1,1902,2381.58Z"/><path class="cls-1" d="M2564,1363.29a6.89,6.89,0,1,1,8.51,4.73A6.89,6.89,0,0,1,2564,1363.29Z"/><path class="cls-1" d="M2823.87,1737.38a6.88,6.88,0,1,1,8.51,4.73A6.88,6.88,0,0,1,2823.87,1737.38Z"/><path class="cls-1" d="M3304,1770.67a6.89,6.89,0,1,1,8.51,4.73A6.89,6.89,0,0,1,3304,1770.67Z"/><path class="cls-1" d="M2260,1884.29a6.89,6.89,0,1,1,8.52,4.73A6.9,6.9,0,0,1,2260,1884.29Z"/><path class="cls-1" d="M1739.49,2130.9a6.88,6.88,0,1,1,8.51,4.73A6.88,6.88,0,0,1,1739.49,2130.9Z"/><path class="cls-1" d="M1075.74,2805a10.05,10.05,0,1,1,12.43,6.9A10.05,10.05,0,0,1,1075.74,2805Z"/><path class="cls-1" d="M938.07,1880.1a10,10,0,1,1,12.42,6.91A10,10,0,0,1,938.07,1880.1Z"/><path class="cls-1" d="M3335.43,2447.6a12.48,12.48,0,1,1,3.43-.48A12.35,12.35,0,0,1,3335.43,2447.6Zm0-23.56a11.47,11.47,0,0,0-3.06.43,11,11,0,1,0,3.06-.43Z"/><path class="cls-1" d="M408,3060.69a10.05,10.05,0,1,1-8.63,11.29A10,10,0,0,1,408,3060.69Z"/><circle class="cls-1" cx="472.62" cy="2777.61" r="10.05" transform="translate(-863.89 297.24) rotate(-18.66)"/><path class="cls-1" d="M222.77,2382.9a10,10,0,1,1-8.64,11.29A10,10,0,0,1,222.77,2382.9Z"/><path class="cls-1" d="M1064.84,3097a10.05,10.05,0,1,1-8.64,11.29A10.06,10.06,0,0,1,1064.84,3097Z"/><path class="cls-1" d="M764.36,2057.17a10.05,10.05,0,1,1-8.63,11.29A10,10,0,0,1,764.36,2057.17Z"/><path class="cls-1" d="M776.31,1763.34a6.89,6.89,0,1,1-5.92,7.74A6.9,6.9,0,0,1,776.31,1763.34Z"/><path class="cls-1" d="M446.55,1859a3.45,3.45,0,1,1-3,3.87A3.45,3.45,0,0,1,446.55,1859Z"/><path class="cls-1" d="M77.76,962.62a3.45,3.45,0,1,1-3,3.87A3.45,3.45,0,0,1,77.76,962.62Z"/><path class="cls-1" d="M1130.1,938.91a2.53,2.53,0,1,1-2.17,2.84A2.53,2.53,0,0,1,1130.1,938.91Z"/><path class="cls-1" d="M681.23,890.64a2.53,2.53,0,1,1-2.17,2.84A2.53,2.53,0,0,1,681.23,890.64Z"/><path class="cls-1" d="M3,297a3.44,3.44,0,1,1-3,3.87A3.45,3.45,0,0,1,3,297Z"/><path class="cls-1" d="M152.05,447.16a3.44,3.44,0,1,1-3,3.86A3.44,3.44,0,0,1,152.05,447.16Z"/><path class="cls-1" d="M1250.1,2373.84a3.44,3.44,0,1,1-3,3.87A3.45,3.45,0,0,1,1250.1,2373.84Z"/><path class="cls-1" d="M226.12,1771.67a3.44,3.44,0,1,1-3,3.87A3.45,3.45,0,0,1,226.12,1771.67Z"/><circle class="cls-1" cx="865.87" cy="2145.72" r="3.44" transform="translate(-1399.88 2614.97) rotate(-79.73)"/><path class="cls-1" d="M1273.2,1928.91a3.45,3.45,0,1,1-3,3.87A3.44,3.44,0,0,1,1273.2,1928.91Z"/><path class="cls-1" d="M1224.06,2137.85a3.44,3.44,0,1,1-3,3.86A3.45,3.45,0,0,1,1224.06,2137.85Z"/><path class="cls-1" d="M782.19,1726a3.44,3.44,0,1,1-3,3.86A3.43,3.43,0,0,1,782.19,1726Z"/><path class="cls-1" d="M1207.58,2670.18a3.45,3.45,0,1,1-3,3.87A3.45,3.45,0,0,1,1207.58,2670.18Z"/><path class="cls-1" d="M1003.18,2491a3.45,3.45,0,1,1-3,3.87A3.46,3.46,0,0,1,1003.18,2491Z"/><path class="cls-1" d="M1284.73,2481.51a3.44,3.44,0,1,1-3,3.86A3.43,3.43,0,0,1,1284.73,2481.51Z"/><path class="cls-1" d="M513.7,2310.92a3.44,3.44,0,1,1-3,3.86A3.45,3.45,0,0,1,513.7,2310.92Z"/><path class="cls-1" d="M1368.72,2836.17a3.45,3.45,0,1,1-3,3.87A3.45,3.45,0,0,1,1368.72,2836.17Z"/><path class="cls-1" d="M848.68,3103.63a3.45,3.45,0,1,1-3,3.87A3.45,3.45,0,0,1,848.68,3103.63Z"/><path class="cls-1" d="M709.56,2997.06a3.45,3.45,0,1,1-3,3.87A3.45,3.45,0,0,1,709.56,2997.06Z"/><path class="cls-1" d="M1245.88,2715.57a3.44,3.44,0,1,1-3,3.86A3.43,3.43,0,0,1,1245.88,2715.57Z"/><path class="cls-1" d="M963.74,2467.87a3.45,3.45,0,1,1-3,3.87A3.45,3.45,0,0,1,963.74,2467.87Z"/><path class="cls-1" d="M572.64,2686.52a3.44,3.44,0,1,1-3,3.87A3.44,3.44,0,0,1,572.64,2686.52Z"/><path class="cls-1" d="M226,2101.77a3.45,3.45,0,1,1-3,3.87A3.45,3.45,0,0,1,226,2101.77Z"/><path class="cls-1" d="M184.12,2118.83a3.45,3.45,0,1,1-3,3.87A3.45,3.45,0,0,1,184.12,2118.83Z"/><path class="cls-1" d="M1177.12,2523.67a3.45,3.45,0,1,1-3,3.87A3.45,3.45,0,0,1,1177.12,2523.67Z"/><path class="cls-1" d="M536.53,2711.56a3.45,3.45,0,1,1-3,3.87A3.45,3.45,0,0,1,536.53,2711.56Z"/><path class="cls-1" d="M532.46,2503.9a3.45,3.45,0,1,1-3,3.87A3.44,3.44,0,0,1,532.46,2503.9Z"/><path class="cls-1" d="M719.28,1526a3.44,3.44,0,1,1-3,3.86A3.43,3.43,0,0,1,719.28,1526Z"/><path class="cls-1" d="M704.74,1685.66a3.44,3.44,0,1,1-3,3.87A3.44,3.44,0,0,1,704.74,1685.66Z"/><path class="cls-1" d="M1244.93,1874a3.45,3.45,0,1,1-3,3.87A3.45,3.45,0,0,1,1244.93,1874Z"/><path class="cls-1" d="M1193.22,1958.49a3.45,3.45,0,1,1-3,3.87A3.45,3.45,0,0,1,1193.22,1958.49Z"/><path class="cls-1" d="M715.51,1044.18a3.44,3.44,0,1,1-3,3.87A3.44,3.44,0,0,1,715.51,1044.18Z"/><path class="cls-1" d="M700.13,1136.05a3.45,3.45,0,1,1-3,3.87A3.44,3.44,0,0,1,700.13,1136.05Z"/><path class="cls-1" d="M1090.72,1164.65a3.44,3.44,0,1,1-3,3.87A3.44,3.44,0,0,1,1090.72,1164.65Z"/><path class="cls-1" d="M1002.16,678.37a3.44,3.44,0,1,1-3,3.87A3.44,3.44,0,0,1,1002.16,678.37Z"/><path class="cls-1" d="M1102.51,705.7a3.45,3.45,0,1,1-3,3.87A3.45,3.45,0,0,1,1102.51,705.7Z"/><path class="cls-1" d="M927.13,308.92a2.53,2.53,0,1,1-2.17,2.84A2.52,2.52,0,0,1,927.13,308.92Z"/><path class="cls-1" d="M859.29,37.72a3.45,3.45,0,1,1-3,3.87A3.45,3.45,0,0,1,859.29,37.72Z"/><path class="cls-1" d="M1003.1,1301a2.53,2.53,0,1,1-2.17,2.84A2.54,2.54,0,0,1,1003.1,1301Z"/><path class="cls-1" d="M432.33,1619.43a3.45,3.45,0,1,1-3,3.87A3.45,3.45,0,0,1,432.33,1619.43Z"/><path class="cls-1" d="M402.68,1477.45a3.44,3.44,0,1,1-3,3.87A3.44,3.44,0,0,1,402.68,1477.45Z"/><path class="cls-1" d="M342,1100a3.44,3.44,0,1,1-3,3.86A3.44,3.44,0,0,1,342,1100Z"/><path class="cls-1" d="M347.8,1003.57a3.45,3.45,0,1,1-3,3.87A3.45,3.45,0,0,1,347.8,1003.57Z"/><path class="cls-1" d="M541.69,1455.46a3.44,3.44,0,1,1-3,3.86A3.43,3.43,0,0,1,541.69,1455.46Z"/><path class="cls-1" d="M85.32,1403.17a3.45,3.45,0,1,1-3,3.87A3.45,3.45,0,0,1,85.32,1403.17Z"/><path class="cls-1" d="M120.06,1637.93a3.45,3.45,0,1,1-3,3.87A3.45,3.45,0,0,1,120.06,1637.93Z"/><path class="cls-1" d="M261.05,2260.37a3.45,3.45,0,1,1-3,3.87A3.44,3.44,0,0,1,261.05,2260.37Z"/><path class="cls-1" d="M315.57,2367.06a3.45,3.45,0,1,1-3,3.87A3.45,3.45,0,0,1,315.57,2367.06Z"/><path class="cls-1" d="M263.55,2689a3.44,3.44,0,1,1-3,3.86A3.44,3.44,0,0,1,263.55,2689Z"/><path class="cls-1" d="M370.08,2624a3.45,3.45,0,1,1-3,3.87A3.45,3.45,0,0,1,370.08,2624Z"/><path class="cls-1" d="M363.44,2752.53a3.45,3.45,0,1,1-3,3.87A3.45,3.45,0,0,1,363.44,2752.53Z"/><path class="cls-1" d="M308.84,2952.91a3.44,3.44,0,1,1-3,3.86A3.44,3.44,0,0,1,308.84,2952.91Z"/><path class="cls-1" d="M736.24,2959.38a3.45,3.45,0,1,1-3,3.87A3.44,3.44,0,0,1,736.24,2959.38Z"/><path class="cls-1" d="M1219.08,3050.82a3.45,3.45,0,1,1-2.95,3.87A3.44,3.44,0,0,1,1219.08,3050.82Z"/><path class="cls-1" d="M1109.29,971.62a2.53,2.53,0,1,1-2.17,2.84A2.54,2.54,0,0,1,1109.29,971.62Z"/><path class="cls-1" d="M147.27,1432.24a6.89,6.89,0,1,1-5.92,7.74A6.88,6.88,0,0,1,147.27,1432.24Z"/><path class="cls-1" d="M645.43,1101.57a6.89,6.89,0,1,1-5.91,7.74A6.89,6.89,0,0,1,645.43,1101.57Z"/><path class="cls-1" d="M1010.25,824.31a5.05,5.05,0,1,1-4.34,5.68A5.05,5.05,0,0,1,1010.25,824.31Z"/><path class="cls-1" d="M940.44,0a5.05,5.05,0,1,1-4.34,5.68A5.06,5.06,0,0,1,940.44,0Z"/><path class="cls-1" d="M282.68,588a6.89,6.89,0,1,1-5.92,7.73A6.88,6.88,0,0,1,282.68,588Z"/><path class="cls-1" d="M1130.36,1640.79a6.89,6.89,0,1,1-5.92,7.74A6.89,6.89,0,0,1,1130.36,1640.79Z"/><path class="cls-1" d="M390.36,1489.34a6.89,6.89,0,1,1-5.92,7.74A6.89,6.89,0,0,1,390.36,1489.34Z"/><circle class="cls-1" cx="1302.37" cy="2299.35" r="6.89" transform="translate(-1137.96 1285.45) rotate(-37.91)"/><path class="cls-1" d="M893.52,2495.14a6.89,6.89,0,1,1-5.91,7.73A6.88,6.88,0,0,1,893.52,2495.14Z"/><circle class="cls-1" cx="791.62" cy="2972.16" r="6.89" transform="translate(-2037.32 1764.89) rotate(-51.98)"/><path class="cls-1" d="M830.26,1915.86a6.89,6.89,0,1,1-5.92,7.73A6.88,6.88,0,0,1,830.26,1915.86Z"/><path class="cls-1" d="M662,1365a6.89,6.89,0,1,1-5.92,7.74A6.88,6.88,0,0,1,662,1365Z"/><path class="cls-1" d="M91.69,610.24a10,10,0,1,1-8.63,11.29A10,10,0,0,1,91.69,610.24Z"/><circle class="cls-1" cx="1028.13" cy="618.61" r="10.05" transform="translate(-162.47 469.58) rotate(-23.9)"/><path class="cls-1" d="M128.74,2912.18a12.5,12.5,0,1,1,1.67-.11A13.51,13.51,0,0,1,128.74,2912.18Zm0-23.56a12.43,12.43,0,0,0-1.49.1,11,11,0,1,0,1.49-.1Z"/><path class="cls-1" d="M2920.29,165.31a10.05,10.05,0,1,1,8.64-11.29A10.05,10.05,0,0,1,2920.29,165.31Z"/><path class="cls-1" d="M2857,458.35a10,10,0,1,1,8.64-11.29A10,10,0,0,1,2857,458.35Z"/><path class="cls-1" d="M3105.48,843.1a10,10,0,1,1,8.64-11.29A10,10,0,0,1,3105.48,843.1Z"/><path class="cls-1" d="M2263.42,129a10.05,10.05,0,1,1,8.64-11.29A10.06,10.06,0,0,1,2263.42,129Z"/><circle class="cls-1" cx="2562.57" cy="1158.87" r="10.05" transform="translate(-249.86 1159.38) rotate(-24.34)"/><circle class="cls-1" cx="2551.04" cy="1455.83" r="6.89" transform="translate(-155.18 2597.59) rotate(-52.59)"/><path class="cls-1" d="M2881.71,1367a3.45,3.45,0,1,1,2.95-3.87A3.45,3.45,0,0,1,2881.71,1367Z"/><path class="cls-1" d="M3250.49,2263.38a3.45,3.45,0,1,1,3-3.87A3.45,3.45,0,0,1,3250.49,2263.38Z"/><path class="cls-1" d="M2198.16,2287.09a2.53,2.53,0,1,1,2.17-2.84A2.52,2.52,0,0,1,2198.16,2287.09Z"/><path class="cls-1" d="M2647,2335.36a2.53,2.53,0,1,1,2.17-2.84A2.52,2.52,0,0,1,2647,2335.36Z"/><path class="cls-1" d="M3325.27,2929.05a3.44,3.44,0,1,1,3-3.87A3.44,3.44,0,0,1,3325.27,2929.05Z"/><path class="cls-1" d="M3176.2,2778.84a3.44,3.44,0,1,1,3-3.87A3.45,3.45,0,0,1,3176.2,2778.84Z"/><circle class="cls-1" cx="2077.7" cy="848.75" r="3.44" transform="translate(959.7 2794.85) rotate(-82.34)"/><path class="cls-1" d="M3102.14,1454.33a3.44,3.44,0,1,1,3-3.87A3.44,3.44,0,0,1,3102.14,1454.33Z"/><path class="cls-1" d="M2462.84,1083.7a3.44,3.44,0,1,1,3-3.87A3.44,3.44,0,0,1,2462.84,1083.7Z"/><path class="cls-1" d="M2055.05,1297.09a3.45,3.45,0,1,1,3-3.87A3.44,3.44,0,0,1,2055.05,1297.09Z"/><circle class="cls-1" cx="2103.74" cy="1084.74" r="3.44" transform="translate(661.54 2961.56) rotate(-79.74)"/><path class="cls-1" d="M2546.06,1500a3.44,3.44,0,1,1,3-3.86A3.44,3.44,0,0,1,2546.06,1500Z"/><path class="cls-1" d="M2120.68,555.82a3.45,3.45,0,1,1,3-3.87A3.44,3.44,0,0,1,2120.68,555.82Z"/><path class="cls-1" d="M2325.08,735.05a3.45,3.45,0,1,1,3-3.87A3.45,3.45,0,0,1,2325.08,735.05Z"/><path class="cls-1" d="M2043.53,744.49a3.44,3.44,0,1,1,3-3.86A3.43,3.43,0,0,1,2043.53,744.49Z"/><path class="cls-1" d="M2814.56,915.08a3.44,3.44,0,1,1,3-3.86A3.44,3.44,0,0,1,2814.56,915.08Z"/><circle class="cls-1" cx="1959.08" cy="386.42" r="3.44" transform="translate(1187.16 2228) rotate(-78.42)"/><circle class="cls-1" cx="2479.12" cy="118.95" r="3.44" transform="translate(2117.63 2574.46) rotate(-84.37)"/><circle class="cls-1" cx="2618.24" cy="225.53" r="3.44" transform="translate(2233.23 2825.11) rotate(-86.5)"/><path class="cls-1" d="M2082.37,510.43a3.44,3.44,0,1,1,3-3.86A3.45,3.45,0,0,1,2082.37,510.43Z"/><path class="cls-1" d="M2364.51,758.13a3.45,3.45,0,1,1,3-3.87A3.44,3.44,0,0,1,2364.51,758.13Z"/><path class="cls-1" d="M2755.62,539.48a3.45,3.45,0,1,1,3-3.87A3.45,3.45,0,0,1,2755.62,539.48Z"/><path class="cls-1" d="M3102.23,1124.23a3.45,3.45,0,1,1,2.95-3.87A3.45,3.45,0,0,1,3102.23,1124.23Z"/><path class="cls-1" d="M3144.13,1107.17a3.45,3.45,0,1,1,3-3.87A3.44,3.44,0,0,1,3144.13,1107.17Z"/><path class="cls-1" d="M2151.14,702.33a3.45,3.45,0,1,1,3-3.87A3.44,3.44,0,0,1,2151.14,702.33Z"/><path class="cls-1" d="M2791.73,514.44a3.45,3.45,0,1,1,3-3.87A3.45,3.45,0,0,1,2791.73,514.44Z"/><path class="cls-1" d="M2795.8,722.1a3.45,3.45,0,1,1,3-3.87A3.45,3.45,0,0,1,2795.8,722.1Z"/><path class="cls-1" d="M2609,1700a3.44,3.44,0,1,1,2.95-3.86A3.43,3.43,0,0,1,2609,1700Z"/><path class="cls-1" d="M2623.52,1540.34a3.45,3.45,0,1,1,3-3.87A3.45,3.45,0,0,1,2623.52,1540.34Z"/><path class="cls-1" d="M2083.33,1352a3.45,3.45,0,1,1,3-3.87A3.44,3.44,0,0,1,2083.33,1352Z"/><path class="cls-1" d="M2135,1267.51a3.45,3.45,0,1,1,3-3.87A3.44,3.44,0,0,1,2135,1267.51Z"/><path class="cls-1" d="M2612.75,2181.82a3.44,3.44,0,1,1,2.95-3.87A3.44,3.44,0,0,1,2612.75,2181.82Z"/><path class="cls-1" d="M2628.12,2090a3.45,3.45,0,1,1,3-3.87A3.45,3.45,0,0,1,2628.12,2090Z"/><path class="cls-1" d="M2237.53,2061.35a3.44,3.44,0,1,1,3-3.87A3.44,3.44,0,0,1,2237.53,2061.35Z"/><path class="cls-1" d="M2326.1,2547.63a3.44,3.44,0,1,1,3-3.87A3.44,3.44,0,0,1,2326.1,2547.63Z"/><path class="cls-1" d="M2225.75,2520.3a3.45,3.45,0,1,1,2.95-3.87A3.45,3.45,0,0,1,2225.75,2520.3Z"/><path class="cls-1" d="M2401.13,2917.08a2.53,2.53,0,0,1-.67-5,2.51,2.51,0,0,1,2.84,2.17A2.54,2.54,0,0,1,2401.13,2917.08Z"/><path class="cls-1" d="M2469,3188.28a3.45,3.45,0,1,1,3-3.87A3.44,3.44,0,0,1,2469,3188.28Z"/><path class="cls-1" d="M2325.16,1925a2.53,2.53,0,1,1,2.17-2.84A2.53,2.53,0,0,1,2325.16,1925Z"/><path class="cls-1" d="M2895.93,1606.57a3.45,3.45,0,1,1,3-3.87A3.44,3.44,0,0,1,2895.93,1606.57Z"/><path class="cls-1" d="M2925.58,1748.55a3.44,3.44,0,1,1,3-3.87A3.45,3.45,0,0,1,2925.58,1748.55Z"/><path class="cls-1" d="M2986.29,2126a3.44,3.44,0,1,1,3-3.86A3.43,3.43,0,0,1,2986.29,2126Z"/><path class="cls-1" d="M2980.46,2222.43a3.45,3.45,0,1,1,3-3.87A3.44,3.44,0,0,1,2980.46,2222.43Z"/><path class="cls-1" d="M2786.57,1770.54a3.44,3.44,0,1,1,3-3.86A3.43,3.43,0,0,1,2786.57,1770.54Z"/><path class="cls-1" d="M3242.94,1822.83a3.45,3.45,0,1,1,3-3.87A3.44,3.44,0,0,1,3242.94,1822.83Z"/><path class="cls-1" d="M3208.19,1588.07a3.45,3.45,0,1,1,3-3.87A3.46,3.46,0,0,1,3208.19,1588.07Z"/><path class="cls-1" d="M3067.2,965.63a3.45,3.45,0,1,1,3-3.87A3.45,3.45,0,0,1,3067.2,965.63Z"/><path class="cls-1" d="M3012.69,858.94a3.45,3.45,0,1,1,3-3.87A3.44,3.44,0,0,1,3012.69,858.94Z"/><path class="cls-1" d="M3064.71,537a3.44,3.44,0,1,1,3-3.86A3.43,3.43,0,0,1,3064.71,537Z"/><path class="cls-1" d="M2958.18,602a3.45,3.45,0,1,1,3-3.87A3.44,3.44,0,0,1,2958.18,602Z"/><path class="cls-1" d="M2964.81,473.46a3.44,3.44,0,1,1,3-3.86A3.43,3.43,0,0,1,2964.81,473.46Z"/><path class="cls-1" d="M3019.42,273.09a3.44,3.44,0,1,1,3-3.86A3.43,3.43,0,0,1,3019.42,273.09Z"/><path class="cls-1" d="M2592,266.62a3.45,3.45,0,1,1,2.95-3.87A3.44,3.44,0,0,1,2592,266.62Z"/><path class="cls-1" d="M2109.17,175.18a3.45,3.45,0,1,1,3-3.87A3.45,3.45,0,0,1,2109.17,175.18Z"/><path class="cls-1" d="M2219,2254.38a2.53,2.53,0,1,1,2.17-2.84A2.53,2.53,0,0,1,2219,2254.38Z"/><path class="cls-1" d="M3181,1793.76a6.89,6.89,0,1,1,5.92-7.74A6.89,6.89,0,0,1,3181,1793.76Z"/><path class="cls-1" d="M2682.82,2124.43a6.89,6.89,0,1,1,5.92-7.74A6.88,6.88,0,0,1,2682.82,2124.43Z"/><path class="cls-1" d="M2318,2401.69a5.05,5.05,0,1,1,4.34-5.68A5.06,5.06,0,0,1,2318,2401.69Z"/><path class="cls-1" d="M2387.82,3226a5.05,5.05,0,1,1,4.34-5.68A5.07,5.07,0,0,1,2387.82,3226Z"/><path class="cls-1" d="M3045.58,2638a6.89,6.89,0,1,1,5.92-7.73A6.89,6.89,0,0,1,3045.58,2638Z"/><path class="cls-1" d="M2197.89,1585.21a6.89,6.89,0,1,1,5.92-7.74A6.88,6.88,0,0,1,2197.89,1585.21Z"/><path class="cls-1" d="M2937.89,1736.66a6.89,6.89,0,1,1,5.92-7.74A6.88,6.88,0,0,1,2937.89,1736.66Z"/><path class="cls-1" d="M2026.8,933.48a6.89,6.89,0,1,1,5.92-7.74A6.9,6.9,0,0,1,2026.8,933.48Z"/><circle class="cls-1" cx="2433.82" cy="724.04" r="6.89" transform="translate(-85.01 402.81) rotate(-9.3)"/><path class="cls-1" d="M2537.55,260.67a6.89,6.89,0,1,1,5.91-7.74A6.89,6.89,0,0,1,2537.55,260.67Z"/><circle class="cls-1" cx="2497.09" cy="1303.32" r="6.89" transform="translate(-55.22 2494.88) rotate(-52.59)"/><path class="cls-1" d="M2666.23,1861a6.89,6.89,0,1,1,5.92-7.74A6.9,6.9,0,0,1,2666.23,1861Z"/><path class="cls-1" d="M3236.56,2615.76a10,10,0,1,1,8.64-11.29A10,10,0,0,1,3236.56,2615.76Z"/><path class="cls-1" d="M2301.46,2617.35a10,10,0,1,1,8.63-11.29A10,10,0,0,1,2301.46,2617.35Z"/><path class="cls-1" d="M3199.47,338.79a12.5,12.5,0,1,1,1.67-.11A13.51,13.51,0,0,1,3199.47,338.79Zm0-23.56a12.4,12.4,0,0,0-1.48.1,11,11,0,1,0,1.48-.1Z"/></g></g></g></svg>