<svg xmlns="http://www.w3.org/2000/svg" viewBox="0 0 3399.01 2835.01"><defs><style>.cls-1{fill:#fff;}</style></defs><title>stars-m</title><g id="Слой_2" data-name="Слой 2"><g id="Слой_1-2" data-name="Слой 1"><g id="back"><g id="stars"><path class="cls-1" d="M329.42,2641.82a10.05,10.05,0,1,0-10.05,10.06A10.05,10.05,0,0,0,329.42,2641.82Z"/><path class="cls-1" d="M611.53,2540.35a10.05,10.05,0,1,0-10,10.06A10.05,10.05,0,0,0,611.53,2540.35Z"/><path class="cls-1" d="M1025.73,2735.9a10,10,0,1,0-10.05,10A10.05,10.05,0,0,0,1025.73,2735.9Z"/><path class="cls-1" d="M206.69,1995.5a10.05,10.05,0,1,0-10.05,10A10.05,10.05,0,0,0,206.69,1995.5Z"/><path class="cls-1" d="M1277.09,2156a10,10,0,1,0-10,10.05A10.05,10.05,0,0,0,1277.09,2156Z"/><circle class="cls-1" cx="1559.88" cy="2105.4" r="6.89"/><path class="cls-1" d="M1515.5,2444.91a3.45,3.45,0,1,0-3.44,3.44A3.44,3.44,0,0,0,1515.5,2444.91Z"/><circle class="cls-1" cx="2449.27" cy="2692.11" r="3.44"/><path class="cls-1" d="M2337.27,1645.85a2.53,2.53,0,1,0-2.52,2.53A2.52,2.52,0,0,0,2337.27,1645.85Z"/><path class="cls-1" d="M2444.38,2084.42a2.53,2.53,0,1,0-2.52,2.52A2.52,2.52,0,0,0,2444.38,2084.42Z"/><path class="cls-1" d="M3122.44,2678.33a3.45,3.45,0,1,0-3.45,3.45A3.45,3.45,0,0,0,3122.44,2678.33Z"/><path class="cls-1" d="M2953.86,2550.41a3.45,3.45,0,1,0-3.45,3.44A3.44,3.44,0,0,0,2953.86,2550.41Z"/><circle class="cls-1" cx="895.62" cy="1716.37" r="3.44"/><path class="cls-1" d="M1631.17,2651.88a3.45,3.45,0,1,0-3.45,3.44A3.45,3.45,0,0,0,1631.17,2651.88Z"/><path class="cls-1" d="M1179.36,2067.12a3.45,3.45,0,1,0-3.44,3.44A3.44,3.44,0,0,0,1179.36,2067.12Z"/><path class="cls-1" d="M1337,1634.72a3.44,3.44,0,1,0-3.44,3.45A3.44,3.44,0,0,0,1337,1634.72Z"/><path class="cls-1" d="M1136.43,1711a3.45,3.45,0,1,0-3.45,3.44A3.45,3.45,0,0,0,1136.43,1711Z"/><path class="cls-1" d="M1603,2094.64a3.44,3.44,0,1,0-3.44,3.45A3.44,3.44,0,0,0,1603,2094.64Z"/><path class="cls-1" d="M610.93,1797.65a3.45,3.45,0,1,0-3.44,3.44A3.44,3.44,0,0,0,610.93,1797.65Z"/><path class="cls-1" d="M815.57,1976.6a3.44,3.44,0,1,0-3.44,3.44A3.44,3.44,0,0,0,815.57,1976.6Z"/><path class="cls-1" d="M787.76,1696.26a3.44,3.44,0,1,0-3.44,3.45A3.44,3.44,0,0,0,787.76,1696.26Z"/><path class="cls-1" d="M1058.67,2438a3.45,3.45,0,1,0-3.45,3.44A3.46,3.46,0,0,0,1058.67,2438Z"/><circle class="cls-1" cx="421.67" cy="1659.84" r="3.44"/><path class="cls-1" d="M228.66,2210.64a3.45,3.45,0,1,0-3.45,3.44A3.45,3.45,0,0,0,228.66,2210.64Z"/><path class="cls-1" d="M352.67,2334.47a3.45,3.45,0,1,0-3.44,3.44A3.44,3.44,0,0,0,352.67,2334.47Z"/><path class="cls-1" d="M560.88,1765.67a3.45,3.45,0,1,0-3.44,3.44A3.44,3.44,0,0,0,560.88,1765.67Z"/><path class="cls-1" d="M843.66,2012.64a3.45,3.45,0,1,0-3.45,3.44A3.45,3.45,0,0,0,843.66,2012.64Z"/><path class="cls-1" d="M678.57,2429.19a3.45,3.45,0,1,0-3.45,3.44A3.44,3.44,0,0,0,678.57,2429.19Z"/><path class="cls-1" d="M1304,2695.55a3.45,3.45,0,1,0-3.44,3.44A3.44,3.44,0,0,0,1304,2695.55Z"/><circle class="cls-1" cx="1289.14" cy="2739.35" r="3.44"/><path class="cls-1" d="M760.18,1808.5a3.45,3.45,0,1,0-3.45,3.44A3.46,3.46,0,0,0,760.18,1808.5Z"/><path class="cls-1" d="M658.51,2468.29a3.45,3.45,0,1,0-3.44,3.44A3.45,3.45,0,0,0,658.51,2468.29Z"/><path class="cls-1" d="M864.89,2444.91a3.45,3.45,0,1,0-3.44,3.44A3.44,3.44,0,0,0,864.89,2444.91Z"/><circle class="cls-1" cx="1806.16" cy="2130.59" r="3.44"/><path class="cls-1" d="M1653.22,2166.09a3.44,3.44,0,1,0-3.44,3.45A3.44,3.44,0,0,0,1653.22,2166.09Z"/><path class="cls-1" d="M1395.17,1655.5a3.45,3.45,0,1,0-3.45,3.45A3.44,3.44,0,0,0,1395.17,1655.5Z"/><path class="cls-1" d="M1318.28,1717.91a3.44,3.44,0,1,0-3.44,3.45A3.44,3.44,0,0,0,1318.28,1717.91Z"/><path class="cls-1" d="M2287.67,2070.71a3.45,3.45,0,1,0-3.45,3.45A3.45,3.45,0,0,0,2287.67,2070.71Z"/><path class="cls-1" d="M2198.63,2098.09a3.45,3.45,0,1,0-3.45,3.44A3.44,3.44,0,0,0,2198.63,2098.09Z"/><path class="cls-1" d="M2118.71,1714.69a3.45,3.45,0,1,0-3.44,3.45A3.44,3.44,0,0,0,2118.71,1714.69Z"/><path class="cls-1" d="M2612.43,1738.27a3.45,3.45,0,1,0-3.45,3.44A3.45,3.45,0,0,0,2612.43,1738.27Z"/><path class="cls-1" d="M2572.08,1642.41a3.45,3.45,0,1,0-3.44,3.44A3.44,3.44,0,0,0,2572.08,1642.41Z"/><path class="cls-1" d="M2988.54,1763.87a2.53,2.53,0,1,0-2.53,2.52A2.53,2.53,0,0,0,2988.54,1763.87Z"/><path class="cls-1" d="M3266.33,1795.3a3.45,3.45,0,1,0-3.45,3.45A3.44,3.44,0,0,0,3266.33,1795.3Z"/><path class="cls-1" d="M1995.15,1819.55a2.53,2.53,0,1,0-2.53,2.53A2.53,2.53,0,0,0,1995.15,1819.55Z"/><path class="cls-1" d="M1754.84,2427.37a3.44,3.44,0,1,0-3.44,3.45A3.44,3.44,0,0,0,1754.84,2427.37Z"/><path class="cls-1" d="M1899.5,2438a3.45,3.45,0,1,0-3.45,3.44A3.45,3.45,0,0,0,1899.5,2438Z"/><path class="cls-1" d="M2281.7,2448.35a3.45,3.45,0,1,0-3.44,3.44A3.44,3.44,0,0,0,2281.7,2448.35Z"/><path class="cls-1" d="M2376.47,2429.84a3.44,3.44,0,1,0-3.44,3.45A3.44,3.44,0,0,0,2376.47,2429.84Z"/><path class="cls-1" d="M1902.94,2297.32a3.45,3.45,0,1,0-3.44,3.44A3.44,3.44,0,0,0,1902.94,2297.32Z"/><path class="cls-1" d="M2015,2742.79a3.45,3.45,0,1,0-3.45,3.44A3.45,3.45,0,0,0,2015,2742.79Z"/><path class="cls-1" d="M1777.73,2739.35a3.44,3.44,0,1,0-3.44,3.44A3.44,3.44,0,0,0,1777.73,2739.35Z"/><circle class="cls-1" cx="1138.68" cy="2681.78" r="3.44"/><circle class="cls-1" cx="1025.73" cy="2641.82" r="3.44"/><path class="cls-1" d="M716.9,2735.9a3.45,3.45,0,1,0-3.45,3.45A3.45,3.45,0,0,0,716.9,2735.9Z"/><path class="cls-1" d="M767.27,2621.72a3.45,3.45,0,1,0-3.45,3.45A3.45,3.45,0,0,0,767.27,2621.72Z"/><path class="cls-1" d="M640.75,2645.27a3.44,3.44,0,1,0-3.44,3.44A3.45,3.45,0,0,0,640.75,2645.27Z"/><path class="cls-1" d="M449.35,2725.85a3.45,3.45,0,1,0-3.45,3.44A3.45,3.45,0,0,0,449.35,2725.85Z"/><path class="cls-1" d="M386.5,2303.05a3.45,3.45,0,1,0-3.45,3.44A3.45,3.45,0,0,0,386.5,2303.05Z"/><path class="cls-1" d="M232.1,1836.5a3.45,3.45,0,1,0-3.44,3.45A3.44,3.44,0,0,0,232.1,1836.5Z"/><path class="cls-1" d="M2307.59,1670.8a2.53,2.53,0,1,0-2.53,2.53A2.52,2.52,0,0,0,2307.59,1670.8Z"/><path class="cls-1" d="M1978,2685.22a6.89,6.89,0,1,0-6.89,6.89A6.89,6.89,0,0,0,1978,2685.22Z"/><path class="cls-1" d="M2240,2147.75a6.89,6.89,0,1,0-6.89,6.89A6.88,6.88,0,0,0,2240,2147.75Z"/><circle class="cls-1" cx="2461.64" cy="1749.53" r="5.05"/><circle class="cls-1" cx="3287.91" cy="1709.89" r="5.05"/><path class="cls-1" d="M2797,2439.52a6.89,6.89,0,1,0-6.88,6.89A6.89,6.89,0,0,0,2797,2439.52Z"/><path class="cls-1" d="M1641.5,1738.27a6.89,6.89,0,1,0-6.89,6.89A6.9,6.9,0,0,0,1641.5,1738.27Z"/><circle class="cls-1" cx="1882.45" cy="2451.79" r="6.89"/><path class="cls-1" d="M972.88,1654.73a6.89,6.89,0,1,0-6.89,6.89A6.88,6.88,0,0,0,972.88,1654.73Z"/><path class="cls-1" d="M825.91,2085.84a6.89,6.89,0,1,0-6.89,6.89A6.9,6.9,0,0,0,825.91,2085.84Z"/><path class="cls-1" d="M373.4,2249.84a6.89,6.89,0,1,0-6.89,6.89A6.88,6.88,0,0,0,373.4,2249.84Z"/><circle class="cls-1" cx="1401.58" cy="2072.07" r="6.89"/><path class="cls-1" d="M1976.68,2166.09a6.89,6.89,0,1,0-6.88,6.89A6.88,6.88,0,0,0,1976.68,2166.09Z"/><path class="cls-1" d="M2800.18,2631.77a10.06,10.06,0,1,0-10,10.05A10.05,10.05,0,0,0,2800.18,2631.77Z"/><path class="cls-1" d="M2678.28,1704.64a10.05,10.05,0,1,0-10.05,10A10.05,10.05,0,0,0,2678.28,1704.64Z"/><path class="cls-1" d="M3379.29,1414.79a10.05,10.05,0,1,0,12.43-6.9A10.06,10.06,0,0,0,3379.29,1414.79Z"/><path class="cls-1" d="M3080.15,1434.8a10.05,10.05,0,1,0,12.43-6.9A10.06,10.06,0,0,0,3080.15,1434.8Z"/><path class="cls-1" d="M3319.61,2070a10.05,10.05,0,1,0,12.43-6.9A10.05,10.05,0,0,0,3319.61,2070Z"/><path class="cls-1" d="M2334.59,1621.34a10.05,10.05,0,1,0,12.42-6.91A10,10,0,0,0,2334.59,1621.34Z"/><circle class="cls-1" cx="2048.77" cy="1592.28" r="6.89" transform="matrix(1, -0.09, 0.09, 1, -140.5, 199.48)"/><path class="cls-1" d="M1175,1820.42a2.53,2.53,0,1,0,3.12-1.74A2.52,2.52,0,0,0,1175,1820.42Z"/><path class="cls-1" d="M1192.58,1369.3a2.53,2.53,0,1,0,3.13-1.73A2.53,2.53,0,0,0,1192.58,1369.3Z"/><path class="cls-1" d="M2577.18,2148a3.45,3.45,0,1,0,4.26-2.36A3.45,3.45,0,0,0,2577.18,2148Z"/><path class="cls-1" d="M2404.11,1733.7a3.44,3.44,0,1,0,4.25-2.37A3.44,3.44,0,0,0,2404.11,1733.7Z"/><path class="cls-1" d="M2133.63,2106.09a3.44,3.44,0,1,0,4.26-2.37A3.45,3.45,0,0,0,2133.63,2106.09Z"/><path class="cls-1" d="M2347.5,2087.88a3.44,3.44,0,1,0,4.25-2.37A3.42,3.42,0,0,0,2347.5,2087.88Z"/><path class="cls-1" d="M2004.35,1590.78a3.45,3.45,0,1,0,4.26-2.37A3.44,3.44,0,0,0,2004.35,1590.78Z"/><path class="cls-1" d="M2876.56,2149.05a3.44,3.44,0,1,0,4.26-2.36A3.45,3.45,0,0,0,2876.56,2149.05Z"/><path class="cls-1" d="M2729,1920.74a3.44,3.44,0,1,0,4.26-2.36A3.45,3.45,0,0,0,2729,1920.74Z"/><path class="cls-1" d="M2678.67,2197.92a3.44,3.44,0,1,0,4.25-2.37A3.44,3.44,0,0,0,2678.67,2197.92Z"/><path class="cls-1" d="M2622.12,1410.27a3.44,3.44,0,1,0,4.25-2.36A3.44,3.44,0,0,0,2622.12,1410.27Z"/><path class="cls-1" d="M3017.33,2332.64a3.44,3.44,0,1,0,4.26-2.37A3.45,3.45,0,0,0,3017.33,2332.64Z"/><path class="cls-1" d="M3357.64,1857.07a3.44,3.44,0,1,0,4.25-2.37A3.42,3.42,0,0,0,3357.64,1857.07Z"/><path class="cls-1" d="M3272.44,1703.91a3.45,3.45,0,1,0,4.26-2.36A3.45,3.45,0,0,0,3272.44,1703.91Z"/><path class="cls-1" d="M2915.89,2193.56a3.44,3.44,0,1,0,4.26-2.37A3.44,3.44,0,0,0,2915.89,2193.56Z"/><path class="cls-1" d="M2711.9,1878.37a3.44,3.44,0,1,0,4.26-2.36A3.45,3.45,0,0,0,2711.9,1878.37Z"/><path class="cls-1" d="M2985.14,1523.25a3.44,3.44,0,1,0,4.26-2.36A3.45,3.45,0,0,0,2985.14,1523.25Z"/><path class="cls-1" d="M2736,2097.59a3.45,3.45,0,1,0,4.26-2.36A3.45,3.45,0,0,0,2736,2097.59Z"/><path class="cls-1" d="M3015.17,1491.17a3.45,3.45,0,1,0,4.26-2.36A3.45,3.45,0,0,0,3015.17,1491.17Z"/><path class="cls-1" d="M2810.32,1456.92a3.44,3.44,0,1,0,4.26-2.36A3.44,3.44,0,0,0,2810.32,1456.92Z"/><path class="cls-1" d="M1815.6,1499.42a3.44,3.44,0,1,0,4.26-2.37A3.44,3.44,0,0,0,1815.6,1499.42Z"/><path class="cls-1" d="M1975.71,1508.27a3.44,3.44,0,1,0,4.26-2.36A3.45,3.45,0,0,0,1975.71,1508.27Z"/><path class="cls-1" d="M2083.46,2070.13a3.44,3.44,0,1,0,4.26-2.36A3.45,3.45,0,0,0,2083.46,2070.13Z"/><path class="cls-1" d="M2174.54,2031.26a3.44,3.44,0,1,0,4.26-2.36A3.44,3.44,0,0,0,2174.54,2031.26Z"/><path class="cls-1" d="M1339.49,1425.56a3.44,3.44,0,1,0,4.26-2.36A3.45,3.45,0,0,0,1339.49,1425.56Z"/><path class="cls-1" d="M1432.62,1423.72a3.45,3.45,0,1,0,4.26-2.36A3.45,3.45,0,0,0,1432.62,1423.72Z"/><path class="cls-1" d="M1404.07,1814.31a3.44,3.44,0,1,0,4.26-2.36A3.44,3.44,0,0,0,1404.07,1814.31Z"/><path class="cls-1" d="M935.86,1655.92a3.44,3.44,0,1,0,4.25-2.37A3.44,3.44,0,0,0,935.86,1655.92Z"/><path class="cls-1" d="M948.29,1759.18a3.45,3.45,0,1,0,4.26-2.37A3.45,3.45,0,0,0,948.29,1759.18Z"/><path class="cls-1" d="M581.27,1527.91a2.53,2.53,0,1,0,3.12-1.73A2.52,2.52,0,0,0,581.27,1527.91Z"/><path class="cls-1" d="M322.83,1421.32a3.44,3.44,0,1,0,4.25-2.36A3.44,3.44,0,0,0,322.83,1421.32Z"/><path class="cls-1" d="M1551.69,1747.47a2.53,2.53,0,1,0,3.13-1.74A2.53,2.53,0,0,0,1551.69,1747.47Z"/><path class="cls-1" d="M3231.28,1724.83a3.45,3.45,0,1,0,4.26-2.37A3.45,3.45,0,0,0,3231.28,1724.83Z"/><path class="cls-1" d="M3251.47,2215.84a3.44,3.44,0,1,0,4.26-2.36A3.45,3.45,0,0,0,3251.47,2215.84Z"/><path class="cls-1" d="M1210.4,1804.59a2.53,2.53,0,0,0,4.86,1.39,2.53,2.53,0,1,0-4.86-1.39Z"/><path class="cls-1" d="M1406.47,1364.59a6.89,6.89,0,1,0,8.52-4.73A6.89,6.89,0,0,0,1406.47,1364.59Z"/><path class="cls-1" d="M1079.07,1685.16a5.05,5.05,0,1,0,6.24-3.47A5.05,5.05,0,0,0,1079.07,1685.16Z"/><path class="cls-1" d="M273.74,1496.12a5.05,5.05,0,1,0,6.25-3.47A5.05,5.05,0,0,0,273.74,1496.12Z"/><path class="cls-1" d="M1869.38,1922.83a6.89,6.89,0,1,0,8.51-4.73A6.89,6.89,0,0,0,1869.38,1922.83Z"/><path class="cls-1" d="M2489.26,2187a6.89,6.89,0,1,0,8.52-4.72A6.9,6.9,0,0,0,2489.26,2187Z"/><path class="cls-1" d="M2749.09,1812.87a6.89,6.89,0,1,0,8.52-4.73A6.89,6.89,0,0,0,2749.09,1812.87Z"/><path class="cls-1" d="M3229.24,1779.58a6.89,6.89,0,1,0,8.52-4.72A6.9,6.9,0,0,0,3229.24,1779.58Z"/><path class="cls-1" d="M2185.19,1666a6.89,6.89,0,1,0,8.51-4.73A6.89,6.89,0,0,0,2185.19,1666Z"/><path class="cls-1" d="M1664.71,1419.35a6.89,6.89,0,1,0,8.52-4.73A6.89,6.89,0,0,0,1664.71,1419.35Z"/><path class="cls-1" d="M863.29,1670.15a10.05,10.05,0,1,0,12.43-6.9A10,10,0,0,0,863.29,1670.15Z"/><path class="cls-1" d="M689.59,1493.08a10.05,10.05,0,1,0-8.64-11.29A10.05,10.05,0,0,0,689.59,1493.08Z"/><path class="cls-1" d="M701.54,1786.91a6.89,6.89,0,1,0-5.92-7.74A6.88,6.88,0,0,0,701.54,1786.91Z"/><path class="cls-1" d="M371.78,1691.26a3.45,3.45,0,1,0-3-3.87A3.44,3.44,0,0,0,371.78,1691.26Z"/><path class="cls-1" d="M3,2587.63a3.45,3.45,0,1,0-3-3.87A3.45,3.45,0,0,0,3,2587.63Z"/><path class="cls-1" d="M1055.33,2611.34a2.53,2.53,0,1,0-2.17-2.84A2.52,2.52,0,0,0,1055.33,2611.34Z"/><path class="cls-1" d="M606.46,2659.61a2.53,2.53,0,1,0-2.17-2.84A2.54,2.54,0,0,0,606.46,2659.61Z"/><path class="cls-1" d="M151.34,1778.58a3.44,3.44,0,1,0-3-3.86A3.43,3.43,0,0,0,151.34,1778.58Z"/><circle class="cls-1" cx="791.09" cy="1404.53" r="3.44" transform="translate(-237.84 163.63) rotate(-10.27)"/><path class="cls-1" d="M1198.43,1621.34a3.45,3.45,0,1,0-3-3.87A3.45,3.45,0,0,0,1198.43,1621.34Z"/><path class="cls-1" d="M1149.28,1412.4a3.44,3.44,0,1,0-3-3.86A3.43,3.43,0,0,0,1149.28,1412.4Z"/><path class="cls-1" d="M707.42,1824.25a3.45,3.45,0,1,0-3-3.87A3.45,3.45,0,0,0,707.42,1824.25Z"/><path class="cls-1" d="M151.26,1448.48a3.45,3.45,0,1,0-3-3.87A3.44,3.44,0,0,0,151.26,1448.48Z"/><path class="cls-1" d="M109.35,1431.42a3.45,3.45,0,1,0-3-3.87A3.46,3.46,0,0,0,109.35,1431.42Z"/><path class="cls-1" d="M644.51,2024.29a3.45,3.45,0,1,0-3-3.87A3.44,3.44,0,0,0,644.51,2024.29Z"/><path class="cls-1" d="M630,1864.59a3.45,3.45,0,1,0-3-3.87A3.44,3.44,0,0,0,630,1864.59Z"/><path class="cls-1" d="M1170.15,1676.21a3.45,3.45,0,1,0-3-3.87A3.44,3.44,0,0,0,1170.15,1676.21Z"/><path class="cls-1" d="M1118.44,1591.76a3.45,3.45,0,1,0-3-3.87A3.44,3.44,0,0,0,1118.44,1591.76Z"/><path class="cls-1" d="M640.74,2506.07a3.44,3.44,0,1,0-3-3.86A3.44,3.44,0,0,0,640.74,2506.07Z"/><path class="cls-1" d="M625.36,2414.2a3.45,3.45,0,1,0-3-3.87A3.45,3.45,0,0,0,625.36,2414.2Z"/><path class="cls-1" d="M1016,2385.6a3.44,3.44,0,1,0-3-3.86A3.44,3.44,0,0,0,1016,2385.6Z"/><path class="cls-1" d="M928.32,2249.28a2.53,2.53,0,1,0-2.17-2.84A2.53,2.53,0,0,0,928.32,2249.28Z"/><path class="cls-1" d="M357.55,1930.82a3.44,3.44,0,1,0-3-3.87A3.44,3.44,0,0,0,357.55,1930.82Z"/><path class="cls-1" d="M327.9,2072.8a3.44,3.44,0,1,0-3-3.86A3.43,3.43,0,0,0,327.9,2072.8Z"/><path class="cls-1" d="M267.19,2450.3a3.45,3.45,0,1,0-2.95-3.87A3.45,3.45,0,0,0,267.19,2450.3Z"/><path class="cls-1" d="M273,2546.68a3.44,3.44,0,1,0-3-3.87A3.44,3.44,0,0,0,273,2546.68Z"/><path class="cls-1" d="M466.91,2094.8a3.45,3.45,0,1,0-3-3.87A3.45,3.45,0,0,0,466.91,2094.8Z"/><path class="cls-1" d="M10.54,2147.08a3.45,3.45,0,1,0-3-3.87A3.44,3.44,0,0,0,10.54,2147.08Z"/><path class="cls-1" d="M45.29,1912.32a3.45,3.45,0,1,0-3-3.87A3.45,3.45,0,0,0,45.29,1912.32Z"/><path class="cls-1" d="M1034.51,2578.63a2.53,2.53,0,1,0-2.17-2.84A2.53,2.53,0,0,0,1034.51,2578.63Z"/><path class="cls-1" d="M72.49,2118a6.89,6.89,0,1,0-5.91-7.74A6.89,6.89,0,0,0,72.49,2118Z"/><path class="cls-1" d="M570.66,2448.68a6.89,6.89,0,1,0-5.92-7.74A6.9,6.9,0,0,0,570.66,2448.68Z"/><path class="cls-1" d="M935.47,2725.94a5.05,5.05,0,1,0-4.34-5.67A5.05,5.05,0,0,0,935.47,2725.94Z"/><path class="cls-1" d="M1055.59,1909.46a6.89,6.89,0,1,0-5.92-7.74A6.88,6.88,0,0,0,1055.59,1909.46Z"/><path class="cls-1" d="M315.59,2060.91a6.89,6.89,0,1,0-5.92-7.74A6.88,6.88,0,0,0,315.59,2060.91Z"/><path class="cls-1" d="M755.48,1634.39a6.89,6.89,0,1,0-5.91-7.73A6.88,6.88,0,0,0,755.48,1634.39Z"/><path class="cls-1" d="M587.25,2185.22a6.89,6.89,0,1,0-5.92-7.74A6.89,6.89,0,0,0,587.25,2185.22Z"/><path class="cls-1" d="M3030.71,2707.15a10,10,0,1,0,8.64,11.29A10,10,0,0,0,3030.71,2707.15Z"/><circle class="cls-1" cx="2487.79" cy="2391.38" r="10.05" transform="translate(-716.48 3672.2) rotate(-65.66)"/><circle class="cls-1" cx="2476.26" cy="2094.42" r="6.89" transform="matrix(0.79, -0.61, 0.61, 0.79, -763.05, 1935.31)"/><path class="cls-1" d="M2806.93,2183.24a3.45,3.45,0,1,0,3,3.87A3.45,3.45,0,0,0,2806.93,2183.24Z"/><circle class="cls-1" cx="2002.93" cy="2701.5" r="3.44" transform="translate(-342.07 290.94) rotate(-7.66)"/><path class="cls-1" d="M3027.36,2095.92a3.45,3.45,0,1,0,3,3.87A3.45,3.45,0,0,0,3027.36,2095.92Z"/><path class="cls-1" d="M2388.07,2466.55a3.45,3.45,0,1,0,3,3.87A3.45,3.45,0,0,0,2388.07,2466.55Z"/><path class="cls-1" d="M1980.28,2253.16a3.45,3.45,0,1,0,3,3.87A3.44,3.44,0,0,0,1980.28,2253.16Z"/><circle class="cls-1" cx="2028.97" cy="2465.51" r="3.44" transform="translate(-406.81 400.94) rotate(-10.26)"/><path class="cls-1" d="M2471.29,2050.26a3.44,3.44,0,1,0,3,3.87A3.44,3.44,0,0,0,2471.29,2050.26Z"/><path class="cls-1" d="M2250.3,2815.2a3.45,3.45,0,1,0,3,3.87A3.44,3.44,0,0,0,2250.3,2815.2Z"/><path class="cls-1" d="M1968.76,2805.76a3.44,3.44,0,1,0,3,3.86A3.44,3.44,0,0,0,1968.76,2805.76Z"/><path class="cls-1" d="M2739.78,2635.17a3.44,3.44,0,1,0,3,3.87A3.44,3.44,0,0,0,2739.78,2635.17Z"/><path class="cls-1" d="M2289.74,2792.13a3.44,3.44,0,1,0,3,3.86A3.43,3.43,0,0,0,2289.74,2792.13Z"/><path class="cls-1" d="M3027.45,2426a3.44,3.44,0,1,0,3,3.86A3.44,3.44,0,0,0,3027.45,2426Z"/><path class="cls-1" d="M3069.36,2443.08a3.45,3.45,0,1,0,3,3.87A3.45,3.45,0,0,0,3069.36,2443.08Z"/><path class="cls-1" d="M2721,2828.16A3.44,3.44,0,1,0,2724,2832,3.43,3.43,0,0,0,2721,2828.16Z"/><path class="cls-1" d="M2534.2,1850.22a3.44,3.44,0,1,0,3,3.86A3.45,3.45,0,0,0,2534.2,1850.22Z"/><path class="cls-1" d="M2548.75,2009.91a3.45,3.45,0,1,0,3,3.87A3.44,3.44,0,0,0,2548.75,2009.91Z"/><path class="cls-1" d="M2008.55,2198.29a3.45,3.45,0,1,0,3,3.87A3.45,3.45,0,0,0,2008.55,2198.29Z"/><path class="cls-1" d="M2060.26,2282.74a3.45,3.45,0,1,0,3,3.87A3.44,3.44,0,0,0,2060.26,2282.74Z"/><path class="cls-1" d="M2538,1368.43a3.45,3.45,0,1,0,3,3.87A3.45,3.45,0,0,0,2538,1368.43Z"/><path class="cls-1" d="M2553.35,1460.3a3.45,3.45,0,1,0,3,3.87A3.44,3.44,0,0,0,2553.35,1460.3Z"/><path class="cls-1" d="M2162.76,1488.9a3.45,3.45,0,1,0,3,3.87A3.45,3.45,0,0,0,2162.76,1488.9Z"/><path class="cls-1" d="M2250.38,1625.22a2.53,2.53,0,1,0,2.17,2.84A2.52,2.52,0,0,0,2250.38,1625.22Z"/><path class="cls-1" d="M2821.15,1943.68a3.45,3.45,0,1,0,3,3.87A3.44,3.44,0,0,0,2821.15,1943.68Z"/><path class="cls-1" d="M2850.81,1801.7a3.45,3.45,0,1,0,3,3.87A3.44,3.44,0,0,0,2850.81,1801.7Z"/><path class="cls-1" d="M2911.51,1424.21a3.44,3.44,0,1,0,3,3.86A3.45,3.45,0,0,0,2911.51,1424.21Z"/><path class="cls-1" d="M2711.8,1779.71a3.44,3.44,0,1,0,2.95,3.87A3.44,3.44,0,0,0,2711.8,1779.71Z"/><path class="cls-1" d="M3168.16,1727.42a3.45,3.45,0,1,0,3,3.87A3.44,3.44,0,0,0,3168.16,1727.42Z"/><path class="cls-1" d="M3133.42,1962.18a3.45,3.45,0,1,0,3,3.87A3.45,3.45,0,0,0,3133.42,1962.18Z"/><path class="cls-1" d="M2992.43,2584.62a3.45,3.45,0,1,0,3,3.87A3.44,3.44,0,0,0,2992.43,2584.62Z"/><path class="cls-1" d="M2937.91,2691.31a3.45,3.45,0,1,0,3,3.87A3.46,3.46,0,0,0,2937.91,2691.31Z"/><path class="cls-1" d="M3106.21,1756.49a6.89,6.89,0,1,0,5.92,7.74A6.88,6.88,0,0,0,3106.21,1756.49Z"/><path class="cls-1" d="M2608.05,1425.82a6.89,6.89,0,1,0,5.92,7.74A6.89,6.89,0,0,0,2608.05,1425.82Z"/><path class="cls-1" d="M2123.12,1965.05a6.89,6.89,0,1,0,5.92,7.73A6.88,6.88,0,0,0,2123.12,1965.05Z"/><path class="cls-1" d="M2863.12,1813.59a6.89,6.89,0,1,0,5.92,7.74A6.89,6.89,0,0,0,2863.12,1813.59Z"/><path class="cls-1" d="M1952,2616.77a6.89,6.89,0,1,0,5.91,7.74A6.89,6.89,0,0,0,1952,2616.77Z"/><circle class="cls-1" cx="2359.05" cy="2826.22" r="6.89" transform="translate(-811.23 4697.56) rotate(-80.7)"/><circle class="cls-1" cx="2422.31" cy="2246.94" r="6.89" transform="translate(-866.81 1933.91) rotate(-37.41)"/><path class="cls-1" d="M2591.46,1689.28a6.89,6.89,0,1,0,5.91,7.74A6.89,6.89,0,0,0,2591.46,1689.28Z"/></g><g id="stars-2" data-name="stars"><path class="cls-1" d="M329.42,230.09A10.05,10.05,0,1,1,319.37,220,10.05,10.05,0,0,1,329.42,230.09Z"/><path class="cls-1" d="M611.53,331.56a10,10,0,1,1-10-10.05A10.05,10.05,0,0,1,611.53,331.56Z"/><path class="cls-1" d="M1025.73,136a10,10,0,1,1-10.05-10A10.05,10.05,0,0,1,1025.73,136Z"/><path class="cls-1" d="M206.69,876.42a10.05,10.05,0,1,1-10.05-10A10.05,10.05,0,0,1,206.69,876.42Z"/><path class="cls-1" d="M1277.09,715.87a10,10,0,1,1-10-10A10.05,10.05,0,0,1,1277.09,715.87Z"/><circle class="cls-1" cx="1559.88" cy="766.51" r="6.89"/><path class="cls-1" d="M1515.5,427a3.45,3.45,0,1,1-3.44-3.44A3.44,3.44,0,0,1,1515.5,427Z"/><circle class="cls-1" cx="2449.27" cy="179.81" r="3.44"/><path class="cls-1" d="M2337.27,1226.06a2.53,2.53,0,1,1-2.52-2.53A2.52,2.52,0,0,1,2337.27,1226.06Z"/><path class="cls-1" d="M2444.38,787.5a2.53,2.53,0,1,1-2.52-2.53A2.52,2.52,0,0,1,2444.38,787.5Z"/><path class="cls-1" d="M3122.44,193.58a3.45,3.45,0,1,1-3.45-3.44A3.46,3.46,0,0,1,3122.44,193.58Z"/><path class="cls-1" d="M2953.86,321.51a3.45,3.45,0,1,1-3.45-3.45A3.44,3.44,0,0,1,2953.86,321.51Z"/><circle class="cls-1" cx="895.62" cy="1155.54" r="3.44"/><path class="cls-1" d="M1631.17,220a3.45,3.45,0,1,1-3.45-3.45A3.45,3.45,0,0,1,1631.17,220Z"/><path class="cls-1" d="M1179.36,804.79a3.45,3.45,0,1,1-3.44-3.44A3.44,3.44,0,0,1,1179.36,804.79Z"/><path class="cls-1" d="M1337,1237.19a3.44,3.44,0,1,1-3.44-3.44A3.45,3.45,0,0,1,1337,1237.19Z"/><path class="cls-1" d="M1136.43,1160.89a3.45,3.45,0,1,1-3.45-3.44A3.45,3.45,0,0,1,1136.43,1160.89Z"/><path class="cls-1" d="M1603,777.27a3.44,3.44,0,1,1-3.44-3.44A3.45,3.45,0,0,1,1603,777.27Z"/><path class="cls-1" d="M610.93,1074.26a3.45,3.45,0,1,1-3.44-3.44A3.44,3.44,0,0,1,610.93,1074.26Z"/><path class="cls-1" d="M815.57,895.32a3.44,3.44,0,1,1-3.44-3.44A3.44,3.44,0,0,1,815.57,895.32Z"/><path class="cls-1" d="M787.76,1175.65a3.44,3.44,0,1,1-3.44-3.44A3.44,3.44,0,0,1,787.76,1175.65Z"/><path class="cls-1" d="M1058.67,433.9a3.45,3.45,0,1,1-3.45-3.45A3.45,3.45,0,0,1,1058.67,433.9Z"/><circle class="cls-1" cx="421.67" cy="1212.08" r="3.44"/><path class="cls-1" d="M228.66,661.28a3.45,3.45,0,1,1-3.45-3.45A3.44,3.44,0,0,1,228.66,661.28Z"/><path class="cls-1" d="M352.67,537.44a3.45,3.45,0,1,1-3.44-3.44A3.44,3.44,0,0,1,352.67,537.44Z"/><path class="cls-1" d="M560.88,1106.24a3.45,3.45,0,1,1-3.44-3.44A3.44,3.44,0,0,1,560.88,1106.24Z"/><path class="cls-1" d="M843.66,859.28a3.45,3.45,0,1,1-3.45-3.45A3.44,3.44,0,0,1,843.66,859.28Z"/><path class="cls-1" d="M678.57,442.72a3.45,3.45,0,1,1-3.45-3.44A3.44,3.44,0,0,1,678.57,442.72Z"/><path class="cls-1" d="M1304,176.36a3.45,3.45,0,1,1-3.44-3.44A3.44,3.44,0,0,1,1304,176.36Z"/><circle class="cls-1" cx="1289.14" cy="132.57" r="3.44"/><path class="cls-1" d="M760.18,1063.42a3.45,3.45,0,1,1-3.45-3.45A3.45,3.45,0,0,1,760.18,1063.42Z"/><path class="cls-1" d="M658.51,403.63a3.45,3.45,0,1,1-3.44-3.45A3.44,3.44,0,0,1,658.51,403.63Z"/><path class="cls-1" d="M864.89,427a3.45,3.45,0,1,1-3.44-3.44A3.44,3.44,0,0,1,864.89,427Z"/><circle class="cls-1" cx="1806.16" cy="741.32" r="3.44"/><path class="cls-1" d="M1653.22,705.82a3.44,3.44,0,1,1-3.44-3.44A3.44,3.44,0,0,1,1653.22,705.82Z"/><path class="cls-1" d="M1395.17,1216.41a3.45,3.45,0,1,1-3.45-3.44A3.44,3.44,0,0,1,1395.17,1216.41Z"/><path class="cls-1" d="M1318.28,1154a3.44,3.44,0,1,1-3.44-3.44A3.45,3.45,0,0,1,1318.28,1154Z"/><path class="cls-1" d="M2287.67,801.2a3.45,3.45,0,1,1-3.45-3.44A3.46,3.46,0,0,1,2287.67,801.2Z"/><path class="cls-1" d="M2198.63,773.83a3.45,3.45,0,1,1-3.45-3.45A3.44,3.44,0,0,1,2198.63,773.83Z"/><path class="cls-1" d="M2118.71,1157.22a3.45,3.45,0,1,1-3.44-3.44A3.44,3.44,0,0,1,2118.71,1157.22Z"/><path class="cls-1" d="M2612.43,1133.64a3.45,3.45,0,1,1-3.45-3.44A3.45,3.45,0,0,1,2612.43,1133.64Z"/><path class="cls-1" d="M2572.08,1229.51a3.45,3.45,0,1,1-3.44-3.45A3.44,3.44,0,0,1,2572.08,1229.51Z"/><path class="cls-1" d="M2988.54,1108.05a2.53,2.53,0,1,1-2.53-2.53A2.52,2.52,0,0,1,2988.54,1108.05Z"/><path class="cls-1" d="M3266.33,1076.61a3.45,3.45,0,1,1-3.45-3.44A3.45,3.45,0,0,1,3266.33,1076.61Z"/><path class="cls-1" d="M1995.15,1052.36a2.53,2.53,0,1,1-2.53-2.52A2.53,2.53,0,0,1,1995.15,1052.36Z"/><path class="cls-1" d="M1754.84,444.54a3.44,3.44,0,1,1-3.44-3.44A3.45,3.45,0,0,1,1754.84,444.54Z"/><path class="cls-1" d="M1899.5,433.9a3.45,3.45,0,1,1-3.45-3.45A3.44,3.44,0,0,1,1899.5,433.9Z"/><path class="cls-1" d="M2281.7,423.57a3.45,3.45,0,1,1-3.44-3.45A3.44,3.44,0,0,1,2281.7,423.57Z"/><path class="cls-1" d="M2376.47,442.07a3.44,3.44,0,1,1-3.44-3.44A3.44,3.44,0,0,1,2376.47,442.07Z"/><path class="cls-1" d="M1902.94,574.59a3.45,3.45,0,1,1-3.44-3.44A3.44,3.44,0,0,1,1902.94,574.59Z"/><path class="cls-1" d="M2015,129.13a3.45,3.45,0,1,1-3.45-3.45A3.45,3.45,0,0,1,2015,129.13Z"/><path class="cls-1" d="M1777.73,132.57a3.44,3.44,0,1,1-3.44-3.44A3.44,3.44,0,0,1,1777.73,132.57Z"/><circle class="cls-1" cx="1138.68" cy="190.14" r="3.44"/><circle class="cls-1" cx="1025.73" cy="230.09" r="3.44"/><path class="cls-1" d="M716.9,136a3.45,3.45,0,1,1-3.45-3.44A3.45,3.45,0,0,1,716.9,136Z"/><path class="cls-1" d="M767.27,250.19a3.45,3.45,0,1,1-3.45-3.44A3.45,3.45,0,0,1,767.27,250.19Z"/><path class="cls-1" d="M640.75,226.65a3.44,3.44,0,1,1-3.44-3.45A3.44,3.44,0,0,1,640.75,226.65Z"/><path class="cls-1" d="M449.35,146.06a3.45,3.45,0,1,1-3.45-3.44A3.45,3.45,0,0,1,449.35,146.06Z"/><path class="cls-1" d="M386.5,568.87a3.45,3.45,0,1,1-3.45-3.44A3.45,3.45,0,0,1,386.5,568.87Z"/><path class="cls-1" d="M232.1,1035.41a3.45,3.45,0,1,1-3.44-3.44A3.45,3.45,0,0,1,232.1,1035.41Z"/><path class="cls-1" d="M2307.59,1201.11a2.53,2.53,0,1,1-2.53-2.52A2.53,2.53,0,0,1,2307.59,1201.11Z"/><path class="cls-1" d="M1978,186.7a6.89,6.89,0,1,1-6.89-6.89A6.88,6.88,0,0,1,1978,186.7Z"/><path class="cls-1" d="M2240,724.16a6.89,6.89,0,1,1-6.89-6.89A6.89,6.89,0,0,1,2240,724.16Z"/><circle class="cls-1" cx="2461.64" cy="1122.39" r="5.05"/><circle class="cls-1" cx="3287.91" cy="1162.03" r="5.05"/><path class="cls-1" d="M2797,432.39a6.89,6.89,0,1,1-6.88-6.88A6.88,6.88,0,0,1,2797,432.39Z"/><path class="cls-1" d="M1641.5,1133.64a6.89,6.89,0,1,1-6.89-6.88A6.89,6.89,0,0,1,1641.5,1133.64Z"/><circle class="cls-1" cx="1882.45" cy="420.12" r="6.89"/><path class="cls-1" d="M972.88,1217.19a6.89,6.89,0,1,1-6.89-6.89A6.88,6.88,0,0,1,972.88,1217.19Z"/><path class="cls-1" d="M825.91,786.07a6.89,6.89,0,1,1-6.89-6.88A6.89,6.89,0,0,1,825.91,786.07Z"/><path class="cls-1" d="M373.4,622.08a6.89,6.89,0,1,1-6.89-6.89A6.88,6.88,0,0,1,373.4,622.08Z"/><circle class="cls-1" cx="1401.58" cy="799.85" r="6.89"/><path class="cls-1" d="M1976.68,705.82a6.89,6.89,0,1,1-6.88-6.89A6.89,6.89,0,0,1,1976.68,705.82Z"/><path class="cls-1" d="M2800.18,240.14a10.06,10.06,0,1,1-10-10A10.05,10.05,0,0,1,2800.18,240.14Z"/><path class="cls-1" d="M2678.28,1167.27a10.05,10.05,0,1,1-10.05-10A10.05,10.05,0,0,1,2678.28,1167.27Z"/><path class="cls-1" d="M3379.29,1457.12a10.05,10.05,0,1,1,12.43,6.9A10.06,10.06,0,0,1,3379.29,1457.12Z"/><path class="cls-1" d="M3080.15,1437.12a10.05,10.05,0,1,1,12.43,6.9A10.06,10.06,0,0,1,3080.15,1437.12Z"/><path class="cls-1" d="M3319.61,802a10.05,10.05,0,1,1,12.43,6.9A10.06,10.06,0,0,1,3319.61,802Z"/><path class="cls-1" d="M2334.59,1250.58a10.05,10.05,0,1,1,12.42,6.9A10,10,0,0,1,2334.59,1250.58Z"/><circle class="cls-1" cx="2048.77" cy="1279.63" r="6.89" transform="translate(582.36 3199.15) rotate(-84.61)"/><path class="cls-1" d="M1175,1051.5a2.53,2.53,0,1,1,3.12,1.73A2.54,2.54,0,0,1,1175,1051.5Z"/><path class="cls-1" d="M1192.58,1502.61a2.53,2.53,0,1,1,3.13,1.74A2.52,2.52,0,0,1,1192.58,1502.61Z"/><path class="cls-1" d="M2577.18,723.93a3.45,3.45,0,1,1,4.26,2.36A3.45,3.45,0,0,1,2577.18,723.93Z"/><path class="cls-1" d="M2404.11,1138.22a3.44,3.44,0,1,1,4.25,2.36A3.44,3.44,0,0,1,2404.11,1138.22Z"/><path class="cls-1" d="M2133.63,765.83a3.44,3.44,0,1,1,4.26,2.36A3.45,3.45,0,0,1,2133.63,765.83Z"/><path class="cls-1" d="M2347.5,784a3.44,3.44,0,1,1,4.25,2.36A3.44,3.44,0,0,1,2347.5,784Z"/><path class="cls-1" d="M2004.35,1281.14a3.45,3.45,0,1,1,4.26,2.36A3.45,3.45,0,0,1,2004.35,1281.14Z"/><path class="cls-1" d="M2876.56,722.86a3.44,3.44,0,1,1,4.26,2.37A3.46,3.46,0,0,1,2876.56,722.86Z"/><path class="cls-1" d="M2729,951.17a3.44,3.44,0,1,1,4.26,2.37A3.45,3.45,0,0,1,2729,951.17Z"/><path class="cls-1" d="M2678.67,674a3.44,3.44,0,1,1,4.25,2.36A3.44,3.44,0,0,1,2678.67,674Z"/><path class="cls-1" d="M2622.12,1461.64a3.44,3.44,0,1,1,4.25,2.37A3.44,3.44,0,0,1,2622.12,1461.64Z"/><path class="cls-1" d="M3017.33,539.28a3.44,3.44,0,1,1,4.26,2.36A3.44,3.44,0,0,1,3017.33,539.28Z"/><path class="cls-1" d="M3357.64,1014.85a3.44,3.44,0,1,1,4.25,2.36A3.44,3.44,0,0,1,3357.64,1014.85Z"/><path class="cls-1" d="M3272.44,1168a3.45,3.45,0,1,1,4.26,2.37A3.45,3.45,0,0,1,3272.44,1168Z"/><path class="cls-1" d="M2915.89,678.36a3.44,3.44,0,1,1,4.26,2.36A3.44,3.44,0,0,1,2915.89,678.36Z"/><path class="cls-1" d="M2711.9,993.55a3.44,3.44,0,1,1,4.26,2.36A3.44,3.44,0,0,1,2711.9,993.55Z"/><path class="cls-1" d="M2985.14,1348.66a3.44,3.44,0,1,1,4.26,2.37A3.44,3.44,0,0,1,2985.14,1348.66Z"/><path class="cls-1" d="M2736,774.32a3.45,3.45,0,1,1,4.26,2.36A3.45,3.45,0,0,1,2736,774.32Z"/><path class="cls-1" d="M3015.17,1380.74a3.45,3.45,0,1,1,4.26,2.37A3.45,3.45,0,0,1,3015.17,1380.74Z"/><path class="cls-1" d="M2810.32,1415a3.44,3.44,0,1,1,4.26,2.37A3.44,3.44,0,0,1,2810.32,1415Z"/><path class="cls-1" d="M1815.6,1372.5a3.44,3.44,0,1,1,4.26,2.36A3.45,3.45,0,0,1,1815.6,1372.5Z"/><path class="cls-1" d="M1975.71,1363.64A3.44,3.44,0,1,1,1980,1366,3.44,3.44,0,0,1,1975.71,1363.64Z"/><path class="cls-1" d="M2083.46,801.78a3.44,3.44,0,1,1,4.26,2.37A3.44,3.44,0,0,1,2083.46,801.78Z"/><path class="cls-1" d="M2174.54,840.65a3.44,3.44,0,1,1,4.26,2.37A3.44,3.44,0,0,1,2174.54,840.65Z"/><path class="cls-1" d="M1339.49,1446.35a3.44,3.44,0,1,1,4.26,2.37A3.45,3.45,0,0,1,1339.49,1446.35Z"/><path class="cls-1" d="M1432.62,1448.19a3.45,3.45,0,1,1,4.26,2.37A3.45,3.45,0,0,1,1432.62,1448.19Z"/><path class="cls-1" d="M1404.07,1057.6a3.44,3.44,0,1,1,4.26,2.37A3.44,3.44,0,0,1,1404.07,1057.6Z"/><path class="cls-1" d="M935.86,1216a3.44,3.44,0,1,1,4.25,2.36A3.44,3.44,0,0,1,935.86,1216Z"/><path class="cls-1" d="M948.29,1112.74a3.45,3.45,0,1,1,4.26,2.36A3.45,3.45,0,0,1,948.29,1112.74Z"/><path class="cls-1" d="M581.27,1344a2.53,2.53,0,1,1,3.12,1.74A2.52,2.52,0,0,1,581.27,1344Z"/><path class="cls-1" d="M322.83,1450.59a3.44,3.44,0,1,1,4.25,2.37A3.44,3.44,0,0,1,322.83,1450.59Z"/><path class="cls-1" d="M1551.69,1124.45a2.53,2.53,0,1,1,3.13,1.73A2.53,2.53,0,0,1,1551.69,1124.45Z"/><path class="cls-1" d="M3231.28,1147.09a3.45,3.45,0,1,1,4.26,2.36A3.45,3.45,0,0,1,3231.28,1147.09Z"/><path class="cls-1" d="M3251.47,656.07a3.44,3.44,0,1,1,4.26,2.37A3.44,3.44,0,0,1,3251.47,656.07Z"/><path class="cls-1" d="M1210.4,1067.33a2.53,2.53,0,1,1,3.12,1.73A2.53,2.53,0,0,1,1210.4,1067.33Z"/><path class="cls-1" d="M1406.47,1507.33a6.89,6.89,0,1,1,8.52,4.73A6.9,6.9,0,0,1,1406.47,1507.33Z"/><path class="cls-1" d="M1079.07,1186.75a5,5,0,1,1,6.24,3.47A5,5,0,0,1,1079.07,1186.75Z"/><path class="cls-1" d="M273.74,1375.79a5.05,5.05,0,1,1,6.25,3.47A5.06,5.06,0,0,1,273.74,1375.79Z"/><path class="cls-1" d="M1869.38,949.08a6.89,6.89,0,1,1,8.51,4.73A6.88,6.88,0,0,1,1869.38,949.08Z"/><path class="cls-1" d="M2489.26,685a6.89,6.89,0,1,1,8.52,4.73A6.9,6.9,0,0,1,2489.26,685Z"/><path class="cls-1" d="M2749.09,1059.05a6.89,6.89,0,1,1,8.52,4.73A6.9,6.9,0,0,1,2749.09,1059.05Z"/><path class="cls-1" d="M3229.24,1092.33a6.89,6.89,0,1,1,8.52,4.73A6.9,6.9,0,0,1,3229.24,1092.33Z"/><path class="cls-1" d="M2185.19,1206a6.88,6.88,0,1,1,8.51,4.73A6.88,6.88,0,0,1,2185.19,1206Z"/><path class="cls-1" d="M1664.71,1452.57a6.89,6.89,0,1,1,8.52,4.72A6.9,6.9,0,0,1,1664.71,1452.57Z"/><path class="cls-1" d="M863.29,1201.77a10.05,10.05,0,1,1,12.43,6.9A10.06,10.06,0,0,1,863.29,1201.77Z"/><path class="cls-1" d="M689.59,1378.83a10.05,10.05,0,1,1-8.64,11.29A10.06,10.06,0,0,1,689.59,1378.83Z"/><path class="cls-1" d="M701.54,1085a6.88,6.88,0,1,1-5.92,7.73A6.87,6.87,0,0,1,701.54,1085Z"/><path class="cls-1" d="M371.78,1180.66a3.44,3.44,0,1,1-3,3.86A3.43,3.43,0,0,1,371.78,1180.66Z"/><path class="cls-1" d="M3,284.29a3.44,3.44,0,1,1-3,3.86A3.44,3.44,0,0,1,3,284.29Z"/><path class="cls-1" d="M1055.33,260.57a2.53,2.53,0,1,1-2.17,2.84A2.52,2.52,0,0,1,1055.33,260.57Z"/><path class="cls-1" d="M606.46,212.31a2.53,2.53,0,1,1-2.17,2.83A2.52,2.52,0,0,1,606.46,212.31Z"/><path class="cls-1" d="M151.34,1093.33a3.45,3.45,0,1,1-3,3.87A3.44,3.44,0,0,1,151.34,1093.33Z"/><circle class="cls-1" cx="791.09" cy="1467.38" r="3.44" transform="translate(-793.86 1984.06) rotate(-79.73)"/><path class="cls-1" d="M1198.43,1250.57a3.45,3.45,0,1,1-3,3.87A3.46,3.46,0,0,1,1198.43,1250.57Z"/><path class="cls-1" d="M1149.28,1459.51a3.45,3.45,0,1,1-3,3.87A3.44,3.44,0,0,1,1149.28,1459.51Z"/><path class="cls-1" d="M707.42,1047.67a3.45,3.45,0,1,1-3,3.87A3.45,3.45,0,0,1,707.42,1047.67Z"/><path class="cls-1" d="M151.26,1423.44a3.45,3.45,0,1,1-3,3.87A3.44,3.44,0,0,1,151.26,1423.44Z"/><path class="cls-1" d="M109.35,1440.5a3.44,3.44,0,1,1-3,3.86A3.45,3.45,0,0,1,109.35,1440.5Z"/><path class="cls-1" d="M644.51,847.63a3.45,3.45,0,1,1-3,3.87A3.44,3.44,0,0,1,644.51,847.63Z"/><path class="cls-1" d="M630,1007.32a3.45,3.45,0,1,1-3,3.87A3.45,3.45,0,0,1,630,1007.32Z"/><path class="cls-1" d="M1170.15,1195.7a3.45,3.45,0,1,1-3,3.87A3.45,3.45,0,0,1,1170.15,1195.7Z"/><path class="cls-1" d="M1118.44,1280.15a3.45,3.45,0,1,1-3,3.87A3.45,3.45,0,0,1,1118.44,1280.15Z"/><path class="cls-1" d="M640.74,365.84a3.45,3.45,0,1,1-3,3.87A3.44,3.44,0,0,1,640.74,365.84Z"/><path class="cls-1" d="M625.36,457.71a3.45,3.45,0,1,1-3,3.87A3.45,3.45,0,0,1,625.36,457.71Z"/><path class="cls-1" d="M1016,486.31a3.45,3.45,0,1,1-3,3.87A3.45,3.45,0,0,1,1016,486.31Z"/><path class="cls-1" d="M927.39,0a3.45,3.45,0,1,1-3,3.87A3.44,3.44,0,0,1,927.39,0Z"/><path class="cls-1" d="M1027.74,27.37a3.44,3.44,0,1,1-3,3.86A3.44,3.44,0,0,1,1027.74,27.37Z"/><path class="cls-1" d="M928.32,622.64a2.52,2.52,0,1,1-2.17,2.83A2.51,2.51,0,0,1,928.32,622.64Z"/><path class="cls-1" d="M357.55,941.09a3.45,3.45,0,1,1-3,3.87A3.45,3.45,0,0,1,357.55,941.09Z"/><path class="cls-1" d="M327.9,799.11a3.45,3.45,0,1,1-3,3.87A3.44,3.44,0,0,1,327.9,799.11Z"/><path class="cls-1" d="M267.19,421.62a3.45,3.45,0,1,1-2.95,3.87A3.44,3.44,0,0,1,267.19,421.62Z"/><path class="cls-1" d="M273,325.23a3.45,3.45,0,1,1-3,3.87A3.45,3.45,0,0,1,273,325.23Z"/><path class="cls-1" d="M466.91,777.12a3.45,3.45,0,1,1-3,3.87A3.44,3.44,0,0,1,466.91,777.12Z"/><path class="cls-1" d="M10.54,724.83a3.45,3.45,0,1,1-3,3.87A3.45,3.45,0,0,1,10.54,724.83Z"/><path class="cls-1" d="M45.29,959.6a3.44,3.44,0,1,1-3,3.86A3.44,3.44,0,0,1,45.29,959.6Z"/><path class="cls-1" d="M1034.51,293.29a2.53,2.53,0,1,1-2.17,2.84A2.52,2.52,0,0,1,1034.51,293.29Z"/><path class="cls-1" d="M72.49,753.91a6.89,6.89,0,1,1-5.91,7.73A6.88,6.88,0,0,1,72.49,753.91Z"/><path class="cls-1" d="M570.66,423.23a6.89,6.89,0,1,1-5.92,7.74A6.9,6.9,0,0,1,570.66,423.23Z"/><path class="cls-1" d="M935.47,146a5.05,5.05,0,1,1-4.34,5.68A5.07,5.07,0,0,1,935.47,146Z"/><path class="cls-1" d="M1055.59,962.46a6.89,6.89,0,1,1-5.92,7.74A6.88,6.88,0,0,1,1055.59,962.46Z"/><path class="cls-1" d="M315.59,811a6.89,6.89,0,1,1-5.92,7.74A6.88,6.88,0,0,1,315.59,811Z"/><path class="cls-1" d="M755.48,1237.52a6.89,6.89,0,1,1-5.91,7.74A6.89,6.89,0,0,1,755.48,1237.52Z"/><path class="cls-1" d="M587.25,686.7a6.89,6.89,0,1,1-5.92,7.73A6.88,6.88,0,0,1,587.25,686.7Z"/><path class="cls-1" d="M3030.71,164.77a10.05,10.05,0,1,1,8.64-11.29A10.06,10.06,0,0,1,3030.71,164.77Z"/><circle class="cls-1" cx="2487.79" cy="480.53" r="10.05" transform="translate(23.12 1068.24) rotate(-24.34)"/><circle class="cls-1" cx="2476.26" cy="777.49" r="6.89" transform="translate(354.26 2271.98) rotate(-52.59)"/><path class="cls-1" d="M2806.93,688.67a3.45,3.45,0,1,1,3-3.87A3.45,3.45,0,0,1,2806.93,688.67Z"/><circle class="cls-1" cx="2002.93" cy="170.41" r="3.44" transform="translate(1567.18 2132.78) rotate(-82.34)"/><path class="cls-1" d="M3027.36,776a3.45,3.45,0,1,1,3-3.87A3.46,3.46,0,0,1,3027.36,776Z"/><path class="cls-1" d="M2388.07,405.36a3.45,3.45,0,1,1,3-3.87A3.45,3.45,0,0,1,2388.07,405.36Z"/><path class="cls-1" d="M1980.28,618.75a3.44,3.44,0,1,1,3-3.86A3.43,3.43,0,0,1,1980.28,618.75Z"/><circle class="cls-1" cx="2028.97" cy="406.4" r="3.44" transform="translate(1267.58 2330.5) rotate(-79.74)"/><path class="cls-1" d="M2471.29,821.66a3.45,3.45,0,1,1,3-3.87A3.45,3.45,0,0,1,2471.29,821.66Z"/><path class="cls-1" d="M2250.3,56.71a3.45,3.45,0,1,1,3-3.87A3.44,3.44,0,0,1,2250.3,56.71Z"/><path class="cls-1" d="M1968.76,66.16a3.45,3.45,0,1,1,3-3.87A3.45,3.45,0,0,1,1968.76,66.16Z"/><path class="cls-1" d="M2739.78,236.75a3.45,3.45,0,1,1,3-3.87A3.44,3.44,0,0,1,2739.78,236.75Z"/><path class="cls-1" d="M2289.74,79.79a3.45,3.45,0,1,1,3-3.87A3.44,3.44,0,0,1,2289.74,79.79Z"/><path class="cls-1" d="M3027.45,445.89a3.45,3.45,0,1,1,3-3.87A3.45,3.45,0,0,1,3027.45,445.89Z"/><path class="cls-1" d="M3069.36,428.83a3.45,3.45,0,1,1,3-3.87A3.44,3.44,0,0,1,3069.36,428.83Z"/><path class="cls-1" d="M2076.36,24a3.44,3.44,0,1,1,3-3.87A3.44,3.44,0,0,1,2076.36,24Z"/><path class="cls-1" d="M2721,43.76a3.45,3.45,0,1,1,2.95-3.87A3.44,3.44,0,0,1,2721,43.76Z"/><path class="cls-1" d="M2534.2,1021.7a3.45,3.45,0,1,1,3-3.87A3.45,3.45,0,0,1,2534.2,1021.7Z"/><path class="cls-1" d="M2548.75,862a3.44,3.44,0,1,1,3-3.86A3.43,3.43,0,0,1,2548.75,862Z"/><path class="cls-1" d="M2008.55,673.62a3.44,3.44,0,1,1,3-3.86A3.44,3.44,0,0,1,2008.55,673.62Z"/><path class="cls-1" d="M2060.26,589.17a3.44,3.44,0,1,1,3-3.86A3.43,3.43,0,0,1,2060.26,589.17Z"/><path class="cls-1" d="M2538,1503.49a3.45,3.45,0,1,1,3-3.87A3.45,3.45,0,0,1,2538,1503.49Z"/><path class="cls-1" d="M2553.35,1411.61a3.44,3.44,0,1,1,3-3.87A3.44,3.44,0,0,1,2553.35,1411.61Z"/><path class="cls-1" d="M2162.76,1383a3.45,3.45,0,1,1,3-3.87A3.45,3.45,0,0,1,2162.76,1383Z"/><path class="cls-1" d="M2250.38,1246.69a2.53,2.53,0,1,1,2.17-2.84A2.52,2.52,0,0,1,2250.38,1246.69Z"/><path class="cls-1" d="M2821.15,928.24a3.45,3.45,0,1,1,3-3.87A3.44,3.44,0,0,1,2821.15,928.24Z"/><path class="cls-1" d="M2850.81,1070.22a3.45,3.45,0,1,1,3-3.87A3.45,3.45,0,0,1,2850.81,1070.22Z"/><path class="cls-1" d="M2911.51,1447.71a3.45,3.45,0,1,1,3-3.87A3.46,3.46,0,0,1,2911.51,1447.71Z"/><path class="cls-1" d="M2711.8,1092.21a3.45,3.45,0,1,1,2.95-3.87A3.45,3.45,0,0,1,2711.8,1092.21Z"/><path class="cls-1" d="M3168.16,1144.49a3.44,3.44,0,1,1,3-3.87A3.44,3.44,0,0,1,3168.16,1144.49Z"/><path class="cls-1" d="M3133.42,909.73a3.45,3.45,0,1,1,3-3.87A3.44,3.44,0,0,1,3133.42,909.73Z"/><path class="cls-1" d="M2992.43,287.29a3.44,3.44,0,1,1,3-3.86A3.44,3.44,0,0,1,2992.43,287.29Z"/><path class="cls-1" d="M2937.91,180.6a3.44,3.44,0,1,1,3-3.87A3.45,3.45,0,0,1,2937.91,180.6Z"/><path class="cls-1" d="M3106.21,1115.42a6.89,6.89,0,1,1,5.92-7.74A6.88,6.88,0,0,1,3106.21,1115.42Z"/><path class="cls-1" d="M2608.05,1446.09a6.89,6.89,0,1,1,5.92-7.73A6.88,6.88,0,0,1,2608.05,1446.09Z"/><path class="cls-1" d="M2123.12,906.87a6.89,6.89,0,1,1,5.92-7.74A6.9,6.9,0,0,1,2123.12,906.87Z"/><path class="cls-1" d="M2863.12,1058.32a6.89,6.89,0,1,1,5.92-7.73A6.88,6.88,0,0,1,2863.12,1058.32Z"/><path class="cls-1" d="M1952,255.14a6.89,6.89,0,1,1,5.91-7.74A6.89,6.89,0,0,1,1952,255.14Z"/><circle class="cls-1" cx="2359.05" cy="45.7" r="6.89" transform="translate(23.62 381.81) rotate(-9.3)"/><circle class="cls-1" cx="2422.31" cy="624.98" r="6.89" transform="translate(454.23 2169.27) rotate(-52.59)"/><path class="cls-1" d="M2591.46,1182.63a6.89,6.89,0,1,1,5.91-7.74A6.89,6.89,0,0,1,2591.46,1182.63Z"/></g></g></g></g></svg>