<svg xmlns="http://www.w3.org/2000/svg" viewBox="0 0 1081.62 5032.91"><defs><style>.cls-1{fill:#fff;}</style></defs><title>stars-fin</title><g id="Слой_2" data-name="Слой 2"><g id="Слой_1-2" data-name="Слой 1"><path class="cls-1" d="M206.88,4161.41a7.1,7.1,0,1,1-10,1A7.12,7.12,0,0,1,206.88,4161.41Z"/><circle class="cls-1" cx="360.73" cy="4029.16" r="4.86"/><path class="cls-1" d="M155.05,3902a2.43,2.43,0,1,1-3.42.35A2.44,2.44,0,0,1,155.05,3902Z"/><path class="cls-1" d="M959.09,3808.5a1.78,1.78,0,1,1-2.51.25A1.78,1.78,0,0,1,959.09,3808.5Z"/><path class="cls-1" d="M766.74,3554.24a1.78,1.78,0,1,1-2.51.25A1.78,1.78,0,0,1,766.74,3554.24Z"/><circle class="cls-1" cx="277.46" cy="4566.38" r="2.43"/><path class="cls-1" d="M93.32,3746.39a2.43,2.43,0,1,1-3.42.35A2.43,2.43,0,0,1,93.32,3746.39Z"/><path class="cls-1" d="M212,4254.58a2.43,2.43,0,1,1-3.42.35A2.43,2.43,0,0,1,212,4254.58Z"/><path class="cls-1" d="M519.05,4361.11a2.43,2.43,0,1,1-3.42.35A2.43,2.43,0,0,1,519.05,4361.11Z"/><path class="cls-1" d="M387.79,4436.92a2.43,2.43,0,1,1-3.42.35A2.43,2.43,0,0,1,387.79,4436.92Z"/><path class="cls-1" d="M385.86,4010.35a2.43,2.43,0,1,1-3.42.35A2.43,2.43,0,0,1,385.86,4010.35Z"/><path class="cls-1" d="M106,4686a2.43,2.43,0,1,1-3.42.35A2.42,2.42,0,0,1,106,4686Z"/><path class="cls-1" d="M99.28,4494.14a2.43,2.43,0,1,1-3.43.35A2.44,2.44,0,0,1,99.28,4494.14Z"/><path class="cls-1" d="M240.36,4634.4a2.43,2.43,0,1,1-3.42.35A2.43,2.43,0,0,1,240.36,4634.4Z"/><circle class="cls-1" cx="97.02" cy="4851.1" r="2.43" transform="translate(-3725.33 1862.42) rotate(-50.83)"/><path class="cls-1" d="M101.16,4727.67a2.43,2.43,0,1,1-3.42.35A2.43,2.43,0,0,1,101.16,4727.67Z"/><path class="cls-1" d="M92.07,4462.69a2.43,2.43,0,1,1-3.42.35A2.43,2.43,0,0,1,92.07,4462.69Z"/><path class="cls-1" d="M166.6,4599.45a2.43,2.43,0,1,1-3.42.35A2.42,2.42,0,0,1,166.6,4599.45Z"/><circle class="cls-1" cx="456.79" cy="3883.09" r="2.43"/><path class="cls-1" d="M369.14,3951a2.43,2.43,0,1,1-3.42.35A2.44,2.44,0,0,1,369.14,3951Z"/><path class="cls-1" d="M533.6,4320a2.43,2.43,0,1,1-3.42.35A2.44,2.44,0,0,1,533.6,4320Z"/><path class="cls-1" d="M465.13,4334.27a2.43,2.43,0,1,1-3.42.35A2.43,2.43,0,0,1,465.13,4334.27Z"/><path class="cls-1" d="M704.34,3646.16a2.43,2.43,0,1,1-3.42.34A2.43,2.43,0,0,1,704.34,3646.16Z"/><path class="cls-1" d="M649.64,3682.7a2.43,2.43,0,1,1-3.42.35A2.43,2.43,0,0,1,649.64,3682.7Z"/><path class="cls-1" d="M823.91,3897.46a2.43,2.43,0,1,1-3.42.35A2.43,2.43,0,0,1,823.91,3897.46Z"/><path class="cls-1" d="M1031.21,3616.62a2.43,2.43,0,1,1-3.42.35A2.42,2.42,0,0,1,1031.21,3616.62Z"/><path class="cls-1" d="M1065.7,3681.47a2.43,2.43,0,1,1-3.42.35A2.42,2.42,0,0,1,1065.7,3681.47Z"/><path class="cls-1" d="M711.39,3918.34a1.79,1.79,0,1,1-2.51.26A1.78,1.78,0,0,1,711.39,3918.34Z"/><path class="cls-1" d="M271.41,3778.81a2.43,2.43,0,1,1-3.42.35A2.43,2.43,0,0,1,271.41,3778.81Z"/><path class="cls-1" d="M330.1,3694.86a2.43,2.43,0,1,1-3.42.35A2.43,2.43,0,0,1,330.1,3694.86Z"/><path class="cls-1" d="M494.92,3481a2.43,2.43,0,1,1-3.43.35A2.44,2.44,0,0,1,494.92,3481Z"/><path class="cls-1" d="M547.32,3437.35a2.43,2.43,0,1,1-3.42.35A2.43,2.43,0,0,1,547.32,3437.35Z"/><path class="cls-1" d="M408.67,3755.73a2.43,2.43,0,1,1-3.42.35A2.43,2.43,0,0,1,408.67,3755.73Z"/><path class="cls-1" d="M214.76,3495.67a2.43,2.43,0,1,1-3.42.35A2.43,2.43,0,0,1,214.76,3495.67Z"/><path class="cls-1" d="M110.8,3627.13a2.43,2.43,0,1,1-3.42.35A2.42,2.42,0,0,1,110.8,3627.13Z"/><path class="cls-1" d="M932.19,3813.62a1.78,1.78,0,1,1-2.51.25A1.79,1.79,0,0,1,932.19,3813.62Z"/><path class="cls-1" d="M229.78,3541.6a4.87,4.87,0,1,1-6.85.7A4.87,4.87,0,0,1,229.78,3541.6Z"/><path class="cls-1" d="M640.91,3637.88a4.86,4.86,0,1,1-6.84.69A4.85,4.85,0,0,1,640.91,3637.88Z"/><circle class="cls-1" cx="957.8" cy="3694.16" r="3.57"/><path class="cls-1" d="M598.15,4148.23a4.86,4.86,0,1,1-6.84.7A4.86,4.86,0,0,1,598.15,4148.23Z"/><circle class="cls-1" cx="314.95" cy="3698.05" r="4.86"/><path class="cls-1" d="M345.67,4551.57a4.86,4.86,0,1,1-6.84.7A4.87,4.87,0,0,1,345.67,4551.57Z"/><path class="cls-1" d="M44.07,4439.76a4.86,4.86,0,1,1-6.84.7A4.86,4.86,0,0,1,44.07,4439.76Z"/><circle class="cls-1" cx="308.38" cy="4130.71" r="4.86"/><path class="cls-1" d="M513.41,3773.88a4.87,4.87,0,1,1-6.84.7A4.87,4.87,0,0,1,513.41,3773.88Z"/><path class="cls-1" d="M1079,3595.56a7.1,7.1,0,1,1-10,1A7.1,7.1,0,0,1,1079,3595.56Z"/><path class="cls-1" d="M971.31,3820.9a7.1,7.1,0,1,1,9.33-3.73A7.09,7.09,0,0,1,971.31,3820.9Z"/><circle class="cls-1" cx="859.74" cy="3990.35" r="4.86" transform="translate(-2586.81 1803.26) rotate(-45.44)"/><path class="cls-1" d="M992,4733.13a2.43,2.43,0,1,1,3.19-1.27A2.42,2.42,0,0,1,992,4733.13Z"/><path class="cls-1" d="M345.1,4367a1.79,1.79,0,1,1,2.35-.94A1.79,1.79,0,0,1,345.1,4367Z"/><path class="cls-1" d="M599.94,4558.59a1.79,1.79,0,1,1,2.34-.94A1.78,1.78,0,0,1,599.94,4558.59Z"/><path class="cls-1" d="M760.59,5019a2.43,2.43,0,1,1,3.19-1.28A2.43,2.43,0,0,1,760.59,5019Z"/><path class="cls-1" d="M791.16,3453.17a2.43,2.43,0,1,1,3.2-1.28A2.43,2.43,0,0,1,791.16,3453.17Z"/><path class="cls-1" d="M940.8,3732.72a2.43,2.43,0,1,1,3.19-1.28A2.44,2.44,0,0,1,940.8,3732.72Z"/><path class="cls-1" d="M616.27,3714.72a2.44,2.44,0,1,1,3.19-1.28A2.43,2.43,0,0,1,616.27,3714.72Z"/><path class="cls-1" d="M721.63,3605.74a2.43,2.43,0,1,1,3.19-1.28A2.43,2.43,0,0,1,721.63,3605.74Z"/><path class="cls-1" d="M840.75,4015.34a2.43,2.43,0,1,1,3.2-1.27A2.43,2.43,0,0,1,840.75,4015.34Z"/><path class="cls-1" d="M983.3,3471.41a2.43,2.43,0,1,1,3.19-1.28A2.43,2.43,0,0,1,983.3,3471.41Z"/><path class="cls-1" d="M998.87,3499.67a2.43,2.43,0,1,1,3.2-1.28A2.43,2.43,0,0,1,998.87,3499.67Z"/><path class="cls-1" d="M889.61,3388.67a2.43,2.43,0,1,1,3.2-1.28A2.44,2.44,0,0,1,889.61,3388.67Z"/><path class="cls-1" d="M806.58,4159.44a2.43,2.43,0,1,1,3.2-1.28A2.44,2.44,0,0,1,806.58,4159.44Z"/><path class="cls-1" d="M873.15,4067.82a2.43,2.43,0,1,1,3.2-1.27A2.44,2.44,0,0,1,873.15,4067.82Z"/><path class="cls-1" d="M613.58,3758.22a2.43,2.43,0,1,1,3.19-1.27A2.43,2.43,0,0,1,613.58,3758.22Z"/><path class="cls-1" d="M675.48,3725.69a2.43,2.43,0,1,1,3.2-1.27A2.43,2.43,0,0,1,675.48,3725.69Z"/><path class="cls-1" d="M634.66,4453.06a2.43,2.43,0,1,1,3.2-1.28A2.43,2.43,0,0,1,634.66,4453.06Z"/><path class="cls-1" d="M677.21,4402.89a2.43,2.43,0,1,1,3.19-1.28A2.44,2.44,0,0,1,677.21,4402.89Z"/><path class="cls-1" d="M450.62,4244.31a2.43,2.43,0,1,1,3.19-1.28A2.43,2.43,0,0,1,450.62,4244.31Z"/><path class="cls-1" d="M328.5,4571.31a2.43,2.43,0,1,1,3.2-1.27A2.42,2.42,0,0,1,328.5,4571.31Z"/><path class="cls-1" d="M277.51,4518.45a2.43,2.43,0,1,1,3.2-1.28A2.44,2.44,0,0,1,277.51,4518.45Z"/><path class="cls-1" d="M240.43,4822.56a1.79,1.79,0,1,1,2.35-.94A1.79,1.79,0,0,1,240.43,4822.56Z"/><path class="cls-1" d="M183.52,5011.6a2.43,2.43,0,1,1,3.19-1.28A2.43,2.43,0,0,1,183.52,5011.6Z"/><path class="cls-1" d="M553.06,4193.3a1.79,1.79,0,1,1,2.34-.94A1.79,1.79,0,0,1,553.06,4193.3Z"/><path class="cls-1" d="M1014.45,4206.5a2.43,2.43,0,1,1,3.19-1.28A2.43,2.43,0,0,1,1014.45,4206.5Z"/><path class="cls-1" d="M981.1,4303.35a2.43,2.43,0,1,1,3.19-1.28A2.43,2.43,0,0,1,981.1,4303.35Z"/><path class="cls-1" d="M881.43,4554.29a2.43,2.43,0,1,1,3.19-1.27A2.43,2.43,0,0,1,881.43,4554.29Z"/><path class="cls-1" d="M843,4610.65a2.43,2.43,0,1,1,3.19-1.27A2.42,2.42,0,0,1,843,4610.65Z"/><path class="cls-1" d="M888.82,4266.43a2.43,2.43,0,1,1,3.19-1.28A2.44,2.44,0,0,1,888.82,4266.43Z"/><path class="cls-1" d="M369.56,4354.69a1.78,1.78,0,1,1,2.34-.94A1.79,1.79,0,0,1,369.56,4354.69Z"/><path class="cls-1" d="M697.92,4443.58a4.86,4.86,0,1,1,6.39-2.55A4.86,4.86,0,0,1,697.92,4443.58Z"/><path class="cls-1" d="M376.37,4479.86a3.57,3.57,0,1,1,4.69-1.87A3.57,3.57,0,0,1,376.37,4479.86Z"/><path class="cls-1" d="M120.67,5005.11a3.57,3.57,0,1,1,4.69-1.87A3.56,3.56,0,0,1,120.67,5005.11Z"/><path class="cls-1" d="M732.27,4886.3a4.86,4.86,0,1,1,6.39-2.56A4.86,4.86,0,0,1,732.27,4886.3Z"/><path class="cls-1" d="M598.74,3941.14a4.86,4.86,0,1,1,6.39-2.56A4.86,4.86,0,0,1,598.74,3941.14Z"/><path class="cls-1" d="M992.87,4300.59a4.86,4.86,0,1,1,6.38-2.55A4.87,4.87,0,0,1,992.87,4300.59Z"/><path class="cls-1" d="M730.61,3483.93a4.87,4.87,0,1,1,6.39-2.56A4.86,4.86,0,0,1,730.61,3483.93Z"/><path class="cls-1" d="M1051.33,3508.52a4.86,4.86,0,1,1,6.39-2.55A4.88,4.88,0,0,1,1051.33,3508.52Z"/><path class="cls-1" d="M880.24,3882.8a4.86,4.86,0,1,1,6.39-2.56A4.87,4.87,0,0,1,880.24,3882.8Z"/><path class="cls-1" d="M783.12,4277.76a4.86,4.86,0,1,1,6.39-2.55A4.85,4.85,0,0,1,783.12,4277.76Z"/><path class="cls-1" d="M856.17,4941.86a7.1,7.1,0,1,1,9.32-3.73A7.11,7.11,0,0,1,856.17,4941.86Z"/><path class="cls-1" d="M288.35,4604.7a7.1,7.1,0,1,1,9.32-3.73A7.1,7.1,0,0,1,288.35,4604.7Z"/><path class="cls-1" d="M307.82,4778.78a7.1,7.1,0,1,1,2.33,9.77A7.09,7.09,0,0,1,307.82,4778.78Z"/><path class="cls-1" d="M152.27,4641.19a4.86,4.86,0,1,1,1.6,6.69A4.86,4.86,0,0,1,152.27,4641.19Z"/><path class="cls-1" d="M57.56,4864.4a2.43,2.43,0,1,1,.79,3.34A2.42,2.42,0,0,1,57.56,4864.4Z"/><path class="cls-1" d="M697.85,4654.07a2.44,2.44,0,1,1,.8,3.35A2.43,2.43,0,0,1,697.85,4654.07Z"/><circle class="cls-1" cx="401.57" cy="4762.7" r="2.43" transform="translate(-3000.31 1405.36) rotate(-40.56)"/><path class="cls-1" d="M464.55,4443a2.43,2.43,0,1,1,.8,3.35A2.43,2.43,0,0,1,464.55,4443Z"/><path class="cls-1" d="M557,4563.07a2.43,2.43,0,1,1,.8,3.35A2.43,2.43,0,0,1,557,4563.07Z"/><path class="cls-1" d="M134.45,4621.31a2.43,2.43,0,1,1,.8,3.35A2.44,2.44,0,0,1,134.45,4621.31Z"/><path class="cls-1" d="M841.14,4809.53a2.44,2.44,0,1,1,.8,3.35A2.44,2.44,0,0,1,841.14,4809.53Z"/><path class="cls-1" d="M651.84,4841.51a2.43,2.43,0,1,1,.8,3.34A2.43,2.43,0,0,1,651.84,4841.51Z"/><path class="cls-1" d="M772.25,4683.14a2.43,2.43,0,1,1,.8,3.34A2.42,2.42,0,0,1,772.25,4683.14Z"/><path class="cls-1" d="M335,5029.21a2.43,2.43,0,1,1,.79,3.34A2.42,2.42,0,0,1,335,5029.21Z"/><path class="cls-1" d="M1003.9,4795.34a2.43,2.43,0,1,1,.8,3.35A2.44,2.44,0,0,1,1003.9,4795.34Z"/><path class="cls-1" d="M883.08,4808.8a2.43,2.43,0,1,1,.8,3.35A2.43,2.43,0,0,1,883.08,4808.8Z"/><path class="cls-1" d="M621.62,4852.8a2.43,2.43,0,1,1,.8,3.35A2.42,2.42,0,0,1,621.62,4852.8Z"/><path class="cls-1" d="M747.34,4760.86a2.43,2.43,0,1,1,.8,3.35A2.43,2.43,0,0,1,747.34,4760.86Z"/><path class="cls-1" d="M77.81,4645.72a2.43,2.43,0,1,1,.8,3.35A2.43,2.43,0,0,1,77.81,4645.72Z"/><path class="cls-1" d="M421.9,4434a2.43,2.43,0,1,1,.79,3.34A2.42,2.42,0,0,1,421.9,4434Z"/><path class="cls-1" d="M445.07,4500a2.43,2.43,0,1,1,.8,3.35A2.44,2.44,0,0,1,445.07,4500Z"/><path class="cls-1" d="M.26,4310.78a1.78,1.78,0,1,1,.59,2.46A1.79,1.79,0,0,1,.26,4310.78Z"/><path class="cls-1" d="M1054.68,4973a2.44,2.44,0,1,1,.8,3.35A2.45,2.45,0,0,1,1054.68,4973Z"/><path class="cls-1" d="M243.09,4392.67a4.87,4.87,0,1,1,1.6,6.69A4.86,4.86,0,0,1,243.09,4392.67Z"/><circle class="cls-1" cx="680.38" cy="4592.23" r="4.86" transform="translate(-3925.67 5171.74) rotate(-88.74)"/><path class="cls-1" d="M605.23,4903.41a4.86,4.86,0,1,1,1.59,6.69A4.87,4.87,0,0,1,605.23,4903.41Z"/><path class="cls-1" d="M259.84,4679.67a4.86,4.86,0,1,1,1.59,6.69A4.86,4.86,0,0,1,259.84,4679.67Z"/><circle class="cls-1" cx="618.03" cy="3393.55" r="7.1" transform="translate(-2820.7 3122.83) rotate(-75.18)"/><circle class="cls-1" cx="775.48" cy="3532.32" r="4.86"/><path class="cls-1" d="M1073.22,4096.3a1.78,1.78,0,1,1-.59-2.46A1.77,1.77,0,0,1,1073.22,4096.3Z"/><circle class="cls-1" cx="231.97" cy="3520.71" r="2.43" transform="translate(-2346.22 1111.94) rotate(-43.18)"/><path class="cls-1" d="M532.39,3414.62a2.43,2.43,0,1,1-.8-3.34A2.42,2.42,0,0,1,532.39,3414.62Z"/><path class="cls-1" d="M467.34,3733.08a2.43,2.43,0,1,1-.79-3.35A2.43,2.43,0,0,1,467.34,3733.08Z"/><circle class="cls-1" cx="372.79" cy="3611.71" r="2.43" transform="translate(-2259.34 1110.65) rotate(-40.57)"/><path class="cls-1" d="M797.44,3554.74a2.43,2.43,0,1,1-.8-3.34A2.42,2.42,0,0,1,797.44,3554.74Z"/><path class="cls-1" d="M159.64,3492.92a2.43,2.43,0,1,1-.79-3.35A2.42,2.42,0,0,1,159.64,3492.92Z"/><path class="cls-1" d="M184.55,3415.19a2.43,2.43,0,1,1-.79-3.35A2.43,2.43,0,0,1,184.55,3415.19Z"/><path class="cls-1" d="M935,3609.52a2.43,2.43,0,1,1-.8-3.35A2.43,2.43,0,0,1,935,3609.52Z"/><path class="cls-1" d="M854.08,3530.33a2.43,2.43,0,1,1-.8-3.35A2.43,2.43,0,0,1,854.08,3530.33Z"/><path class="cls-1" d="M510,3742.07a2.43,2.43,0,1,1-.8-3.34A2.43,2.43,0,0,1,510,3742.07Z"/><path class="cls-1" d="M486.82,3676.09a2.43,2.43,0,1,1-.79-3.34A2.42,2.42,0,0,1,486.82,3676.09Z"/><path class="cls-1" d="M967.19,3974.05a2.44,2.44,0,1,1-.8-3.34A2.44,2.44,0,0,1,967.19,3974.05Z"/><path class="cls-1" d="M931.63,3865.27a1.78,1.78,0,1,1-3-1.87,1.78,1.78,0,0,1,3,1.87Z"/><path class="cls-1" d="M1011.85,3410.72a2.44,2.44,0,1,1-.8-3.35A2.44,2.44,0,0,1,1011.85,3410.72Z"/><path class="cls-1" d="M1052.85,3543.73a2.43,2.43,0,1,1-.8-3.34A2.43,2.43,0,0,1,1052.85,3543.73Z"/><path class="cls-1" d="M1064.59,4070.31a1.78,1.78,0,1,1-.59-2.45A1.79,1.79,0,0,1,1064.59,4070.31Z"/><path class="cls-1" d="M688.8,3783.38a4.86,4.86,0,1,1-1.59-6.69A4.87,4.87,0,0,1,688.8,3783.38Z"/><path class="cls-1" d="M255.65,3586.37a4.86,4.86,0,1,1-1.59-6.69A4.86,4.86,0,0,1,255.65,3586.37Z"/><circle class="cls-1" cx="667.91" cy="3493.83" r="4.86"/><path class="cls-1" d="M1048.68,3650a4.86,4.86,0,1,1-1.59-6.69A4.86,4.86,0,0,1,1048.68,3650Z"/><path class="cls-1" d="M206.88,2469.41a7.1,7.1,0,1,1-10,1A7.12,7.12,0,0,1,206.88,2469.41Z"/><circle class="cls-1" cx="360.73" cy="2337.16" r="4.86"/><path class="cls-1" d="M155.05,2210a2.43,2.43,0,1,1-3.42.35A2.44,2.44,0,0,1,155.05,2210Z"/><path class="cls-1" d="M959.09,2116.5a1.78,1.78,0,1,1-2.51.25A1.78,1.78,0,0,1,959.09,2116.5Z"/><path class="cls-1" d="M766.74,1862.24a1.78,1.78,0,1,1-2.51.25A1.78,1.78,0,0,1,766.74,1862.24Z"/><circle class="cls-1" cx="277.46" cy="2874.38" r="2.43"/><path class="cls-1" d="M93.32,2054.39a2.43,2.43,0,1,1-3.42.35A2.43,2.43,0,0,1,93.32,2054.39Z"/><path class="cls-1" d="M212,2562.58a2.43,2.43,0,1,1-3.42.35A2.43,2.43,0,0,1,212,2562.58Z"/><path class="cls-1" d="M519.05,2669.11a2.43,2.43,0,1,1-3.42.35A2.43,2.43,0,0,1,519.05,2669.11Z"/><path class="cls-1" d="M387.79,2744.92a2.43,2.43,0,1,1-3.42.35A2.43,2.43,0,0,1,387.79,2744.92Z"/><path class="cls-1" d="M385.86,2318.35a2.43,2.43,0,1,1-3.42.35A2.43,2.43,0,0,1,385.86,2318.35Z"/><path class="cls-1" d="M106,2994a2.43,2.43,0,1,1-3.42.35A2.42,2.42,0,0,1,106,2994Z"/><path class="cls-1" d="M99.28,2802.14a2.43,2.43,0,1,1-3.43.35A2.44,2.44,0,0,1,99.28,2802.14Z"/><path class="cls-1" d="M240.36,2942.4a2.43,2.43,0,1,1-3.42.35A2.43,2.43,0,0,1,240.36,2942.4Z"/><circle class="cls-1" cx="97.02" cy="3159.1" r="2.43" transform="translate(-2413.52 1239.07) rotate(-50.83)"/><path class="cls-1" d="M101.16,3035.67a2.43,2.43,0,1,1-3.42.35A2.43,2.43,0,0,1,101.16,3035.67Z"/><path class="cls-1" d="M92.07,2770.69a2.43,2.43,0,1,1-3.42.35A2.43,2.43,0,0,1,92.07,2770.69Z"/><path class="cls-1" d="M166.6,2907.45a2.43,2.43,0,1,1-3.42.35A2.42,2.42,0,0,1,166.6,2907.45Z"/><circle class="cls-1" cx="456.79" cy="2191.09" r="2.43"/><path class="cls-1" d="M369.14,2259a2.43,2.43,0,1,1-3.42.35A2.44,2.44,0,0,1,369.14,2259Z"/><path class="cls-1" d="M533.6,2628a2.43,2.43,0,1,1-3.42.35A2.44,2.44,0,0,1,533.6,2628Z"/><path class="cls-1" d="M465.13,2642.27a2.43,2.43,0,1,1-3.42.35A2.43,2.43,0,0,1,465.13,2642.27Z"/><path class="cls-1" d="M704.34,1954.16a2.43,2.43,0,1,1-3.42.34A2.43,2.43,0,0,1,704.34,1954.16Z"/><path class="cls-1" d="M649.64,1990.7a2.43,2.43,0,1,1-3.42.35A2.43,2.43,0,0,1,649.64,1990.7Z"/><path class="cls-1" d="M823.91,2205.46a2.43,2.43,0,1,1-3.42.35A2.43,2.43,0,0,1,823.91,2205.46Z"/><path class="cls-1" d="M1031.21,1924.62a2.43,2.43,0,1,1-3.42.35A2.42,2.42,0,0,1,1031.21,1924.62Z"/><path class="cls-1" d="M1065.7,1989.47a2.43,2.43,0,1,1-3.42.35A2.42,2.42,0,0,1,1065.7,1989.47Z"/><path class="cls-1" d="M711.39,2226.34a1.79,1.79,0,1,1-2.51.26A1.78,1.78,0,0,1,711.39,2226.34Z"/><path class="cls-1" d="M271.41,2086.81a2.43,2.43,0,1,1-3.42.35A2.43,2.43,0,0,1,271.41,2086.81Z"/><path class="cls-1" d="M330.1,2002.86a2.43,2.43,0,1,1-3.42.35A2.43,2.43,0,0,1,330.1,2002.86Z"/><path class="cls-1" d="M494.92,1789a2.43,2.43,0,1,1-3.43.35A2.44,2.44,0,0,1,494.92,1789Z"/><path class="cls-1" d="M547.32,1745.35a2.43,2.43,0,1,1-3.42.35A2.43,2.43,0,0,1,547.32,1745.35Z"/><path class="cls-1" d="M408.67,2063.73a2.43,2.43,0,1,1-3.42.35A2.43,2.43,0,0,1,408.67,2063.73Z"/><path class="cls-1" d="M214.76,1803.67a2.43,2.43,0,1,1-3.42.35A2.43,2.43,0,0,1,214.76,1803.67Z"/><path class="cls-1" d="M110.8,1935.13a2.43,2.43,0,1,1-3.42.35A2.42,2.42,0,0,1,110.8,1935.13Z"/><path class="cls-1" d="M932.19,2121.62a1.78,1.78,0,1,1-2.51.25A1.79,1.79,0,0,1,932.19,2121.62Z"/><path class="cls-1" d="M229.78,1849.6a4.87,4.87,0,1,1-6.85.7A4.87,4.87,0,0,1,229.78,1849.6Z"/><path class="cls-1" d="M640.91,1945.88a4.86,4.86,0,1,1-6.84.69A4.85,4.85,0,0,1,640.91,1945.88Z"/><circle class="cls-1" cx="957.8" cy="2002.16" r="3.57"/><path class="cls-1" d="M598.15,2456.23a4.86,4.86,0,1,1-6.84.7A4.86,4.86,0,0,1,598.15,2456.23Z"/><circle class="cls-1" cx="314.95" cy="2006.05" r="4.86"/><path class="cls-1" d="M345.67,2859.57a4.86,4.86,0,1,1-6.84.7A4.87,4.87,0,0,1,345.67,2859.57Z"/><path class="cls-1" d="M44.07,2747.76a4.86,4.86,0,1,1-6.84.7A4.86,4.86,0,0,1,44.07,2747.76Z"/><circle class="cls-1" cx="308.38" cy="2438.71" r="4.86"/><path class="cls-1" d="M513.41,2081.88a4.87,4.87,0,1,1-6.84.7A4.87,4.87,0,0,1,513.41,2081.88Z"/><path class="cls-1" d="M1079,1903.56a7.1,7.1,0,1,1-10,1A7.1,7.1,0,0,1,1079,1903.56Z"/><path class="cls-1" d="M971.31,2128.9a7.1,7.1,0,1,1,9.33-3.73A7.09,7.09,0,0,1,971.31,2128.9Z"/><circle class="cls-1" cx="859.74" cy="2298.35" r="4.86" transform="translate(-1381.17 1298.4) rotate(-45.44)"/><path class="cls-1" d="M992,3041.13a2.43,2.43,0,1,1,3.19-1.27A2.42,2.42,0,0,1,992,3041.13Z"/><path class="cls-1" d="M345.1,2675a1.79,1.79,0,1,1,2.35-.94A1.79,1.79,0,0,1,345.1,2675Z"/><path class="cls-1" d="M599.94,2866.59a1.79,1.79,0,1,1,2.34-.94A1.78,1.78,0,0,1,599.94,2866.59Z"/><path class="cls-1" d="M760.59,3327a2.43,2.43,0,1,1,3.19-1.28A2.43,2.43,0,0,1,760.59,3327Z"/><path class="cls-1" d="M791.16,1761.17a2.43,2.43,0,1,1,3.2-1.28A2.43,2.43,0,0,1,791.16,1761.17Z"/><path class="cls-1" d="M940.8,2040.72a2.43,2.43,0,1,1,3.19-1.28A2.44,2.44,0,0,1,940.8,2040.72Z"/><path class="cls-1" d="M616.27,2022.72a2.44,2.44,0,1,1,3.19-1.28A2.43,2.43,0,0,1,616.27,2022.72Z"/><path class="cls-1" d="M721.63,1913.74a2.43,2.43,0,1,1,3.19-1.28A2.43,2.43,0,0,1,721.63,1913.74Z"/><path class="cls-1" d="M840.75,2323.34a2.43,2.43,0,1,1,3.2-1.27A2.43,2.43,0,0,1,840.75,2323.34Z"/><path class="cls-1" d="M983.3,1779.41a2.43,2.43,0,1,1,3.19-1.28A2.43,2.43,0,0,1,983.3,1779.41Z"/><path class="cls-1" d="M998.87,1807.67a2.43,2.43,0,1,1,3.2-1.28A2.43,2.43,0,0,1,998.87,1807.67Z"/><path class="cls-1" d="M889.61,1696.67a2.43,2.43,0,1,1,3.2-1.28A2.44,2.44,0,0,1,889.61,1696.67Z"/><path class="cls-1" d="M806.58,2467.44a2.43,2.43,0,1,1,3.2-1.28A2.44,2.44,0,0,1,806.58,2467.44Z"/><path class="cls-1" d="M873.15,2375.82a2.43,2.43,0,1,1,3.2-1.27A2.44,2.44,0,0,1,873.15,2375.82Z"/><path class="cls-1" d="M613.58,2066.22a2.43,2.43,0,1,1,3.19-1.27A2.43,2.43,0,0,1,613.58,2066.22Z"/><path class="cls-1" d="M675.48,2033.69a2.43,2.43,0,1,1,3.2-1.27A2.43,2.43,0,0,1,675.48,2033.69Z"/><path class="cls-1" d="M634.66,2761.06a2.43,2.43,0,1,1,3.2-1.28A2.43,2.43,0,0,1,634.66,2761.06Z"/><path class="cls-1" d="M677.21,2710.89a2.43,2.43,0,1,1,3.19-1.28A2.44,2.44,0,0,1,677.21,2710.89Z"/><path class="cls-1" d="M450.62,2552.31a2.43,2.43,0,1,1,3.19-1.28A2.43,2.43,0,0,1,450.62,2552.31Z"/><path class="cls-1" d="M328.5,2879.31a2.43,2.43,0,1,1,3.2-1.27A2.42,2.42,0,0,1,328.5,2879.31Z"/><path class="cls-1" d="M277.51,2826.45a2.43,2.43,0,1,1,3.2-1.28A2.44,2.44,0,0,1,277.51,2826.45Z"/><path class="cls-1" d="M240.43,3130.56a1.79,1.79,0,1,1,2.35-.94A1.79,1.79,0,0,1,240.43,3130.56Z"/><path class="cls-1" d="M183.52,3319.6a2.43,2.43,0,1,1,3.19-1.28A2.43,2.43,0,0,1,183.52,3319.6Z"/><path class="cls-1" d="M553.06,2501.3a1.79,1.79,0,1,1,2.34-.94A1.79,1.79,0,0,1,553.06,2501.3Z"/><path class="cls-1" d="M1014.45,2514.5a2.43,2.43,0,1,1,3.19-1.28A2.43,2.43,0,0,1,1014.45,2514.5Z"/><path class="cls-1" d="M981.1,2611.35a2.43,2.43,0,1,1,3.19-1.28A2.43,2.43,0,0,1,981.1,2611.35Z"/><path class="cls-1" d="M881.43,2862.29a2.43,2.43,0,1,1,3.19-1.27A2.43,2.43,0,0,1,881.43,2862.29Z"/><path class="cls-1" d="M843,2918.65a2.43,2.43,0,1,1,3.19-1.27A2.42,2.42,0,0,1,843,2918.65Z"/><path class="cls-1" d="M888.82,2574.43a2.43,2.43,0,1,1,3.19-1.28A2.44,2.44,0,0,1,888.82,2574.43Z"/><path class="cls-1" d="M369.56,2662.69a1.78,1.78,0,1,1,2.34-.94A1.79,1.79,0,0,1,369.56,2662.69Z"/><path class="cls-1" d="M697.92,2751.58a4.86,4.86,0,1,1,6.39-2.55A4.86,4.86,0,0,1,697.92,2751.58Z"/><path class="cls-1" d="M376.37,2787.86a3.57,3.57,0,1,1,4.69-1.87A3.57,3.57,0,0,1,376.37,2787.86Z"/><path class="cls-1" d="M120.67,3313.11a3.57,3.57,0,1,1,4.69-1.87A3.56,3.56,0,0,1,120.67,3313.11Z"/><path class="cls-1" d="M732.27,3194.3a4.86,4.86,0,1,1,6.39-2.56A4.86,4.86,0,0,1,732.27,3194.3Z"/><path class="cls-1" d="M598.74,2249.14a4.86,4.86,0,1,1,6.39-2.56A4.86,4.86,0,0,1,598.74,2249.14Z"/><path class="cls-1" d="M992.87,2608.59a4.86,4.86,0,1,1,6.38-2.55A4.87,4.87,0,0,1,992.87,2608.59Z"/><path class="cls-1" d="M730.61,1791.93a4.87,4.87,0,1,1,6.39-2.56A4.86,4.86,0,0,1,730.61,1791.93Z"/><path class="cls-1" d="M1051.33,1816.52a4.86,4.86,0,1,1,6.39-2.55A4.88,4.88,0,0,1,1051.33,1816.52Z"/><path class="cls-1" d="M880.24,2190.8a4.86,4.86,0,1,1,6.39-2.56A4.87,4.87,0,0,1,880.24,2190.8Z"/><path class="cls-1" d="M783.12,2585.76a4.86,4.86,0,1,1,6.39-2.55A4.85,4.85,0,0,1,783.12,2585.76Z"/><path class="cls-1" d="M856.17,3249.86a7.1,7.1,0,1,1,9.32-3.73A7.11,7.11,0,0,1,856.17,3249.86Z"/><path class="cls-1" d="M288.35,2912.7a7.1,7.1,0,1,1,9.32-3.73A7.1,7.1,0,0,1,288.35,2912.7Z"/><path class="cls-1" d="M307.82,3086.78a7.1,7.1,0,1,1,2.33,9.77A7.09,7.09,0,0,1,307.82,3086.78Z"/><path class="cls-1" d="M152.27,2949.19a4.86,4.86,0,1,1,1.6,6.69A4.86,4.86,0,0,1,152.27,2949.19Z"/><path class="cls-1" d="M57.56,3172.4a2.43,2.43,0,1,1,.79,3.34A2.42,2.42,0,0,1,57.56,3172.4Z"/><path class="cls-1" d="M697.85,2962.07a2.44,2.44,0,1,1,.8,3.35A2.43,2.43,0,0,1,697.85,2962.07Z"/><circle class="cls-1" cx="401.57" cy="3070.7" r="2.43" transform="translate(-1900.15 998.85) rotate(-40.56)"/><path class="cls-1" d="M464.55,2751a2.43,2.43,0,1,1,.8,3.35A2.43,2.43,0,0,1,464.55,2751Z"/><path class="cls-1" d="M557,2871.07a2.43,2.43,0,1,1,.8,3.35A2.43,2.43,0,0,1,557,2871.07Z"/><path class="cls-1" d="M134.45,2929.31a2.43,2.43,0,1,1,.8,3.35A2.44,2.44,0,0,1,134.45,2929.31Z"/><path class="cls-1" d="M841.14,3117.53a2.44,2.44,0,1,1,.8,3.35A2.44,2.44,0,0,1,841.14,3117.53Z"/><path class="cls-1" d="M651.84,3149.51a2.43,2.43,0,1,1,.8,3.34A2.43,2.43,0,0,1,651.84,3149.51Z"/><path class="cls-1" d="M772.25,2991.14a2.43,2.43,0,1,1,.8,3.34A2.42,2.42,0,0,1,772.25,2991.14Z"/><path class="cls-1" d="M335,3337.21a2.43,2.43,0,1,1,.79,3.34A2.42,2.42,0,0,1,335,3337.21Z"/><path class="cls-1" d="M1003.9,3103.34a2.43,2.43,0,1,1,.8,3.35A2.44,2.44,0,0,1,1003.9,3103.34Z"/><path class="cls-1" d="M883.08,3116.8a2.43,2.43,0,1,1,.8,3.35A2.43,2.43,0,0,1,883.08,3116.8Z"/><path class="cls-1" d="M621.62,3160.8a2.43,2.43,0,1,1,.8,3.35A2.42,2.42,0,0,1,621.62,3160.8Z"/><path class="cls-1" d="M747.34,3068.86a2.43,2.43,0,1,1,.8,3.35A2.43,2.43,0,0,1,747.34,3068.86Z"/><path class="cls-1" d="M77.81,2953.72a2.43,2.43,0,1,1,.8,3.35A2.43,2.43,0,0,1,77.81,2953.72Z"/><path class="cls-1" d="M421.9,2742a2.43,2.43,0,1,1,.79,3.34A2.42,2.42,0,0,1,421.9,2742Z"/><path class="cls-1" d="M445.07,2808a2.43,2.43,0,1,1,.8,3.35A2.44,2.44,0,0,1,445.07,2808Z"/><path class="cls-1" d="M.26,2618.78a1.78,1.78,0,1,1,.59,2.46A1.79,1.79,0,0,1,.26,2618.78Z"/><path class="cls-1" d="M1054.68,3281a2.44,2.44,0,1,1,.8,3.35A2.45,2.45,0,0,1,1054.68,3281Z"/><path class="cls-1" d="M243.09,2700.67a4.87,4.87,0,1,1,1.6,6.69A4.86,4.86,0,0,1,243.09,2700.67Z"/><circle class="cls-1" cx="680.38" cy="2900.23" r="4.86" transform="translate(-2234.07 3516.85) rotate(-88.74)"/><path class="cls-1" d="M605.23,3211.41a4.86,4.86,0,1,1,1.59,6.69A4.87,4.87,0,0,1,605.23,3211.41Z"/><path class="cls-1" d="M259.84,2987.67a4.86,4.86,0,1,1,1.59,6.69A4.86,4.86,0,0,1,259.84,2987.67Z"/><circle class="cls-1" cx="618.03" cy="1701.55" r="7.1" transform="translate(-1185.01 1863.7) rotate(-75.18)"/><circle class="cls-1" cx="775.48" cy="1840.32" r="4.86"/><path class="cls-1" d="M1073.22,2404.3a1.78,1.78,0,1,1-.59-2.46A1.77,1.77,0,0,1,1073.22,2404.3Z"/><circle class="cls-1" cx="231.97" cy="1828.71" r="2.43" transform="translate(-1188.48 653.84) rotate(-43.18)"/><path class="cls-1" d="M532.39,1722.62a2.43,2.43,0,1,1-.8-3.34A2.42,2.42,0,0,1,532.39,1722.62Z"/><path class="cls-1" d="M467.34,2041.08a2.43,2.43,0,1,1-.79-3.35A2.43,2.43,0,0,1,467.34,2041.08Z"/><circle class="cls-1" cx="372.79" cy="1919.71" r="2.43" transform="translate(-1158.91 703.92) rotate(-40.57)"/><path class="cls-1" d="M797.44,1862.74a2.43,2.43,0,1,1-.8-3.34A2.42,2.42,0,0,1,797.44,1862.74Z"/><path class="cls-1" d="M159.64,1800.92a2.43,2.43,0,1,1-.79-3.35A2.42,2.42,0,0,1,159.64,1800.92Z"/><path class="cls-1" d="M184.55,1723.19a2.43,2.43,0,1,1-.79-3.35A2.43,2.43,0,0,1,184.55,1723.19Z"/><path class="cls-1" d="M935,1917.52a2.43,2.43,0,1,1-.8-3.35A2.43,2.43,0,0,1,935,1917.52Z"/><path class="cls-1" d="M854.08,1838.33a2.43,2.43,0,1,1-.8-3.35A2.43,2.43,0,0,1,854.08,1838.33Z"/><path class="cls-1" d="M510,2050.07a2.43,2.43,0,1,1-.8-3.34A2.43,2.43,0,0,1,510,2050.07Z"/><path class="cls-1" d="M486.82,1984.09a2.43,2.43,0,1,1-.79-3.34A2.42,2.42,0,0,1,486.82,1984.09Z"/><path class="cls-1" d="M967.19,2282.05a2.44,2.44,0,1,1-.8-3.34A2.44,2.44,0,0,1,967.19,2282.05Z"/><path class="cls-1" d="M931.63,2173.27a1.78,1.78,0,1,1-3-1.87,1.78,1.78,0,0,1,3,1.87Z"/><path class="cls-1" d="M1011.85,1718.72a2.44,2.44,0,1,1-.8-3.35A2.44,2.44,0,0,1,1011.85,1718.72Z"/><path class="cls-1" d="M1052.85,1851.73a2.43,2.43,0,1,1-.8-3.34A2.43,2.43,0,0,1,1052.85,1851.73Z"/><path class="cls-1" d="M1064.59,2378.31a1.78,1.78,0,1,1-.59-2.45A1.79,1.79,0,0,1,1064.59,2378.31Z"/><path class="cls-1" d="M688.8,2091.38a4.86,4.86,0,1,1-1.59-6.69A4.87,4.87,0,0,1,688.8,2091.38Z"/><path class="cls-1" d="M255.65,1894.37a4.86,4.86,0,1,1-1.59-6.69A4.86,4.86,0,0,1,255.65,1894.37Z"/><circle class="cls-1" cx="667.91" cy="1801.83" r="4.86"/><path class="cls-1" d="M1048.68,1958a4.86,4.86,0,1,1-1.59-6.69A4.86,4.86,0,0,1,1048.68,1958Z"/><path class="cls-1" d="M206.88,777.41a7.1,7.1,0,1,1-10,1A7.12,7.12,0,0,1,206.88,777.41Z"/><circle class="cls-1" cx="360.73" cy="645.16" r="4.86"/><path class="cls-1" d="M155.05,518a2.43,2.43,0,1,1-3.42.35A2.44,2.44,0,0,1,155.05,518Z"/><path class="cls-1" d="M959.09,424.5a1.78,1.78,0,1,1-2.51.25A1.78,1.78,0,0,1,959.09,424.5Z"/><path class="cls-1" d="M766.74,170.24a1.78,1.78,0,1,1-2.51.25A1.78,1.78,0,0,1,766.74,170.24Z"/><circle class="cls-1" cx="277.46" cy="1182.38" r="2.43"/><path class="cls-1" d="M93.32,362.39a2.43,2.43,0,1,1-3.42.35A2.43,2.43,0,0,1,93.32,362.39Z"/><path class="cls-1" d="M212,870.58a2.43,2.43,0,1,1-3.42.35A2.43,2.43,0,0,1,212,870.58Z"/><path class="cls-1" d="M519.05,977.11a2.43,2.43,0,1,1-3.42.35A2.43,2.43,0,0,1,519.05,977.11Z"/><path class="cls-1" d="M387.79,1052.92a2.43,2.43,0,1,1-3.42.35A2.43,2.43,0,0,1,387.79,1052.92Z"/><path class="cls-1" d="M385.86,626.35a2.43,2.43,0,1,1-3.42.35A2.43,2.43,0,0,1,385.86,626.35Z"/><path class="cls-1" d="M106,1302a2.43,2.43,0,1,1-3.42.35A2.42,2.42,0,0,1,106,1302Z"/><path class="cls-1" d="M99.28,1110.14a2.43,2.43,0,1,1-3.43.35A2.44,2.44,0,0,1,99.28,1110.14Z"/><path class="cls-1" d="M240.36,1250.4a2.43,2.43,0,1,1-3.42.35A2.43,2.43,0,0,1,240.36,1250.4Z"/><circle class="cls-1" cx="97.02" cy="1467.1" r="2.43" transform="translate(-1101.7 615.71) rotate(-50.83)"/><path class="cls-1" d="M101.16,1343.67a2.43,2.43,0,1,1-3.42.35A2.43,2.43,0,0,1,101.16,1343.67Z"/><path class="cls-1" d="M92.07,1078.69a2.43,2.43,0,1,1-3.42.35A2.43,2.43,0,0,1,92.07,1078.69Z"/><path class="cls-1" d="M166.6,1215.45a2.43,2.43,0,1,1-3.42.35A2.42,2.42,0,0,1,166.6,1215.45Z"/><circle class="cls-1" cx="456.79" cy="499.09" r="2.43"/><path class="cls-1" d="M369.14,567a2.43,2.43,0,1,1-3.42.35A2.44,2.44,0,0,1,369.14,567Z"/><path class="cls-1" d="M533.6,936a2.43,2.43,0,1,1-3.42.35A2.44,2.44,0,0,1,533.6,936Z"/><path class="cls-1" d="M465.13,950.27a2.43,2.43,0,1,1-3.42.35A2.43,2.43,0,0,1,465.13,950.27Z"/><path class="cls-1" d="M704.34,262.16a2.43,2.43,0,1,1-3.42.34A2.43,2.43,0,0,1,704.34,262.16Z"/><path class="cls-1" d="M649.64,298.7a2.43,2.43,0,1,1-3.42.35A2.43,2.43,0,0,1,649.64,298.7Z"/><path class="cls-1" d="M823.91,513.46a2.43,2.43,0,1,1-3.42.35A2.43,2.43,0,0,1,823.91,513.46Z"/><path class="cls-1" d="M1031.21,232.62a2.43,2.43,0,1,1-3.42.35A2.42,2.42,0,0,1,1031.21,232.62Z"/><path class="cls-1" d="M1065.7,297.47a2.43,2.43,0,1,1-3.42.35A2.42,2.42,0,0,1,1065.7,297.47Z"/><path class="cls-1" d="M711.39,534.34a1.79,1.79,0,1,1-2.51.26A1.78,1.78,0,0,1,711.39,534.34Z"/><path class="cls-1" d="M271.41,394.81a2.43,2.43,0,1,1-3.42.35A2.43,2.43,0,0,1,271.41,394.81Z"/><path class="cls-1" d="M330.1,310.86a2.43,2.43,0,1,1-3.42.35A2.43,2.43,0,0,1,330.1,310.86Z"/><path class="cls-1" d="M494.92,97a2.43,2.43,0,1,1-3.43.35A2.44,2.44,0,0,1,494.92,97Z"/><path class="cls-1" d="M547.32,53.35a2.43,2.43,0,1,1-3.42.35A2.43,2.43,0,0,1,547.32,53.35Z"/><path class="cls-1" d="M408.67,371.73a2.43,2.43,0,1,1-3.42.35A2.43,2.43,0,0,1,408.67,371.73Z"/><path class="cls-1" d="M214.76,111.67a2.43,2.43,0,1,1-3.42.35A2.43,2.43,0,0,1,214.76,111.67Z"/><path class="cls-1" d="M110.8,243.13a2.43,2.43,0,1,1-3.42.35A2.42,2.42,0,0,1,110.8,243.13Z"/><path class="cls-1" d="M932.19,429.62a1.78,1.78,0,1,1-2.51.25A1.79,1.79,0,0,1,932.19,429.62Z"/><path class="cls-1" d="M229.78,157.6a4.87,4.87,0,1,1-6.85.7A4.87,4.87,0,0,1,229.78,157.6Z"/><path class="cls-1" d="M640.91,253.88a4.86,4.86,0,1,1-6.84.69A4.85,4.85,0,0,1,640.91,253.88Z"/><circle class="cls-1" cx="957.8" cy="310.16" r="3.57"/><path class="cls-1" d="M598.15,764.23a4.86,4.86,0,1,1-6.84.7A4.86,4.86,0,0,1,598.15,764.23Z"/><circle class="cls-1" cx="314.95" cy="314.05" r="4.86"/><path class="cls-1" d="M345.67,1167.57a4.86,4.86,0,1,1-6.84.7A4.87,4.87,0,0,1,345.67,1167.57Z"/><path class="cls-1" d="M44.07,1055.76a4.86,4.86,0,1,1-6.84.7A4.86,4.86,0,0,1,44.07,1055.76Z"/><circle class="cls-1" cx="308.38" cy="746.71" r="4.86"/><path class="cls-1" d="M513.41,389.88a4.87,4.87,0,1,1-6.84.7A4.87,4.87,0,0,1,513.41,389.88Z"/><path class="cls-1" d="M1079,211.56a7.1,7.1,0,1,1-10,1A7.1,7.1,0,0,1,1079,211.56Z"/><path class="cls-1" d="M971.31,436.9a7.1,7.1,0,1,1,9.33-3.73A7.09,7.09,0,0,1,971.31,436.9Z"/><circle class="cls-1" cx="859.74" cy="606.35" r="4.86" transform="translate(-175.53 793.53) rotate(-45.44)"/><path class="cls-1" d="M992,1349.13a2.43,2.43,0,1,1,3.19-1.27A2.42,2.42,0,0,1,992,1349.13Z"/><path class="cls-1" d="M345.1,983a1.79,1.79,0,1,1,2.35-.94A1.79,1.79,0,0,1,345.1,983Z"/><path class="cls-1" d="M599.94,1174.59a1.79,1.79,0,1,1,2.34-.94A1.78,1.78,0,0,1,599.94,1174.59Z"/><path class="cls-1" d="M760.59,1635a2.43,2.43,0,1,1,3.19-1.28A2.43,2.43,0,0,1,760.59,1635Z"/><path class="cls-1" d="M791.16,69.17a2.43,2.43,0,1,1,3.2-1.28A2.43,2.43,0,0,1,791.16,69.17Z"/><path class="cls-1" d="M940.8,348.72a2.43,2.43,0,1,1,3.19-1.28A2.44,2.44,0,0,1,940.8,348.72Z"/><path class="cls-1" d="M616.27,330.72a2.44,2.44,0,1,1,3.19-1.28A2.43,2.43,0,0,1,616.27,330.72Z"/><path class="cls-1" d="M721.63,221.74a2.43,2.43,0,1,1,3.19-1.28A2.43,2.43,0,0,1,721.63,221.74Z"/><path class="cls-1" d="M840.75,631.34a2.43,2.43,0,1,1,3.2-1.27A2.43,2.43,0,0,1,840.75,631.34Z"/><path class="cls-1" d="M983.3,87.41a2.43,2.43,0,1,1,3.19-1.28A2.43,2.43,0,0,1,983.3,87.41Z"/><path class="cls-1" d="M998.87,115.67a2.43,2.43,0,1,1,3.2-1.28A2.43,2.43,0,0,1,998.87,115.67Z"/><path class="cls-1" d="M889.61,4.67a2.43,2.43,0,1,1,3.2-1.28A2.44,2.44,0,0,1,889.61,4.67Z"/><path class="cls-1" d="M806.58,775.44a2.43,2.43,0,1,1,3.2-1.28A2.44,2.44,0,0,1,806.58,775.44Z"/><path class="cls-1" d="M873.15,683.82a2.43,2.43,0,1,1,3.2-1.27A2.44,2.44,0,0,1,873.15,683.82Z"/><path class="cls-1" d="M613.58,374.22a2.43,2.43,0,1,1,3.19-1.27A2.43,2.43,0,0,1,613.58,374.22Z"/><path class="cls-1" d="M675.48,341.69a2.43,2.43,0,1,1,3.2-1.27A2.43,2.43,0,0,1,675.48,341.69Z"/><path class="cls-1" d="M634.66,1069.06a2.43,2.43,0,1,1,3.2-1.28A2.43,2.43,0,0,1,634.66,1069.06Z"/><path class="cls-1" d="M677.21,1018.89a2.43,2.43,0,1,1,3.19-1.28A2.44,2.44,0,0,1,677.21,1018.89Z"/><path class="cls-1" d="M450.62,860.31a2.43,2.43,0,1,1,3.19-1.28A2.43,2.43,0,0,1,450.62,860.31Z"/><path class="cls-1" d="M328.5,1187.31a2.43,2.43,0,1,1,3.2-1.27A2.42,2.42,0,0,1,328.5,1187.31Z"/><path class="cls-1" d="M277.51,1134.45a2.43,2.43,0,1,1,3.2-1.28A2.44,2.44,0,0,1,277.51,1134.45Z"/><path class="cls-1" d="M240.43,1438.56a1.79,1.79,0,1,1,2.35-.94A1.79,1.79,0,0,1,240.43,1438.56Z"/><path class="cls-1" d="M183.52,1627.6a2.43,2.43,0,1,1,3.19-1.28A2.43,2.43,0,0,1,183.52,1627.6Z"/><path class="cls-1" d="M553.06,809.3a1.79,1.79,0,1,1,2.34-.94A1.79,1.79,0,0,1,553.06,809.3Z"/><path class="cls-1" d="M1014.45,822.5a2.43,2.43,0,1,1,3.19-1.28A2.43,2.43,0,0,1,1014.45,822.5Z"/><path class="cls-1" d="M981.1,919.35a2.43,2.43,0,1,1,3.19-1.28A2.43,2.43,0,0,1,981.1,919.35Z"/><path class="cls-1" d="M881.43,1170.29a2.43,2.43,0,1,1,3.19-1.27A2.43,2.43,0,0,1,881.43,1170.29Z"/><path class="cls-1" d="M843,1226.65a2.43,2.43,0,1,1,3.19-1.27A2.42,2.42,0,0,1,843,1226.65Z"/><path class="cls-1" d="M888.82,882.43a2.43,2.43,0,1,1,3.19-1.28A2.44,2.44,0,0,1,888.82,882.43Z"/><path class="cls-1" d="M369.56,970.69a1.78,1.78,0,1,1,2.34-.94A1.79,1.79,0,0,1,369.56,970.69Z"/><path class="cls-1" d="M697.92,1059.58a4.86,4.86,0,1,1,6.39-2.55A4.86,4.86,0,0,1,697.92,1059.58Z"/><path class="cls-1" d="M376.37,1095.86a3.57,3.57,0,1,1,4.69-1.87A3.57,3.57,0,0,1,376.37,1095.86Z"/><path class="cls-1" d="M120.67,1621.11a3.57,3.57,0,1,1,4.69-1.87A3.56,3.56,0,0,1,120.67,1621.11Z"/><path class="cls-1" d="M732.27,1502.3a4.86,4.86,0,1,1,6.39-2.56A4.86,4.86,0,0,1,732.27,1502.3Z"/><path class="cls-1" d="M598.74,557.14a4.86,4.86,0,1,1,6.39-2.56A4.86,4.86,0,0,1,598.74,557.14Z"/><path class="cls-1" d="M992.87,916.59a4.86,4.86,0,1,1,6.38-2.55A4.87,4.87,0,0,1,992.87,916.59Z"/><path class="cls-1" d="M730.61,99.93A4.87,4.87,0,1,1,737,97.37,4.86,4.86,0,0,1,730.61,99.93Z"/><path class="cls-1" d="M1051.33,124.52a4.86,4.86,0,1,1,6.39-2.55A4.88,4.88,0,0,1,1051.33,124.52Z"/><path class="cls-1" d="M880.24,498.8a4.86,4.86,0,1,1,6.39-2.56A4.87,4.87,0,0,1,880.24,498.8Z"/><path class="cls-1" d="M783.12,893.76a4.86,4.86,0,1,1,6.39-2.55A4.85,4.85,0,0,1,783.12,893.76Z"/><path class="cls-1" d="M856.17,1557.86a7.1,7.1,0,1,1,9.32-3.73A7.11,7.11,0,0,1,856.17,1557.86Z"/><path class="cls-1" d="M288.35,1220.7a7.1,7.1,0,1,1,9.32-3.73A7.1,7.1,0,0,1,288.35,1220.7Z"/><path class="cls-1" d="M307.82,1394.78a7.1,7.1,0,1,1,2.33,9.77A7.09,7.09,0,0,1,307.82,1394.78Z"/><path class="cls-1" d="M152.27,1257.19a4.86,4.86,0,1,1,1.6,6.69A4.86,4.86,0,0,1,152.27,1257.19Z"/><path class="cls-1" d="M57.56,1480.4a2.43,2.43,0,1,1,.79,3.34A2.42,2.42,0,0,1,57.56,1480.4Z"/><path class="cls-1" d="M697.85,1270.07a2.44,2.44,0,1,1,.8,3.35A2.43,2.43,0,0,1,697.85,1270.07Z"/><circle class="cls-1" cx="401.57" cy="1378.7" r="2.43" transform="translate(-799.98 592.35) rotate(-40.56)"/><path class="cls-1" d="M464.55,1059a2.43,2.43,0,1,1,.8,3.35A2.43,2.43,0,0,1,464.55,1059Z"/><path class="cls-1" d="M557,1179.07a2.43,2.43,0,1,1,.8,3.35A2.43,2.43,0,0,1,557,1179.07Z"/><path class="cls-1" d="M134.45,1237.31a2.43,2.43,0,1,1,.8,3.35A2.44,2.44,0,0,1,134.45,1237.31Z"/><path class="cls-1" d="M841.14,1425.53a2.44,2.44,0,1,1,.8,3.35A2.44,2.44,0,0,1,841.14,1425.53Z"/><path class="cls-1" d="M651.84,1457.51a2.43,2.43,0,1,1,.8,3.34A2.43,2.43,0,0,1,651.84,1457.51Z"/><path class="cls-1" d="M772.25,1299.14a2.43,2.43,0,1,1,.8,3.34A2.42,2.42,0,0,1,772.25,1299.14Z"/><path class="cls-1" d="M335,1645.21a2.43,2.43,0,1,1,.79,3.34A2.42,2.42,0,0,1,335,1645.21Z"/><path class="cls-1" d="M1003.9,1411.34a2.43,2.43,0,1,1,.8,3.35A2.44,2.44,0,0,1,1003.9,1411.34Z"/><path class="cls-1" d="M883.08,1424.8a2.43,2.43,0,1,1,.8,3.35A2.43,2.43,0,0,1,883.08,1424.8Z"/><path class="cls-1" d="M621.62,1468.8a2.43,2.43,0,1,1,.8,3.35A2.42,2.42,0,0,1,621.62,1468.8Z"/><path class="cls-1" d="M747.34,1376.86a2.43,2.43,0,1,1,.8,3.35A2.43,2.43,0,0,1,747.34,1376.86Z"/><path class="cls-1" d="M77.81,1261.72a2.43,2.43,0,1,1,.8,3.35A2.43,2.43,0,0,1,77.81,1261.72Z"/><path class="cls-1" d="M421.9,1050a2.43,2.43,0,1,1,.79,3.34A2.42,2.42,0,0,1,421.9,1050Z"/><path class="cls-1" d="M445.07,1116a2.43,2.43,0,1,1,.8,3.35A2.44,2.44,0,0,1,445.07,1116Z"/><path class="cls-1" d="M.26,926.78a1.78,1.78,0,1,1,.59,2.46A1.79,1.79,0,0,1,.26,926.78Z"/><path class="cls-1" d="M1054.68,1589a2.44,2.44,0,1,1,.8,3.35A2.45,2.45,0,0,1,1054.68,1589Z"/><path class="cls-1" d="M243.09,1008.67a4.87,4.87,0,1,1,1.6,6.69A4.86,4.86,0,0,1,243.09,1008.67Z"/><circle class="cls-1" cx="680.38" cy="1208.23" r="4.86" transform="translate(-542.48 1861.96) rotate(-88.74)"/><path class="cls-1" d="M605.23,1519.41a4.86,4.86,0,1,1,1.59,6.69A4.87,4.87,0,0,1,605.23,1519.41Z"/><path class="cls-1" d="M259.84,1295.67a4.86,4.86,0,1,1,1.59,6.69A4.86,4.86,0,0,1,259.84,1295.67Z"/><circle class="cls-1" cx="618.03" cy="9.55" r="7.1" transform="translate(450.68 604.57) rotate(-75.18)"/><circle class="cls-1" cx="775.48" cy="148.32" r="4.86"/><path class="cls-1" d="M1073.22,712.3a1.78,1.78,0,1,1-.59-2.46A1.77,1.77,0,0,1,1073.22,712.3Z"/><circle class="cls-1" cx="231.97" cy="136.71" r="2.43" transform="translate(-30.74 195.74) rotate(-43.18)"/><path class="cls-1" d="M532.39,30.62a2.43,2.43,0,1,1-.8-3.34A2.42,2.42,0,0,1,532.39,30.62Z"/><path class="cls-1" d="M467.34,349.08a2.43,2.43,0,1,1-.79-3.35A2.43,2.43,0,0,1,467.34,349.08Z"/><circle class="cls-1" cx="372.79" cy="227.71" r="2.43" transform="translate(-58.48 297.19) rotate(-40.57)"/><path class="cls-1" d="M797.44,170.74a2.43,2.43,0,1,1-.8-3.34A2.42,2.42,0,0,1,797.44,170.74Z"/><path class="cls-1" d="M159.64,108.92a2.43,2.43,0,1,1-.79-3.35A2.42,2.42,0,0,1,159.64,108.92Z"/><path class="cls-1" d="M184.55,31.19a2.43,2.43,0,1,1-.79-3.35A2.43,2.43,0,0,1,184.55,31.19Z"/><path class="cls-1" d="M935,225.52a2.43,2.43,0,1,1-.8-3.35A2.43,2.43,0,0,1,935,225.52Z"/><path class="cls-1" d="M854.08,146.33a2.43,2.43,0,1,1-.8-3.35A2.43,2.43,0,0,1,854.08,146.33Z"/><path class="cls-1" d="M510,358.07a2.43,2.43,0,1,1-.8-3.34A2.43,2.43,0,0,1,510,358.07Z"/><path class="cls-1" d="M486.82,292.09a2.43,2.43,0,1,1-.79-3.34A2.42,2.42,0,0,1,486.82,292.09Z"/><path class="cls-1" d="M967.19,590.05a2.44,2.44,0,1,1-.8-3.34A2.44,2.44,0,0,1,967.19,590.05Z"/><path class="cls-1" d="M931.63,481.27a1.78,1.78,0,1,1-3-1.87,1.78,1.78,0,0,1,3,1.87Z"/><path class="cls-1" d="M1011.85,26.72a2.44,2.44,0,1,1-.8-3.35A2.44,2.44,0,0,1,1011.85,26.72Z"/><path class="cls-1" d="M1052.85,159.73a2.43,2.43,0,1,1-.8-3.34A2.43,2.43,0,0,1,1052.85,159.73Z"/><path class="cls-1" d="M1064.59,686.31a1.78,1.78,0,1,1-.59-2.45A1.79,1.79,0,0,1,1064.59,686.31Z"/><path class="cls-1" d="M688.8,399.38a4.86,4.86,0,1,1-1.59-6.69A4.87,4.87,0,0,1,688.8,399.38Z"/><path class="cls-1" d="M255.65,202.37a4.86,4.86,0,1,1-1.59-6.69A4.86,4.86,0,0,1,255.65,202.37Z"/><circle class="cls-1" cx="667.91" cy="109.83" r="4.86"/><path class="cls-1" d="M1048.68,266a4.86,4.86,0,1,1-1.59-6.69A4.86,4.86,0,0,1,1048.68,266Z"/></g></g></svg>