<svg xmlns="http://www.w3.org/2000/svg" xmlns:xlink="http://www.w3.org/1999/xlink" viewBox="0 0 73.42 73.47"><defs><style>.cls-1{isolation:isolate;}.cls-2{fill:#d8d5d3;}.cls-3,.cls-9{fill:#ffcd5f;}.cls-4{fill:#fcb912;}.cls-5{fill:#fc6;}.cls-6{fill:#e8b356;mix-blend-mode:multiply;}.cls-6,.cls-7,.cls-8,.cls-9{opacity:0.55;}.cls-7{fill:#ffe5b6;}.cls-18,.cls-7,.cls-9{mix-blend-mode:screen;}.cls-8{mix-blend-mode:overlay;fill:url(#radial-gradient);}.cls-10,.cls-17,.cls-19{fill:#fff;}.cls-10{opacity:0.75;}.cls-11{fill:#b65815;fill-rule:evenodd;}.cls-12{fill:#e9be00;}.cls-13{fill:#ffed00;}.cls-14{fill:url(#linear-gradient);}.cls-15{fill:url(#linear-gradient-2);}.cls-16{fill:url(#linear-gradient-3);}.cls-18,.cls-19{opacity:0.85;}</style><radialGradient id="radial-gradient" cx="36.69" cy="37.15" r="26.11" gradientUnits="userSpaceOnUse"><stop offset="0" stop-color="#d0d0cf"/><stop offset="0.35" stop-color="#cececd"/><stop offset="0.51" stop-color="#c7c7c6"/><stop offset="0.63" stop-color="#babab9"/><stop offset="0.73" stop-color="#a8a8a7"/><stop offset="0.82" stop-color="#91918f"/><stop offset="0.9" stop-color="#747472"/><stop offset="0.97" stop-color="#535351"/><stop offset="1" stop-color="#40403e"/></radialGradient><linearGradient id="linear-gradient" x1="36.83" y1="35.51" x2="36.83" y2="21.02" gradientUnits="userSpaceOnUse"><stop offset="0.26" stop-color="#ffff3c" stop-opacity="0.4"/><stop offset="0.85" stop-color="#ffff3c" stop-opacity="0.4"/></linearGradient><linearGradient id="linear-gradient-2" x1="43.93" y1="37.84" x2="43.93" y2="31.03" xlink:href="#linear-gradient"/><linearGradient id="linear-gradient-3" x1="34.36" y1="34.68" x2="34.36" y2="24.62" xlink:href="#linear-gradient"/></defs><title>ui</title><g class="cls-1"><g id="Layer_1" data-name="Layer 1"><path class="cls-2" d="M51.59,35.38c-.56-.17-1.07.3-1.15,1a1.56,1.56,0,0,0,.87,1.67c.56.17,1.08-.3,1.16-1.05A1.55,1.55,0,0,0,51.59,35.38Z"/><g id="icon-global"><path class="cls-3" d="M16.42,5.83A11,11,0,0,0,8.61,9.07l4.67,4.67A9.18,9.18,0,0,1,19.79,11H53.58a9.18,9.18,0,0,1,6.52,2.7l4.67-4.67A11,11,0,0,0,57,5.83Z"/><path class="cls-4" d="M13.28,13.74,8.61,9.07a11,11,0,0,0-3.24,7.82V57.41a11,11,0,0,0,3.24,7.82l4.67-4.67A9.18,9.18,0,0,1,10.58,54V20.26A9.18,9.18,0,0,1,13.28,13.74Z"/><path class="cls-4" d="M60.1,13.74a9.18,9.18,0,0,1,2.7,6.52V54a9.18,9.18,0,0,1-2.7,6.52l4.67,4.67A11,11,0,0,0,68,57.41V16.89a11,11,0,0,0-3.24-7.82Z"/><path class="cls-3" d="M53.58,63.26H19.79a9.18,9.18,0,0,1-6.51-2.7L8.61,65.23a11,11,0,0,0,7.81,3.24H57a11,11,0,0,0,7.82-3.24L60.1,60.56A9.18,9.18,0,0,1,53.58,63.26Z"/><path class="cls-5" d="M53.58,11H19.79a9.22,9.22,0,0,0-9.21,9.22V54a9.22,9.22,0,0,0,9.21,9.22H53.58A9.22,9.22,0,0,0,62.8,54V20.26A9.22,9.22,0,0,0,53.58,11Z"/><path class="cls-6" d="M53.58,61.87H19.79a9.22,9.22,0,0,1-9.21-9.21V54a9.22,9.22,0,0,0,9.21,9.22H53.58A9.22,9.22,0,0,0,62.8,54V52.66a9.22,9.22,0,0,1-9.22,9.21Z"/><path class="cls-7" d="M53.58,11H19.79a9.22,9.22,0,0,0-9.21,9.22v2a9.18,9.18,0,0,1,2.7-6.52c1.67-1.67,4-3.28,6.51-3.28H53.58c2.55,0,4.85,1.61,6.52,3.28a9.18,9.18,0,0,1,2.7,6.52v-2A9.22,9.22,0,0,0,53.58,11Z"/><path class="cls-8" d="M53.58,11H19.79a9.22,9.22,0,0,0-9.21,9.22V54a9.22,9.22,0,0,0,9.21,9.22H53.58A9.22,9.22,0,0,0,62.8,54V20.26A9.22,9.22,0,0,0,53.58,11Z"/><rect class="cls-9" x="13.28" y="13.74" width="46.82" height="46.82" rx="8.26" ry="8.26"/><path class="cls-10" d="M17.91,17.88c-2.44,2.44-3.07,5.76-1.4,7.43s5,1,7.43-1.4,3.07-5.77,1.4-7.44S20.35,15.43,17.91,17.88Z"/><path class="cls-11" d="M27.52,53a1.92,1.92,0,0,1-1.36-.49c-.66-.62-1.15-1.89-.25-6.88.32-1.74.71-3.39.93-4.3-.76-.58-2.15-1.68-3.49-2.9-3.15-2.86-4.21-4.67-3.57-6.06,1-2.15,7-2.71,10.9-2.85C34.49,20,36.25,20,36.84,20s2.35,0,6.16,9.44c4,.05,10.12.54,11,3s-3.8,6.4-7.06,8.83c1.26,4,2.71,10,.45,11.34a2.52,2.52,0,0,1-1.31.33h0c-2.56,0-7.41-3.16-9.2-4.39C34.82,49.83,29.79,53,27.52,53Z"/><path class="cls-12" d="M36.84,21.11c1.68,0,5.41,9.44,5.41,9.44s9.9,0,10.65,2.23-7.3,8.06-7.3,8.06,3.18,9.6,1.17,10.82-9.93-4.46-9.93-4.46-8.58,5.73-9.92,4.46,1.17-10.82,1.17-10.82-8.23-6.05-7.31-8.06,10.65-2.23,10.65-2.23S35.16,21.11,36.84,21.11Z"/><path class="cls-13" d="M27.5,51c-.38-.88.26-5.34,1.46-9.88a.9.9,0,0,0-.34-1c-3.84-2.83-7.12-6.1-7-7,.42-.77,5-1.57,9.84-1.68a.91.91,0,0,0,.82-.57c1.5-3.8,3.63-8.1,4.57-8.81.94.71,3.08,5,4.58,8.81a.89.89,0,0,0,.83.57c4.82,0,9.49.77,9.8,1.62s-3.08,4.22-7,7a.9.9,0,0,0-.33,1c1.51,4.54,2.25,9.2,1.56,9.76h0a.64.64,0,0,1-.28,0c-1.78,0-6.25-2.73-8.66-4.45a.81.81,0,0,0-.52-.17.94.94,0,0,0-.5.15C33.74,48.19,29.05,51,27.52,51Z"/><path class="cls-14" d="M52.05,33.07c-.31-.85-5-1.62-9.8-1.62a.89.89,0,0,1-.83-.57c-1.5-3.8-3.64-8.1-4.58-8.81-.94.71-3.07,5-4.57,8.81a.91.91,0,0,1-.82.57c-4.81.11-9.42.91-9.84,1.68-.06.5.94,1.75,2.51,3.25,5.45-.75,14,3.69,21.16,3.58C49.09,37.17,52.29,33.92,52.05,33.07Z"/><path class="cls-15" d="M48.93,32a36.27,36.27,0,0,0-4.11-.44c-1.87,2.4-4.16,5.35-5.9,7.66a31.84,31.84,0,0,0,5,.75Z"/><path class="cls-16" d="M28,36.52a53.93,53.93,0,0,1,5.42,1.25c1.84-2.24,4.82-5.79,7.24-8.65-.57-1.33-1.18-2.64-1.75-3.77Z"/><path class="cls-17" d="M38.26,25.35c-.36,0-1.44-1.38-1.44-1.38a69,69,0,0,0-3.4,6.12c.81-3.7,2.89-7.14,3.41-7.29S38.26,25.35,38.26,25.35Z"/><path class="cls-17" d="M23.06,33.47c-.19-1,5.83-1.48,6.56-1.11S24,33.16,24,34s.49,1.34.19,1.22A1.67,1.67,0,0,1,23.06,33.47Z"/><path class="cls-17" d="M42.8,32.24c-.25.25,3.8.67,4.35.37S45.44,31.75,42.8,32.24Z"/><g id="outer" class="cls-18"><path class="cls-19" d="M61.46,0H11.91A12,12,0,0,0,0,12V61.51a12,12,0,0,0,12,12H61.46a12,12,0,0,0,12-12V12A12,12,0,0,0,61.46,0Zm9.46,61.51A9.47,9.47,0,0,1,61.46,71H11.91a9.48,9.48,0,0,1-9.46-9.46V12A9.47,9.47,0,0,1,11.91,2.5H61.46A9.47,9.47,0,0,1,70.92,12Z"/></g></g></g></g></svg>